<?xml version="1.0" encoding="utf-8"?>
<!-- Generator: Adobe Illustrator 23.0.0, SVG Export Plug-In . SVG Version: 6.00 Build 0)  -->
<svg version="1.1" xmlns="http://www.w3.org/2000/svg" xmlns:xlink="http://www.w3.org/1999/xlink" x="0px" y="0px"
	 viewBox="0 0 381 381" style="enable-background:new 0 0 381 381;" xml:space="preserve">
<style type="text/css">
	.st0{fill:#E8DD7C;}
	.st1{fill:#A3C4F3;}
	.st2{fill:#EAD642;}
	.st3{fill:#FFFFFF;}
	.st4{fill:#AA3900;}
</style>
<g id="Layer_1">
</g>
<g id="Layer_2">
	<g>
		<path class="st0" d="M167.4,246.1c0.4,27.5,0.8,55,1.2,82.6c0.5,5.3,0.9,17.3-6.6,23.4c-4.7,3.8-8.8,2.4-28.3,1.9
			c-24.6-0.6-29.7,1.3-36.1-3.9c-4.7-3.8-9-10.6-8.3-17.7c1.1-10,12.2-19.1,27.5-20v-66.4H167.4z"/>
		<path d="M152.6,355.7c-2.1,0-4.6-0.1-7.7-0.2c-3-0.1-6.8-0.3-11.3-0.4c-6.6-0.2-11.8-0.1-16-0.1c-11.5,0-15.8,0-20.7-3.9
			c-4.5-3.6-9.5-10.7-8.6-18.6c1.2-10.8,12.9-19.7,27.5-20.8v-66.5h52.6l1.2,83.6c0.7,7.8,0.1,18.4-7,24.2
			C159.9,355.1,157.4,355.7,152.6,355.7z M121.4,352.9c3.4,0,7.5,0,12.2,0.1c4.5,0.1,8.3,0.3,11.3,0.4c10.1,0.4,13.1,0.6,16.4-2.1
			c6.7-5.5,6.8-16.5,6.2-22.5l-1.1-81.7h-48.7v66.3l-0.9,0.1c-14,0.8-25.4,9-26.5,19.1c-0.8,7.1,3.8,13.5,7.9,16.8
			c4.4,3.5,8.2,3.5,19.4,3.5C118.8,352.9,120.1,352.9,121.4,352.9z"/>
	</g>
	<g>
		<path class="st0" d="M208.9,246.1c-0.4,27.5-0.8,55-1.2,82.6c-0.5,5.3-0.9,17.3,6.6,23.4c4.7,3.8,8.8,2.4,28.3,1.9
			c24.6-0.6,29.7,1.3,36.1-3.9c4.7-3.8,9-10.6,8.3-17.7c-1.1-10-12.2-19.1-27.5-20v-66.4H208.9z"/>
		<path d="M223.7,355.7c-4.8,0-7.3-0.6-10-2.8c-7.1-5.8-7.7-16.4-7-24.3l1.2-83.5h52.6v66.5c14.6,1.1,26.3,10,27.5,20.8
			c0.9,7.9-4.1,14.9-8.6,18.6c-4.9,4-9.2,4-20.7,3.9c-4.2,0-9.4,0-16,0.1c-4.5,0.1-8.3,0.3-11.3,0.4
			C228.3,355.6,225.8,355.7,223.7,355.7z M209.9,247.1l-1.1,81.6c-0.6,6.1-0.5,17.1,6.2,22.6c3.3,2.7,6.3,2.6,16.4,2.1
			c3-0.1,6.8-0.3,11.3-0.4c6.6-0.2,11.8-0.2,16-0.1c11.3,0,15,0,19.4-3.5c4.1-3.3,8.7-9.7,7.9-16.8c-1.1-10.1-12.5-18.3-26.5-19.1
			l-0.9-0.1v-66.3H209.9z"/>
	</g>
	<g>
		<path class="st0" d="M89.9,200.7c-20.8,13.8-31.7,28.4-37.1,37.1c-6.9,11-8.4,18-7.1,24.5c0.4,2,2,10.1,8.2,13.6
			c12.8,7.3,35.8-10,47.4-23.4c3-3.5,5.2-6.6,6.6-8.7"/>
		<path d="M60.8,278.6c-2.7,0-5.2-0.6-7.4-1.8c-3-1.7-7-5.6-8.7-14.3c-1.4-7.3,0.7-14.8,7.2-25.2c8.9-14.2,21.4-26.8,37.4-37.4
			l1.1,1.7c-15.7,10.4-28,22.8-36.8,36.8c-6.2,9.9-8.3,17.1-7,23.8c1.6,8,5,11.4,7.7,13c12,6.9,34.2-9.4,46.2-23.2
			c2.3-2.7,4.5-5.6,6.5-8.6l1.7,1.1c-2,3.1-4.2,6.1-6.6,8.9C91.8,265,74,278.6,60.8,278.6z"/>
	</g>
	<g>
		<path class="st1" d="M67.2,246.6c-2.8-0.7-6.1,0.8-7.9,3.3c-3,4.3,0.1,9.7,0.5,10.5c0.6,1,2.5,4.2,6.3,4.9c4.7,0.8,8.1-3,8.6-3.5
			c0.8-0.9,3-3.3,2.5-6c-0.2-1.1-0.7-1.5-5-5.3C68.3,247.1,68,246.8,67.2,246.6z"/>
		<path d="M67.5,265.9c-0.5,0-0.9,0-1.4-0.1c-4-0.7-6-4-6.6-5.1c-0.6-1.1-3.6-6.6-0.5-11c1.9-2.7,5.5-4.2,8.4-3.5l0,0
			c0.9,0.2,1.2,0.5,4.8,3.6l0.6,0.6c4.1,3.6,4.7,4.1,4.9,5.3c0.6,2.9-1.7,5.5-2.6,6.4C74,263.3,71.2,265.9,67.5,265.9z M65.8,247
			c-2.2,0-4.7,1.2-6.1,3.2c-2.8,3.9,0,9,0.6,10c0.6,1,2.4,4,5.9,4.7c4,0.7,7-2.1,8.1-3.4c0.8-0.9,2.8-3.2,2.3-5.6
			c-0.2-0.9-0.6-1.2-4.6-4.8l-0.6-0.6c-3.4-3-3.7-3.2-4.4-3.4l0,0C66.6,247,66.2,247,65.8,247z"/>
	</g>
	<g>
		<path class="st1" d="M54.1,248.5c-0.6-0.7-2-1.7-3.3-1.2c-1.5,0.6-1.6,2.9-1.6,3.5c0,0.8-0.1,2.1,0.8,2.9c1,0.8,2.7,0.3,3.5-0.3
			c0.3-0.2,1.3-0.9,1.5-2.2C55.3,249.8,54.3,248.8,54.1,248.5z"/>
		<path d="M51.4,254.6c-0.6,0-1.2-0.2-1.7-0.5c-1.1-0.9-1-2.4-1-3.3c0.1-2.2,0.7-3.5,2-4c1.5-0.6,3.1,0.6,3.8,1.4
			c1.1,1.2,1.2,2.4,1.1,3.1c-0.1,0.7-0.5,1.7-1.7,2.5C53.2,254.3,52.2,254.6,51.4,254.6z M51.5,247.7c-0.2,0-0.3,0-0.5,0.1
			c-0.8,0.3-1.2,1.3-1.3,3.1c0,0.8-0.1,1.9,0.6,2.4c0.8,0.7,2.3,0.2,3-0.3c0.9-0.6,1.2-1.3,1.3-1.8c0.1-0.5,0-1.4-0.8-2.3l0,0
			C53.3,248.4,52.4,247.7,51.5,247.7z"/>
	</g>
	<g>
		<path class="st1" d="M55.2,257c-1.5-1-3.8-1-4.9,0.1c-0.7,0.7-0.7,1.9-0.7,4.2c0,2.7,0,4,0.8,4.5c1.1,0.7,3-0.4,3.7-0.8
			c0.9-0.5,3.1-1.9,3.1-4.4C57.2,259.2,56.5,257.8,55.2,257z"/>
		<path d="M51.3,266.6c-0.4,0-0.8-0.1-1.2-0.3c-1-0.7-1-2.1-1-4.9c0-2.4,0-3.7,0.8-4.6c1.2-1.3,3.7-1.4,5.5-0.2
			c1.4,0.9,2.3,2.5,2.3,4.1c0,2.7-2.5,4.2-3.4,4.8C53.8,265.8,52.5,266.6,51.3,266.6z M52.7,256.8c-0.8,0-1.5,0.2-2,0.7
			c-0.5,0.5-0.5,1.6-0.5,3.9c0,2.4,0,3.7,0.6,4.1c0.9,0.6,2.6-0.5,3.2-0.8c0.8-0.5,2.9-1.8,2.9-3.9c0-1.3-0.7-2.6-1.8-3.3h0
			C54.2,257,53.4,256.8,52.7,256.8z"/>
	</g>
	<g>
		<path class="st1" d="M59,265.3c-1-0.2-1.9,0.4-2.5,0.8c-1.1,0.7-2.7,2.5-2.2,3.8c0.5,1.3,2.9,1.4,4.4,1c0.5-0.2,2.4-0.7,2.7-2.4
			C61.7,267.1,60.4,265.5,59,265.3z"/>
		<path d="M57.1,271.6c-1.3,0-2.7-0.4-3.2-1.5c-0.7-1.6,1-3.5,2.4-4.4c0.6-0.4,1.6-1.1,2.8-0.9l0,0c1.7,0.3,3.1,2.1,2.8,3.8
			c-0.1,0.9-0.8,2.1-3,2.8C58.4,271.5,57.7,271.6,57.1,271.6z M58.6,265.8c-0.7,0-1.3,0.4-1.8,0.8c-1,0.7-2.4,2.3-2,3.2
			c0.4,0.9,2.3,1.1,3.8,0.7c1.4-0.4,2.2-1.1,2.3-2c0.2-1.1-0.8-2.5-2-2.7l0,0C58.8,265.8,58.7,265.8,58.6,265.8z"/>
	</g>
	<g>
		<path class="st1" d="M66,269.5c-1.2,0.9-1.9,0.5-2.6,1.2c-0.6,0.6-0.7,1.7-0.3,2.5c0.7,1.3,3.3,1.3,4.8,0.1c1-0.8,1.6-2.2,1.2-3.4
			c-0.2-0.8-0.9-1.8-1.6-1.8C66.9,268.1,66.9,268.8,66,269.5z"/>
		<path d="M65.3,274.6c-0.3,0-0.5,0-0.8-0.1c-0.9-0.2-1.5-0.6-1.9-1.2c-0.5-0.9-0.4-2.2,0.3-3c0.4-0.5,0.9-0.6,1.4-0.7
			c0.4-0.1,0.8-0.2,1.3-0.6c0.4-0.3,0.6-0.5,0.7-0.8c0.2-0.3,0.5-0.7,1-0.7c1.1,0,1.9,1.2,2.1,2.1c0.4,1.4-0.2,3-1.4,3.9
			C67.4,274.3,66.4,274.6,65.3,274.6z M67.5,268.6C67.5,268.6,67.5,268.6,67.5,268.6c-0.1,0-0.1,0-0.3,0.3c-0.2,0.3-0.5,0.6-0.9,1
			l0,0c-0.7,0.5-1.2,0.6-1.7,0.7c-0.4,0.1-0.6,0.2-0.8,0.4c-0.4,0.5-0.5,1.4-0.2,1.9c0.2,0.3,0.6,0.6,1.2,0.7c1,0.2,2.1-0.1,2.8-0.7
			c0.7-0.6,1.4-1.8,1.1-2.9C68.4,269.2,67.8,268.6,67.5,268.6z"/>
	</g>
	<g>
		<path class="st0" d="M270,207.7c10.1-1.3,28-2.1,46.8,6.8c21.3,10,39.9,30.6,41.2,50.8c0.2,3.7,0.8,11.5-4.5,17.5
			c-3.4,3.8-9,6.7-14.6,6.4c-7.3-0.4-10.4-5.9-23.5-19.7c-10.8-11.3-16.2-17-23.5-21.6c-9.4-5.8-19.3-8.3-28.2-9.2"/>
		<path d="M339.8,290.2c-0.3,0-0.6,0-0.9,0c-6.1-0.4-9.6-4.1-17.1-12.3c-2-2.2-4.3-4.8-7.1-7.7c-10.7-11.2-16.1-16.9-23.3-21.4
			c-8-5-17.3-8-27.8-9l0.2-2c10.8,1,20.4,4.2,28.6,9.3c7.5,4.7,12.9,10.4,23.7,21.7c2.8,2.9,5.1,5.5,7.1,7.7
			c7.4,8,10.4,11.4,15.7,11.7c4.9,0.3,10.3-2.1,13.8-6.1c5-5.7,4.5-13.2,4.2-16.8c-1.2-18.4-18.3-39.4-40.7-49.9
			c-17.5-8.3-34.8-8.2-46.2-6.7l-0.3-2c11.7-1.5,29.4-1.6,47.3,6.9c23.4,11,40.5,32.2,41.8,51.6c0.3,3.9,0.8,11.9-4.7,18.2
			C350.7,287.6,345,290.2,339.8,290.2z"/>
	</g>
	<g>
		<path class="st1" d="M340.5,252.7c-0.7-0.3-4.8-1.8-8.8,0.8c-2.7,1.7-5.2,5.3-4.8,9.3c0.4,4.6,4.3,6.9,5.3,7.5
			c0.4,0.3,6.3,3.6,11.3,0c0.3-0.2,4.2-3.1,4.3-7.8C347.9,257.4,343.8,253.9,340.5,252.7z"/>
		<path d="M338.2,272.4c-3.2,0-5.9-1.5-6.3-1.7c-4.2-2.5-5.3-5.7-5.5-7.9c-0.4-4.3,2.3-8,5.1-9.8c3.8-2.4,7.7-1.4,9.2-0.8l0,0
			c3.8,1.4,7.8,5.2,7.6,10.2c-0.1,4.9-4,7.9-4.5,8.2C342,272,340,272.4,338.2,272.4z M336.7,252.5c-1.4,0-3.1,0.3-4.7,1.3
			c-2.5,1.6-4.9,5-4.6,8.8c0.3,2.9,2,5.3,5.1,7.1c0.2,0.1,6,3.5,10.8,0c0.4-0.3,4-3,4.1-7.4c0.1-4.6-3.5-8-7-9.3l0.2-0.5l-0.2,0.5
			C339.6,252.9,338.3,252.5,336.7,252.5z"/>
	</g>
	<g>
		<path class="st1" d="M352.8,264.6c-0.2,0-1.6-0.2-2.4,0.7c-1,1.2-0.2,4,1.7,5c1,0.5,2.8,0.7,3.6-0.3c0.9-1.2,0.1-3-0.1-3.2
			C355.6,266.5,354.7,264.8,352.8,264.6z"/>
		<path d="M353.8,271.2c-0.7,0-1.4-0.2-2-0.5c-1.1-0.6-2-1.8-2.3-3.2c-0.2-1,0-2,0.5-2.6c0.8-1,2.2-0.9,2.8-0.8h0
			c2.1,0.2,3.1,2,3.2,2.4c0.3,0.5,1.1,2.4,0,3.7C355.6,270.9,354.7,271.2,353.8,271.2z M352.4,265.1c-0.5,0-1.1,0.1-1.5,0.5
			c-0.3,0.4-0.4,1-0.3,1.7c0.2,1.1,0.9,2.1,1.8,2.5c0.8,0.4,2.3,0.6,3-0.2c0.7-0.8,0.1-2.3-0.1-2.7c-0.1-0.2-0.9-1.7-2.4-1.9
			l0.1-0.5l-0.1,0.5C352.7,265.1,352.5,265.1,352.4,265.1z"/>
	</g>
	<g>
		<path class="st1" d="M353,275.7c0-0.3,0.1-1.8-0.8-3c-1.3-1.7-4.2-2.3-5.4-1.2c-0.5,0.5-0.6,1.3-0.6,2.7c0,1.6,0,2.7,0.8,3.7
			c0.7,0.8,2,1.4,3.2,1.1c1.2-0.2,1.8-1.1,2-1.3C352.9,276.9,353,276.1,353,275.7z"/>
		<path d="M349.7,279.6c-1.1,0-2.2-0.5-3-1.4c-1-1.1-1-2.4-0.9-4c0-1.5,0-2.4,0.7-3.1c0.5-0.5,1.4-0.8,2.4-0.7
			c1.4,0.1,2.9,0.9,3.7,2c1,1.3,1,2.7,0.9,3.3v0c0,0.4-0.1,1.4-0.8,2.3c-0.3,0.5-1.1,1.3-2.3,1.5
			C350.2,279.5,349.9,279.6,349.7,279.6z M348.5,271.4c-0.6,0-1,0.1-1.3,0.4c-0.4,0.4-0.4,1-0.4,2.4c0,1.5,0,2.5,0.7,3.3
			c0.6,0.7,1.7,1.2,2.8,1c0.9-0.2,1.4-0.8,1.7-1.1c0.5-0.7,0.6-1.4,0.6-1.8l0,0c0-0.5,0-1.6-0.7-2.6c-0.7-0.9-1.8-1.5-3-1.6
			C348.7,271.4,348.6,271.4,348.5,271.4z"/>
	</g>
	<g>
		<path class="st1" d="M343.6,281.1c1-1.3,0.1-3.7-1.4-5c-0.2-0.2-2-1.6-4.1-0.8c-1.4,0.5-2.7,1.9-2.7,3.3c0.1,2.2,3.4,3.6,5.8,3.5
			C341.8,282,343,281.9,343.6,281.1z"/>
		<path d="M340.7,282.6c-1.7,0-3.5-0.6-4.7-1.7c-0.7-0.7-1.2-1.5-1.2-2.3c-0.1-1.8,1.5-3.3,3-3.8c2.3-0.8,4.2,0.6,4.6,0.9
			c1.7,1.3,2.7,4.1,1.5,5.6l0,0c-0.8,1.1-2.1,1.2-2.8,1.2C341,282.6,340.9,282.6,340.7,282.6z M339.3,275.6c-0.4,0-0.7,0.1-1.1,0.2
			c-1.2,0.4-2.4,1.6-2.4,2.8c0,0.6,0.3,1.1,0.9,1.6c1,0.9,2.9,1.5,4.4,1.4c0.5,0,1.6-0.1,2.1-0.8l0,0c0.7-1,0.1-3.1-1.3-4.3
			C341.7,276.4,340.7,275.6,339.3,275.6z"/>
	</g>
	<g>
		<path class="st1" d="M329.6,272.7c-0.9-0.1-3.2-0.2-3.7,0.9c-0.5,1.1,1,2.8,1.8,3.5c0.6,0.5,1.7,1.4,3,1.2
			c1.8-0.3,3.1-2.8,2.5-4.2C332.6,272.9,330.8,272.8,329.6,272.7z"/>
		<path d="M330.2,278.9c-1.3,0-2.3-0.9-2.9-1.4c-0.3-0.2-2.7-2.4-1.9-4.1c0.7-1.5,3.1-1.3,4.2-1.2h0c1.3,0.1,3.3,0.2,4,1.7
			c0.4,0.8,0.3,1.8-0.2,2.8c-0.6,1.1-1.6,1.9-2.6,2.1C330.6,278.9,330.4,278.9,330.2,278.9z M328.6,273.2c-1.3,0-2,0.2-2.2,0.7
			c-0.3,0.7,0.8,2.1,1.7,2.9c0.6,0.5,1.5,1.3,2.6,1.1c0.7-0.1,1.5-0.8,1.9-1.6c0.4-0.7,0.4-1.4,0.2-1.9c-0.4-0.9-2.1-1.1-3.1-1.1
			l0-0.5l0,0.5C329.2,273.2,328.9,273.2,328.6,273.2z"/>
	</g>
	<g>
		<path class="st0" d="M288.4,207.2c-5,16.3-11.7,37.7-31.5,56.8c-6.5,6.2-31.8,29.8-71,30.1c-45.1,0.3-73.3-30.6-77.6-35.5
			c-8.9-13.2-22.1-36.5-27.6-68.2c-3.1-18-7.2-41.4,2-65.9c14.1-37.3,54.4-65,97-67.4c52.3-3,101.4,32.3,114.4,75.6
			C302.6,161.1,294.2,188.2,288.4,207.2z"/>
		<path d="M185.2,295.1c-42.8,0-70.2-27.4-77.7-35.8l-0.1-0.1C93.3,238.1,84,215,79.7,190.6c-3.1-17.6-7.2-41.6,2.1-66.4
			c14.2-37.6,54.4-65.6,97.9-68c25.1-1.4,50.9,5.9,72.6,20.6c21.2,14.4,36.4,34.1,42.8,55.7c8.6,28.6-0.1,56.5-5.8,75
			c-5,16-11.7,38-31.8,57.2c-20.2,19.4-45.6,30.2-71.7,30.4C185.7,295.1,185.4,295.1,185.2,295.1z M109.1,258
			c7.4,8.3,34.3,35.1,76.1,35.1c0.2,0,0.5,0,0.7,0c25.5-0.2,50.5-10.8,70.3-29.8c19.7-18.9,26.4-40.6,31.3-56.4l1,0.3l-1-0.3
			c6-19.3,14.2-45.8,5.8-73.8c-13.4-44.9-63.2-77.7-113.4-74.9c-42.7,2.5-82.2,29.9-96.1,66.8c-9.1,24.2-5.2,47-2,65.3
			C85.9,214.4,95.1,237.2,109.1,258z"/>
	</g>
	<g>
		<path d="M215.4,123.5c-2.7-2.9-10.2-9.6-21.8-10c-9.4-0.4-16.5,3.7-19.8,6.1l-1.2-1.6c3.5-2.6,11-6.9,21.1-6.5
			c12.3,0.5,20.3,7.6,23.2,10.7L215.4,123.5z"/>
	</g>
	<g>
		<path class="st2" d="M312.8,27.1c-0.7,0.1,5.9,19.8-2.3,28.3c-7.9,8.3-26.6,2.9-26.8,4.6c-0.2,1.6,17.2,1.9,23,12.3
			c3.6,6.5,1.6,14.4,3.1,14.6c1.6,0.2,1.4-10.2,8.3-16c7.8-6.5,19.6-2.9,20.1-5.4c0.4-2.1-7.4-3.4-13.8-9.2
			C312.8,45.9,313.5,27,312.8,27.1z"/>
		<path d="M309.8,87.9c-0.1,0-0.1,0-0.2,0c-1.4-0.2-1.4-1.8-1.5-4.1c-0.1-2.8-0.2-7.1-2.3-10.9c-3.8-6.9-13.4-9.1-18.5-10.3
			c-3.3-0.8-4.8-1.1-4.6-2.5c0.2-1.5,1.8-1.3,5.7-1c6.1,0.5,16.3,1.3,21.4-4.1c4-4.2,4.2-11.4,3.6-17.3c-0.6-2.8-0.9-5.3-1.1-7.1
			c0-0.2-0.1-0.4-0.1-0.6c-0.5-2.3-0.5-2.7-0.2-3.2l0.2-0.4l0.9-0.1l0.4,0.3c0.5,0.4,0.5,0.8,0.7,2.7c0,0.3,0.1,0.6,0.1,1
			c0.4,1.9,0.9,4.4,1.1,7.2c1.3,5.9,3.9,13.2,9.6,18.2c3.2,2.9,6.9,4.7,9.5,6c3,1.5,4.9,2.4,4.6,4.2c-0.4,1.8-2.6,1.8-5.8,1.9
			c-4.3,0.1-10.2,0.3-14.6,4.1c-4.2,3.5-5.6,8.8-6.5,12.3C311.5,86.3,311.1,87.9,309.8,87.9z M289.8,61c5.6,1.4,14,4.1,17.8,10.8
			c2.3,4.2,2.5,8.8,2.5,11.8c0,0,0,0.1,0,0.1c0-0.1,0.1-0.2,0.1-0.3c0.9-3.5,2.5-9.5,7.2-13.4c5-4.2,11.5-4.4,15.9-4.5
			c1.5,0,3.2-0.1,3.8-0.4c-0.4-0.5-2.1-1.3-3.4-2c-2.8-1.4-6.5-3.2-10-6.3c-3.8-3.4-6.4-7.8-8-12.1c-0.3,4.2-1.5,8.3-4.3,11.3
			C305.9,61.7,296.3,61.5,289.8,61z"/>
	</g>
	<g>
		<path class="st2" d="M337.3,137.8c-0.7,0.1,5.9,19.8-2.3,28.3c-7.9,8.3-26.6,2.9-26.8,4.6c-0.2,1.6,17.2,1.9,23,12.3
			c3.6,6.5,1.6,14.4,3.1,14.6c1.6,0.2,1.4-10.2,8.3-16c7.8-6.5,19.6-2.9,20.1-5.4c0.4-2.1-7.4-3.4-13.8-9.2
			C337.3,156.6,337.9,137.7,337.3,137.8z"/>
		<path d="M334.3,198.6c-0.1,0-0.1,0-0.2,0c-1.4-0.2-1.4-1.8-1.5-4.1c-0.1-2.8-0.2-7.1-2.3-10.9c-3.8-6.9-13.4-9.1-18.5-10.3
			c-3.3-0.8-4.8-1.1-4.6-2.5c0.2-1.5,1.8-1.3,5.7-1c6.1,0.5,16.3,1.3,21.4-4.1c4-4.2,4.2-11.4,3.6-17.3c-0.6-2.8-0.9-5.3-1.1-7.1
			c0-0.2-0.1-0.4-0.1-0.6c-0.5-2.3-0.5-2.7-0.2-3.2l0.2-0.4l0.9-0.1l0.4,0.3c0.5,0.4,0.5,0.8,0.7,2.7c0,0.3,0.1,0.6,0.1,1
			c0.4,1.9,0.9,4.4,1.1,7.2c1.3,5.9,3.9,13.2,9.6,18.2c3.2,2.9,6.9,4.7,9.5,6c3,1.5,4.9,2.4,4.6,4.2c-0.4,1.8-2.6,1.8-5.8,1.9
			c-4.3,0.1-10.2,0.3-14.6,4.1c-4.2,3.5-5.6,8.8-6.5,12.3C336,197,335.6,198.6,334.3,198.6z M314.3,171.7c5.6,1.4,14,4.1,17.8,10.8
			c2.3,4.2,2.5,8.8,2.5,11.8c0,0,0,0.1,0,0.1c0-0.1,0.1-0.2,0.1-0.3c0.9-3.5,2.5-9.5,7.2-13.4c5-4.2,11.5-4.4,15.9-4.5
			c1.5,0,3.2-0.1,3.8-0.4c-0.4-0.5-2.1-1.3-3.4-2c-2.8-1.4-6.5-3.2-10-6.3c-3.8-3.4-6.4-7.8-8.1-12.1c-0.3,4.2-1.5,8.3-4.3,11.3
			C330.3,172.4,320.8,172.1,314.3,171.7z"/>
	</g>
	<g>
		<path class="st2" d="M64.8,45.2c-0.7,0.1,5.9,19.8-2.3,28.3c-7.9,8.3-26.6,2.9-26.8,4.6c-0.2,1.6,17.2,1.9,23,12.3
			c3.6,6.5,1.6,14.4,3.1,14.6c1.6,0.2,1.4-10.2,8.3-16c7.8-6.5,19.6-2.9,20.1-5.4c0.4-2.1-7.4-3.4-13.8-9.2
			C64.8,64,65.4,45.1,64.8,45.2z"/>
		<path d="M61.8,105.9c-0.1,0-0.1,0-0.2,0c-1.4-0.2-1.4-1.8-1.5-4.1c-0.1-2.8-0.2-7.1-2.3-10.9C54,84,44.4,81.7,39.3,80.5
			c-3.3-0.8-4.8-1.1-4.6-2.5c0.2-1.5,1.8-1.3,5.7-1c6.1,0.5,16.3,1.3,21.4-4.1c4-4.2,4.2-11.4,3.6-17.3c-0.6-2.8-0.9-5.3-1.1-7.1
			c0-0.2-0.1-0.4-0.1-0.6c-0.5-2.3-0.5-2.7-0.2-3.2l0.2-0.4l0.9-0.1l0.4,0.3c0.5,0.4,0.5,0.8,0.7,2.7c0,0.3,0.1,0.6,0.1,1
			c0.4,1.9,0.9,4.4,1.1,7.2c1.3,5.9,3.9,13.2,9.6,18.2c3.2,2.9,6.9,4.7,9.5,6c3,1.5,4.9,2.4,4.6,4.2c-0.4,1.8-2.6,1.8-5.8,1.9
			c-4.3,0.1-10.2,0.3-14.6,4.1c-4.2,3.5-5.6,8.8-6.5,12.3C63.5,104.3,63.1,105.9,61.8,105.9z M41.8,79c5.6,1.4,14,4.1,17.8,10.8
			c2.3,4.2,2.5,8.8,2.5,11.8c0,0,0,0.1,0,0.1c0-0.1,0.1-0.2,0.1-0.3c0.9-3.5,2.5-9.5,7.2-13.4c5-4.2,11.5-4.4,15.9-4.5
			c1.5,0,3.2-0.1,3.8-0.4c-0.4-0.5-2.1-1.3-3.4-2c-2.8-1.4-6.5-3.2-10-6.3c-3.8-3.4-6.4-7.8-8.1-12.1c-0.3,4.2-1.5,8.3-4.3,11.3
			C57.8,79.8,48.3,79.5,41.8,79z"/>
	</g>
	<g>
		<path class="st2" d="M37.6,287.3c-0.7,0.1,5.9,19.8-2.3,28.3c-7.9,8.3-26.6,2.9-26.8,4.6c-0.2,1.6,17.2,1.9,23,12.3
			c3.6,6.5,1.6,14.4,3.1,14.6c1.6,0.2,1.4-10.2,8.3-16c7.8-6.5,19.6-2.9,20.1-5.4c0.4-2.1-7.4-3.4-13.8-9.2
			C37.6,306.1,38.2,287.2,37.6,287.3z"/>
		<path d="M34.6,348.1c-0.1,0-0.1,0-0.2,0c-1.4-0.2-1.4-1.8-1.5-4.1c-0.1-2.8-0.2-7.1-2.3-10.9c-3.8-6.9-13.4-9.1-18.5-10.3
			c-3.3-0.8-4.8-1.1-4.6-2.5c0.2-1.5,1.8-1.3,5.7-1c6.1,0.5,16.3,1.3,21.4-4.1c4-4.2,4.2-11.4,3.6-17.3c-0.6-2.8-0.9-5.3-1.1-7.1
			c0-0.2-0.1-0.4-0.1-0.6c-0.5-2.3-0.5-2.7-0.2-3.2l0.2-0.4l0.9-0.1l0.4,0.3c0.5,0.4,0.5,0.8,0.7,2.7c0,0.3,0.1,0.6,0.1,1
			c0.4,1.9,0.9,4.4,1.1,7.2c1.3,5.9,3.9,13.2,9.6,18.2c3.2,2.9,6.9,4.7,9.5,6c3,1.5,4.9,2.4,4.6,4.2c-0.4,1.8-2.6,1.8-5.8,1.9
			c-4.3,0.1-10.2,0.3-14.6,4.1c-4.2,3.5-5.6,8.8-6.5,12.3C36.3,346.5,35.9,348.1,34.6,348.1z M14.6,321.2c5.6,1.4,14,4.1,17.8,10.8
			c2.3,4.2,2.5,8.8,2.5,11.8c0,0,0,0.1,0,0.1c0-0.1,0.1-0.2,0.1-0.3c0.9-3.5,2.5-9.5,7.2-13.4c5-4.2,11.5-4.4,15.9-4.5
			c1.5,0,3.2-0.1,3.8-0.4c-0.4-0.5-2.1-1.3-3.4-2c-2.8-1.4-6.5-3.2-10-6.3c-3.8-3.4-6.4-7.8-8.1-12.1c-0.3,4.2-1.5,8.3-4.3,11.3
			C30.6,321.9,21.1,321.7,14.6,321.2z"/>
	</g>
	<g>
		<path d="M334.8,300.9c-2.7,0-5.8-0.5-8.9-2.2c-6.1-3.2-8.5-8.8-9.2-11l1.9-0.6c0.7,2,2.8,7,8.3,9.9c7.1,3.8,14.2,1,15.5,0.4
			l0.8,1.8C342.3,299.6,339,300.9,334.8,300.9z"/>
	</g>
	<g>
		<path d="M336.8,294.6c-2.3,0-5.3-0.4-8.4-2c-2.3-1.2-4.3-2.9-6-5l1.6-1.2c1.4,1.9,3.2,3.4,5.3,4.4c3.9,2,7.7,1.9,9.6,1.6l0.3,2
			C338.6,294.5,337.8,294.6,336.8,294.6z"/>
	</g>
	<g>
		<path d="M366.4,264.9l-2-0.2c0.2-1.6,0.1-3.2-0.2-4.8c-1.1-4.7-4.5-7.6-6.5-8.8l1.1-1.7c2.2,1.4,6.1,4.6,7.3,10.1
			C366.5,261.2,366.6,263,366.4,264.9z"/>
	</g>
	<g>
		<path d="M372.5,265.3l-1.9-0.7c0.6-1.6,1.7-5.9-0.4-10.6c-2.3-5.1-6.8-7.1-8.2-7.6l0.7-1.9c1.5,0.5,6.7,2.8,9.3,8.6
			C374.4,258.6,373.1,263.5,372.5,265.3z"/>
	</g>
	<g>
		<path d="M128,93c-13.2-2.8-23.4-11.6-26.8-23c-3.7-12.6,0.2-29.4,11.6-33.3c2.3-0.8,4.7-1,7.2-0.8c5.6-6.3,14-10.8,23-9
			c4.4,0.9,7.8,2.9,10.5,5.3c4.4-1,9-0.8,12-0.8c2.3,0.1,6,0.2,9.7,1.3c4.8-1.6,10.4-2.1,14.9-1.8c7.1,0.6,13,3.2,17.2,7.5
			c3-1.4,6.2-2.5,9.8-2.9c10.4-1.2,16.3,2.3,19.4,5.5c0.1,0.1,0.1,0.1,0.2,0.2c6.4-1.2,13.3-0.7,17.7,3.9c0.5,0.5,0.9,1,1.3,1.6
			c0.6-0.1,1.2-0.2,1.8-0.3c5.7-0.8,11.2,0.6,14.8,3.7c3,2.5,4.7,6.3,5,10.9c0.5,7.2-2.6,16-7.8,21.9c-6.4,7.4-15.2,9.2-19.8,9.7
			l-0.6-6c3.8-0.4,10.8-1.9,15.9-7.7c4.1-4.7,6.7-11.9,6.3-17.6c-0.2-3-1.2-5.3-2.9-6.8c-2.3-2-6.1-2.8-10-2.3c0,0-0.1,0-0.1,0
			c0.7,2.9,0.8,6.1-0.1,9c-0.2,0.6-4.1,14.4-10.7,12.8c-1.2-0.3-2.9-1.2-4.1-4.2c-1.7-4.3-1.8-11.2,1.5-16.2c1.2-1.9,2.9-3.5,5-4.7
			c-2.5-2.3-6.6-2.5-9.4-2.3c1.6,3.4,2.2,7.2,0.5,10.1c-0.1,0.2-0.4,0.6-0.8,1.1c-2.9,3-8.5,2.2-12.8,0.5c-2.5-1-6.6-3.2-6.6-6.7
			c-0.1-4.1,5.6-7.1,9-8.5c0,0,0.1,0,0.1,0c-2.5-1.4-6.2-2.5-11.9-1.8c-2.4,0.3-4.7,1-6.7,1.8c1.2,2.2,2,4.8,1,7.5
			c-1.5,4.1-6.9,6.2-11.4,6.5c-3.5,0.2-5.8-0.7-6.8-2.6c-0.7-1.4-0.6-3.1,0.5-5.1c1.2-2.3,4-5.4,7.7-8c-3.1-2.7-7.3-4.3-12.3-4.7
			c-2.1-0.2-4.4-0.1-6.5,0.2c0.5,0.5,1,1,1.5,1.6c3.5,4.3,4.6,8.7,3,12.3c-1.9,4.2-6.8,6-10.5,5.9c-3.6-0.1-7.4-2.1-10-5.2
			c-2.4-2.8-3.5-6-3.1-8.9c0.3-2,1.3-3.7,2.7-5.2c-0.5,0-1,0-1.4,0c-1.9-0.1-4.5-0.1-7.2,0.1c0.5,0.7,0.9,1.4,1.3,2.1
			c1.9,3.4,5.4,9.6,2,15.3c-2.8,4.7-9.6,7-14.5,4.8c-2.6-1.2-4.5-3.4-5.6-6.6c-1.4-4.3-1-9.6,1.1-13.4c1.2-2.1,2.7-3.7,4.6-4.9
			c-1.5-0.9-3.2-1.6-5.1-2c-5.8-1.1-11.2,1.4-15.2,5c2.9,1.4,5.5,3.5,7.4,6.1c2.9,4,6.5,12.6,1.5,18.9c-4.4,5.5-13.6,6.8-19,2.5
			c-8.1-6.3-2.1-20.4-1.4-22c0.2-0.4,0.4-0.9,0.6-1.3c-0.3,0.1-0.7,0.2-1,0.3C107,45,104.2,58.7,107,68.3
			c2.7,9.3,11.2,16.5,22.2,18.8L128,93z M252.5,54.3c-1.1,0.7-2,1.6-2.7,2.6c-2.2,3.4-1.8,8.1-1,10.4c1.1-1.4,2.6-4.2,3.6-7.7
			C252.8,58,252.8,56.1,252.5,54.3z M122.5,42.5c-0.7,1.1-1.4,2.2-1.8,3.3c-1.3,2.9-4.2,11.8-0.4,14.8c2.6,2,8.1,1.7,10.6-1.5
			c3.6-4.5-1.6-11.6-1.6-11.7C127.6,45.1,125.1,43.4,122.5,42.5z M151.7,39c-1.8,0.8-3.2,1.9-4.1,3.5c-1.3,2.4-1.6,5.9-0.7,8.6
			c0.4,1.1,1,2.4,2.3,3c2.1,1,5.6-0.2,6.9-2.4c1.6-2.6-0.6-6.6-2.1-9.2C153.5,41.5,152.7,40.2,151.7,39z M227,51.6
			c1,0.7,3.1,1.7,5.5,2.2c1.9,0.4,2.9,0.1,3.2,0c0.5-1-0.1-3.4-1.5-5.8C230.7,49.1,228.1,50.6,227,51.6z M205.8,46.2
			c-2.5,1.8-4.5,3.7-5.5,5.1c1.1-0.1,2.6-0.3,4-0.9c1.4-0.6,2-1.3,2.2-1.7C206.5,48.4,206.7,47.7,205.8,46.2z M175.2,39
			c-3,1.2-5.1,2.8-5.4,4.5c-0.2,1.1,0.5,2.8,1.7,4.2c1.6,1.9,3.7,3,5.6,3.1c1.8,0.1,4.1-0.8,4.8-2.3c0.6-1.4-0.2-3.7-2.1-6.1
			C178.6,40.8,177,39.7,175.2,39z"/>
	</g>
	<g>
		<path class="st3" d="M226.7,184.6c-6.3,16.2-23,24.7-37.9,24.9c-2.1,0-21-0.1-32.9-15.7c-1.2-1.6-8.8-11.9-7.9-26
			c1.3-20.7,20.1-41.6,40.8-41c13.5,0.4,22.8,9.8,25.9,12.9C216.8,141.7,235.7,161.6,226.7,184.6z"/>
		<path d="M188.7,210.5c-2.9,0-21.7-0.6-33.5-16.1c-2.1-2.8-9-12.9-8.1-26.7c0.6-10.3,5.5-20.9,13.4-29.1
			c8.1-8.4,18.5-13.1,28.4-12.8c14,0.4,23.4,10,26.6,13.2c2.2,2.3,21.3,22.6,12.2,46c-6.8,17.4-24.4,25.4-38.8,25.5
			C188.8,210.5,188.8,210.5,188.7,210.5z M188.1,127.7c-18.9,0-37.7,19.2-39,40.1c-0.8,13.1,5.7,22.7,7.7,25.4
			c11.4,15.1,30,15.3,32,15.3c13.7-0.1,30.5-7.7,36.9-24.2c8.6-22.2-9.7-41.7-11.8-43.9c-3-3-12-12.3-25.2-12.6
			C188.6,127.7,188.4,127.7,188.1,127.7z"/>
	</g>
	<g>
		<path class="st4" d="M132.6,213.4c12.9,6.8,24.8,10.2,34.3,12c1.7,0.3,4,0.7,7,1.1c15.7,2.1,27.7,0.6,36.3-0.5
			c12.9-1.6,23.6-4.5,31.3-7c-0.8,4.6-4,18.8-16.8,30.4c-13.6,12.4-29.1,13.6-33.4,13.9c-17.3,1.1-29.7-6.2-35.3-9.7
			c-6.4-3.9-16-9.8-20.8-21.7C132.1,224.4,132.2,217.6,132.6,213.4z"/>
		<path d="M187.7,264.5c-16.1,0-27.8-7.1-32.3-9.9c-6.5-4-16.3-10-21.2-22.2c-2.4-5.9-3.3-12.3-2.6-19l0.1-1.5l1.3,0.7
			c10.9,5.7,22.4,9.7,34.1,11.9c2.3,0.4,4.6,0.8,6.9,1.1c15.5,2,27.4,0.6,36-0.5c10.5-1.3,21-3.6,31.1-6.9l1.6-0.5l-0.3,1.6
			c-1.3,6.9-5.1,20.1-17.1,31c-9.3,8.4-21,13.3-34,14.1C190.1,264.4,188.9,264.5,187.7,264.5z M133.5,215
			c-0.4,5.8,0.5,11.4,2.6,16.6c4.7,11.6,14.1,17.4,20.4,21.3c5.2,3.2,17.4,10.7,34.7,9.5c12.5-0.8,23.9-5.5,32.8-13.6
			c10.6-9.7,14.7-21.2,16.2-28.2c-9.7,3.1-19.7,5.2-29.8,6.5c-8.7,1.1-20.7,2.6-36.5,0.5c-2.4-0.3-4.7-0.7-7-1.1
			C155.3,224.2,144.2,220.4,133.5,215z"/>
	</g>
	<g>
		<path d="M245.7,209.1c-4.7,0-8.5-3.8-8.5-8.5c0-5.7,4.6-10.3,10.3-10.3c7,0,12.7,5.7,12.7,12.7h-2c0-5.9-4.8-10.7-10.7-10.7
			c-4.6,0-8.3,3.7-8.3,8.3c0,3.6,2.9,6.5,6.5,6.5c2.7,0,5-2.2,5-5c0-2.1-1.7-3.8-3.8-3.8c-1.5,0-2.8,1.2-2.8,2.8
			c0.1-1.3,1.2-2.3,2.6-2.3c1.6,0,3,1.3,3,3c0,1.9-1.5,3.5-3.5,3.5c-2.2,0-4.1-1.8-4.1-4.1c0-2.7,2.2-4.8,4.8-4.8
			c3.2,0,5.8,2.6,5.8,5.8C252.7,206,249.6,209.1,245.7,209.1z M244.1,201.4c0.1,1,1,1.8,2.1,1.8c0.8,0,1.5-0.7,1.5-1.5
			c0-0.5-0.4-1-1-1c-0.3,0-0.6,0.3-0.6,0.6H244.1z"/>
	</g>
	<g>
		<path d="M132,205.9c-3.8,0-7-3.1-7-7c0-3.2,2.6-5.8,5.8-5.8c2.7,0,4.8,2.2,4.8,4.8c0,2.2-1.8,4.1-4.1,4.1c-1.9,0-3.4-1.5-3.4-3.4
			c0-1.6,1.3-3,3-3c1.3,0,2.4,1,2.6,2.3c0-1.5-1.3-2.8-2.8-2.8c-2.1,0-3.8,1.7-3.8,3.8c0,2.7,2.2,5,5,5c3.6,0,6.5-2.9,6.5-6.5
			c0-4.6-3.7-8.3-8.3-8.3c-5.9,0-10.7,4.8-10.7,10.7h-2c0-7,5.7-12.7,12.7-12.7c5.7,0,10.3,4.6,10.3,10.3
			C140.5,202.1,136.7,205.9,132,205.9z M131.1,197.6c-0.5,0-1,0.4-1,1c0,0.8,0.6,1.4,1.4,1.4c1.1,0,1.9-0.8,2.1-1.8h-2
			C131.7,197.9,131.4,197.6,131.1,197.6z"/>
	</g>
	<g>
		<path d="M205.4,170.4c0.2-1,2-9.4-4.2-14.6c-4.8-4-10.9-3.3-12.8-3.1c-2,0.2-10.1,1.4-13.3,7.8c-2.4,4.7-0.7,9.3,0.3,12
			c1,2.8,3.5,9.8,10.3,11.5c7.3,1.8,13.6-4.2,14.7-5.2C201.4,177.8,204.3,175,205.4,170.4z"/>
		<path d="M188.5,185.3c-1,0-2-0.1-3-0.4c-7.3-1.8-10-9.3-11-12.1c-1-2.7-2.8-7.7-0.2-12.8c3.4-6.7,11.7-8.1,14.1-8.4
			c5.6-0.6,10.1,0.5,13.5,3.4c6.5,5.4,4.9,13.9,4.5,15.6v0c-0.8,3.3-2.5,6.3-5.3,8.8C198.6,181.8,194,185.3,188.5,185.3z
			 M191.2,153.5c-0.8,0-1.7,0.1-2.6,0.2c-2.2,0.2-9.6,1.5-12.5,7.3c-2.2,4.3-0.6,8.6,0.3,11.2c1,2.8,3.3,9.3,9.6,10.8
			c6.1,1.5,11.7-3,13.8-5c0.9-0.9,3.7-3.5,4.7-7.8v0c0.3-1.5,1.7-8.9-3.8-13.6C198.2,154.6,195,153.5,191.2,153.5z"/>
	</g>
</g>
</svg>
