<?xml version="1.0" encoding="utf-8"?>
<!-- Generator: Adobe Illustrator 23.0.0, SVG Export Plug-In . SVG Version: 6.00 Build 0)  -->
<svg version="1.1" xmlns="http://www.w3.org/2000/svg" xmlns:xlink="http://www.w3.org/1999/xlink" x="0px" y="0px"
	 viewBox="0 0 1920 1080" style="enable-background:new 0 0 1920 1080;" xml:space="preserve">
<style type="text/css">
	.st0{display:none;}
	.st1{fill:#A3C4F3;}
	.st2{fill:#DA85B0;}
	.st3{fill:#CFBAF0;}
	.st4{display:inline;}
	.st5{fill:#E8DD7C;}
	.st6{fill:#EAD642;}
	.st7{fill:#FFFFFF;}
	.st8{fill:#AA3900;}
</style>
<g id="Layer_1" class="st0">
</g>
<g id="NHIN">
	<g>
		<path class="st1" d="M1184.8,591.1c-1.9-0.8-1.9-2.8-2.9-2.8c-1.2,0-3,3-2.3,5.5c0.7,2.9,4.2,4,5.5,4.4c1.4,0.4,2,0.3,2.3,0.2
			c1.5-0.5,2.3-2.5,2.1-4.1c0-0.3-0.2-1.7-1.3-2.5C1187.1,590.9,1186.2,591.7,1184.8,591.1z"/>
		<path d="M1186.7,599c-0.4,0-1-0.1-1.7-0.3c-1.4-0.4-5.1-1.6-5.9-4.8c-0.5-1.9,0.3-4,1.2-5.2c0.5-0.7,1.1-1,1.6-1
			c0.7,0,1.1,0.6,1.4,1.2c0.4,0.6,0.8,1.3,1.6,1.6v0c0.6,0.3,1.1,0.2,1.6,0.2c0.6,0,1.3,0,2,0.5c0.8,0.6,1.3,1.6,1.5,2.9
			c0.2,1.8-0.7,4-2.5,4.6C1187.4,599,1187.1,599,1186.7,599z M1181.9,588.8c-0.2,0-0.5,0.2-0.9,0.6c-0.8,1-1.4,2.8-1,4.3
			c0.6,2.7,3.9,3.7,5.2,4c1.3,0.4,1.8,0.2,2,0.2c1.3-0.5,2-2.2,1.8-3.6c-0.1-1-0.5-1.8-1.1-2.2c-0.5-0.3-0.9-0.3-1.4-0.3
			c-0.5,0-1.2,0-2-0.3c-1.2-0.5-1.7-1.4-2.1-2C1182.2,589.1,1182.1,588.8,1181.9,588.8C1181.9,588.8,1181.9,588.8,1181.9,588.8z"/>
	</g>
	<g>
		<path class="st1" d="M1159.3,567.1c-2.3-0.5-5.1,1.3-5.6,3.9c-0.6,2.9,2.1,5.1,2.5,5.4c2.1,1.6,5.7,2.4,7.1,0.8
			c1.3-1.4,0.3-4-0.2-5.4C1162.5,570.1,1161.5,567.6,1159.3,567.1z"/>
		<path d="M1160.8,578.5c-1.7,0-3.6-0.7-5-1.8c-1-0.8-3.3-3-2.7-5.9c0.3-1.4,1.2-2.6,2.4-3.4c1.2-0.8,2.6-1.1,3.8-0.8
			c2.5,0.5,3.5,3.2,4.1,5c0.5,1.5,1.6,4.2,0.1,5.9C1163,578.2,1162,578.5,1160.8,578.5z M1158.5,567.5c-0.8,0-1.6,0.3-2.4,0.8
			c-1,0.7-1.8,1.7-2,2.8c-0.5,2.3,1.5,4.2,2.3,4.9c1.9,1.5,5.2,2.2,6.4,0.8c1.1-1.2,0.1-3.7-0.3-4.9c-0.6-1.6-1.4-3.9-3.4-4.3l0,0
			C1159,567.6,1158.7,567.5,1158.5,567.5z"/>
	</g>
	<g>
		<path class="st1" d="M1168.4,576.7c-1.2,1-1.8,2.8-1.6,4.4c0.3,1.6,1.4,2.5,3.6,4.3c1.8,1.4,3,2.4,5,2.7c1,0.1,2.5,0.4,3.6-0.6
			c1.7-1.4,1.3-4.6,0.4-6.6c-0.7-1.5-1.8-2.4-2.2-2.8C1175.1,576.5,1170.9,574.7,1168.4,576.7z"/>
		<path d="M1176.8,588.7c-0.6,0-1.1-0.1-1.5-0.1c-2.1-0.3-3.5-1.4-5.2-2.8c-2.3-1.8-3.5-2.8-3.8-4.6c-0.3-1.8,0.4-3.7,1.8-4.8
			c2.7-2.2,7.2-0.3,9.4,1.5c0.4,0.4,1.6,1.3,2.4,2.9c0.9,1.9,1.5,5.5-0.5,7.2C1178.6,588.5,1177.7,588.7,1176.8,588.7z
			 M1171.2,576.4c-0.9,0-1.8,0.2-2.4,0.8l0,0c-1.1,0.9-1.6,2.5-1.4,3.9c0.2,1.4,1.2,2.2,3.4,4c1.8,1.5,3,2.3,4.7,2.6
			c0.9,0.1,2.3,0.3,3.2-0.5c1.5-1.2,1-4.2,0.2-6c-0.7-1.4-1.7-2.2-2.1-2.6C1175.4,577.4,1173.1,576.4,1171.2,576.4z"/>
	</g>
	<g>
		<path class="st1" d="M946.7,563.2c-0.3-1.7-2.3-2.5-3.1-2.9c-2-0.8-5.4-1.2-7.5,0.9c-1.2,1.2-1.5,2.7-1.5,3.2
			c0,0.2-0.4,3.1,1.3,4.3c0.8,0.5,2.6,0.1,6.1-0.8c2.6-0.7,3.4-1,4-1.8C946.1,565.7,947,564.5,946.7,563.2z"/>
		<path d="M936.7,569.3c-0.5,0-1-0.1-1.3-0.3c-1.9-1.3-1.5-4.4-1.5-4.7c0.1-0.6,0.4-2.2,1.7-3.4c2.4-2.4,6.2-1.8,8.1-1
			c0.9,0.4,3,1.3,3.4,3.2l0,0c0.3,1.5-0.6,2.8-0.9,3.2c-0.8,0.9-1.7,1.3-4.3,2C939.5,568.9,937.9,569.3,936.7,569.3z M940.2,560.1
			c-1.3,0-2.7,0.4-3.8,1.4c-1.1,1-1.3,2.4-1.4,2.9c0,0.1-0.4,2.8,1.1,3.8c0.6,0.4,2.7-0.1,5.6-0.9c2.7-0.7,3.3-1,3.8-1.6
			c0.2-0.3,1-1.3,0.7-2.4l0,0c-0.3-1.5-2-2.2-2.8-2.5C942.6,560.4,941.4,560.1,940.2,560.1z"/>
	</g>
	<g>
		<path class="st1" d="M949.5,553.6c-1.4-0.4-3.8-0.4-4.5,1c-0.9,1.6,1.5,4,1.8,4.3c0.8,0.8,2,2,3.5,1.7c1.5-0.3,2.7-2.1,2.5-3.7
			C952.7,554.6,950,553.7,949.5,553.6z"/>
		<path d="M949.9,561.1c-1.5,0-2.7-1.2-3.4-1.9c-0.9-0.9-2.8-3.1-1.9-4.9c0.9-1.7,3.6-1.7,5.1-1.2l0,0c0.6,0.2,3.5,1.1,3.7,3.7
			c0.2,1.9-1.2,3.9-2.9,4.2C950.3,561.1,950.1,561.1,949.9,561.1z M947.8,553.9c-1,0-2,0.3-2.3,0.9c-0.5,1,0.5,2.6,1.7,3.7
			c0.7,0.7,1.8,1.8,3.1,1.6c1.2-0.3,2.3-1.8,2.1-3.2c-0.2-2-2.5-2.7-3-2.9h0C948.9,553.9,948.4,553.9,947.8,553.9z"/>
	</g>
	<g>
		<path class="st1" d="M947.9,538.7c-1.4-1-3.8-1.8-5.4-0.7c-1.9,1.3-1.2,4.6-0.8,6.4c0.4,2.1,0.9,4.5,3,5.4
			c1.9,0.8,4.5-0.1,5.6-1.8c1.6-2.3,0.2-5.3-0.5-6.7C949.5,540.5,949,539.5,947.9,538.7z"/>
		<path d="M946.2,550.6c-0.6,0-1.2-0.1-1.7-0.3c-2.3-1-2.9-3.6-3.3-5.7c-0.4-1.9-1.1-5.4,1-6.9c1.6-1.2,4.3-0.5,6,0.7h0
			c1.2,0.9,1.7,2,2.1,2.8c0.7,1.4,2.2,4.6,0.4,7.2C949.7,549.7,947.9,550.6,946.2,550.6z M944.3,538c-0.6,0-1.1,0.1-1.5,0.4
			c-1.6,1.1-1,4.2-0.6,5.9c0.4,2,0.9,4.3,2.7,5c1.6,0.7,4-0.1,5-1.6c1.5-2.1,0.1-4.9-0.5-6.2c-0.4-0.7-0.8-1.7-1.8-2.4h0
			C946.8,538.5,945.5,538,944.3,538z"/>
	</g>
	<g>
		<path class="st1" d="M1109.3,582.9c-0.6-0.1-5.8-1.1-6.4-4.2c0-0.1-0.3-1.2,0.3-2.3c0.8-1.5,2.6-1.9,3.9-1.8c1,0,1.9,0.6,3.7,1.6
			c1.4,0.8,1.9,1.3,2.2,1.6c0.5,0.5,1.1,1.2,1.3,2.3c0.1,0.4,0.2,1.5-0.4,2.2C1112.9,583.6,1110.6,583.2,1109.3,582.9z"/>
		<path d="M1111.6,583.7c-0.9,0-1.8-0.2-2.4-0.3l0.1-0.5l-0.1,0.5c-1.4-0.3-6.2-1.4-6.8-4.6c-0.1-0.5-0.2-1.6,0.4-2.6
			c0.9-1.6,2.9-2.2,4.3-2.1c1.1,0,2.1,0.6,4,1.7c1.4,0.8,2,1.3,2.3,1.7c0.5,0.6,1.2,1.3,1.4,2.6c0.1,0.4,0.3,1.7-0.5,2.6
			C1113.7,583.5,1112.6,583.7,1111.6,583.7z M1106.9,575c-0.9,0-2.6,0.3-3.3,1.6c-0.4,0.8-0.3,1.6-0.3,1.9c0.5,2.7,5.1,3.7,6,3.9h0
			c1.2,0.2,3.4,0.6,4.2-0.4c0.5-0.6,0.3-1.5,0.3-1.9c-0.2-0.9-0.7-1.5-1.2-2.1c-0.3-0.3-0.8-0.8-2.1-1.5c-1.8-1-2.6-1.5-3.5-1.6
			C1107,575,1106.9,575,1106.9,575z"/>
	</g>
	<g>
		<path class="st1" d="M1087.8,553.7c1,0.4,2.3,0.2,3.1-0.5c1.8-1.6,0.5-5.3-0.3-6.9c-1.3-2.7-3.5-3.9-4.3-4.3
			c-0.6-0.3-4.5-2.2-6.1-0.6c-1.2,1.2-0.7,3.7,0.4,5.3c1,1.4,1.9,0.9,3.5,2.3C1086.4,551,1086,553,1087.8,553.7z"/>
		<path d="M1088.9,554.4c-0.4,0-0.8-0.1-1.2-0.2l0,0c-1.2-0.4-1.6-1.3-2-2.2c-0.4-0.8-0.8-1.7-1.9-2.6c-0.7-0.6-1.3-0.9-1.8-1.1
			c-0.6-0.3-1.2-0.5-1.8-1.3c-1.3-1.7-1.7-4.5-0.4-5.9c1.6-1.7,4.9-0.4,6.7,0.5c1.1,0.6,3.2,1.9,4.5,4.5c1,2,2.1,5.8,0.2,7.5
			C1090.6,554.1,1089.8,554.4,1088.9,554.4z M1088,553.2c0.9,0.3,2,0.1,2.6-0.4c1.4-1.2,0.5-4.4-0.5-6.3c-1.2-2.3-3.1-3.5-4.1-4
			c-2.6-1.3-4.7-1.5-5.5-0.7c-1,1-0.5,3.3,0.4,4.6c0.5,0.6,0.9,0.8,1.4,1c0.5,0.2,1.2,0.5,2.1,1.3c1.2,1,1.7,2.1,2.1,2.9
			C1086.9,552.4,1087.2,552.9,1088,553.2L1088,553.2z"/>
	</g>
	<g>
		<path class="st2" d="M955.6,420.7c-7.6-3.4-20.3,6.8-26.5,16c-4.9,7.3-2.7,10.2-8.6,25.5c-5.7,14.8-8.7,22.3-13.3,25.7
			c-12.8,9.4-26.6-1.7-38.4,7.1c-8.7,6.5-10,19.2-11.5,34c-1.5,14.7,1.1,22.9-4.7,26.6c-5.3,3.3-11.4-1-18.9,3.6
			c-3.2,1.9-7.4,6-6.7,9.8c1.1,5.4,11.9,8.1,19.1,8.2c0.8,0,15.3-0.1,23.6-10.4c4.7-5.9,3.1-9.7,6.4-31c2.2-13.9,3.3-21,6.3-23.9
			c9.1-9,21.4-0.3,37.6-8.6c9.3-4.8,19-15.3,21.7-27.6c2.1-9.6-0.7-17.4,5.6-22.6c4-3.3,7-1.7,10.5-4.9
			C965.1,441.3,963.3,424.1,955.6,420.7z"/>
		<path d="M846.2,577.6C846.1,577.6,846.1,577.6,846.2,577.6c-7.3-0.1-18.5-2.8-19.7-8.6c-0.9-4.3,3.9-8.5,6.9-10.3
			c4.2-2.5,8-2.4,11.3-2.3c2.8,0.1,5.3,0.2,7.6-1.3c3.7-2.3,3.8-6.7,3.9-13.9c0-3.5,0.1-7.5,0.6-12.3c1.5-14.8,2.8-27.7,11.7-34.3
			c5.9-4.4,12.5-3.9,18.8-3.4c6.5,0.5,13.2,1,19.6-3.7c4.4-3.2,7.2-10.1,13.1-25.5c2.7-7,3.7-11.4,4.5-14.9c0.9-4,1.5-6.7,4.2-10.7
			c6-8.9,19.1-19.8,27.2-16.2l0,0c3.4,1.5,5.9,5.6,6.8,11c1.1,6.8-0.6,13.5-4.3,17c-1.8,1.7-3.6,2.1-5.3,2.6
			c-1.6,0.4-3.3,0.8-5.2,2.4c-4,3.3-4.2,7.6-4.4,13.1c-0.1,2.8-0.3,6-1,9.3c-2.9,13-13.1,23.4-22,28c-8,4.1-15.1,4.1-21.4,4.1
			c-6.3,0-11.7,0-16.1,4.4c-3,2.9-4.1,10.3-6.2,23.7c-1.1,7.1-1.7,12.3-2.1,16.1c-0.9,7.8-1.2,11.1-4.4,15.1
			C861.8,577.4,847.3,577.6,846.2,577.6z M842.5,557.3c-2.7,0-5.5,0.3-8.6,2.2c-3.6,2.2-7.1,6-6.4,9.2c1,5,11.5,7.8,18.6,7.8
			c0.6,0,15,0,23.2-10.2c3.1-3.8,3.4-6.7,4.2-14.6c0.4-3.8,1-9.1,2.1-16.2c2.3-14.6,3.4-21.2,6.5-24.2c4.8-4.7,10.3-4.7,16.8-4.7
			c6.1,0,13.1,0,20.9-4c8.7-4.5,18.7-14.6,21.5-27.3c0.7-3.2,0.9-6.2,1-9.1c0.3-5.5,0.5-10.3,4.8-13.8c2.1-1.7,3.9-2.2,5.6-2.6
			c1.6-0.4,3.2-0.8,4.8-2.3c4-3.7,4.9-10.8,4-16.1c-0.8-5.1-3.2-8.9-6.2-10.3c-7.6-3.4-20.1,7.3-25.9,15.9c-2.6,3.8-3.2,6.4-4,10.4
			c-0.8,3.5-1.8,7.9-4.5,15c-5.6,14.4-8.6,22.4-13.4,25.9c-6.7,4.9-13.6,4.4-20.3,3.8c-6.4-0.5-12.5-1-18.1,3.3
			c-8.5,6.4-9.8,19-11.3,33.6c-0.5,4.7-0.5,8.7-0.6,12.2c-0.1,7.3-0.2,12.1-4.4,14.7c-2.6,1.6-5.3,1.5-8.2,1.4
			C843.9,557.4,843.2,557.3,842.5,557.3z"/>
	</g>
	<g>
		<path class="st2" d="M1135.9,431.7c7.5-3.6,20.5,6.2,27,15.3c5.1,7.1,3,10.1,9.4,25.2c6.2,14.7,9.3,22.1,14,25.3
			c13.1,9,26.6-2.5,38.6,6c8.9,6.3,10.5,18.9,12.5,33.6c1.9,14.7-0.5,22.9,5.5,26.4c5.4,3.2,11.4-1.3,19,3c3.2,1.8,7.6,5.7,6.9,9.6
			c-1,5.4-11.6,8.5-18.9,8.8c-0.8,0-15.3,0.4-23.9-9.7c-4.9-5.7-3.4-9.6-7.3-30.8c-2.6-13.9-3.9-20.9-7-23.8
			c-9.3-8.7-21.4,0.3-37.8-7.6c-9.4-4.5-19.4-14.7-22.5-27c-2.4-9.5,0.2-17.5-6.3-22.5c-4.1-3.2-7.1-1.5-10.6-4.6
			C1127,452.6,1128.3,435.4,1135.9,431.7z"/>
		<path d="M1249.4,585.4c-2.9,0-15.8-0.5-23.7-9.9c-3.4-3.9-3.8-7.2-4.9-15c-0.5-3.8-1.3-9-2.6-16.1c-2.5-13.3-3.8-20.6-6.9-23.5
			c-4.6-4.3-10-4.1-16.3-4c-6.2,0.2-13.3,0.4-21.5-3.5c-9-4.3-19.6-14.4-22.8-27.3c-0.8-3.3-1.1-6.5-1.3-9.3
			c-0.4-5.5-0.7-9.8-4.8-13c-1.9-1.5-3.6-1.9-5.3-2.2c-1.7-0.4-3.5-0.8-5.4-2.4c-3.9-3.4-5.8-10-4.8-16.9c0.7-5.4,3.2-9.6,6.5-11.2
			l0,0c7.9-3.8,21.4,6.7,27.6,15.4c2.8,3.9,3.5,6.6,4.5,10.6c0.9,3.5,2,7.8,4.9,14.7c6.4,15.2,9.4,22,13.8,25.1
			c6.5,4.5,13.2,3.8,19.7,3.1c6.3-0.7,12.8-1.4,18.9,2.9c9.1,6.4,10.7,19.2,12.7,34c0.6,4.8,0.8,8.7,0.9,12.3
			c0.3,7.2,0.5,11.5,4.3,13.8c2.4,1.4,4.8,1.2,7.7,1.1c3.3-0.2,7.1-0.4,11.4,2c3,1.7,7.9,5.8,7.2,10.1c-1,5.8-12.2,8.9-19.3,9.2
			C1249.8,585.4,1249.7,585.4,1249.4,585.4z M1198.7,516c4.9,0,9.3,0.6,13.3,4.3c3.3,3.1,4.7,10.5,7.2,24c1.3,7.1,2,12.3,2.6,16.1
			c1.1,7.8,1.5,10.7,4.7,14.4c8.5,10,22.9,9.6,23.5,9.5c7.1-0.3,17.5-3.3,18.4-8.3c0.6-3.3-3.1-7-6.7-9.1c-4-2.3-7.5-2.1-10.8-1.9
			c-2.9,0.2-5.6,0.4-8.2-1.2c-4.3-2.5-4.5-7.3-4.8-14.6c-0.1-3.5-0.3-7.5-0.9-12.2c-1.9-14.6-3.6-27.1-12.3-33.3
			c-5.8-4.1-11.8-3.4-18.2-2.7c-6.7,0.7-13.5,1.4-20.4-3.3c-4.9-3.4-8.2-11.2-14.2-25.5c-2.9-7-4.1-11.4-5-14.9
			c-1-3.9-1.7-6.5-4.3-10.2c-6-8.4-18.9-18.7-26.4-15.1c-3,1.4-5.2,5.3-5.9,10.5c-0.7,5.4,0.4,12.4,4.5,16c1.7,1.5,3.3,1.8,4.9,2.2
			c1.8,0.4,3.6,0.8,5.7,2.4c4.4,3.4,4.8,8.2,5.2,13.7c0.2,2.9,0.4,5.9,1.3,9.1c3.2,12.6,13.4,22.5,22.2,26.7
			c7.9,3.8,14.9,3.6,21,3.4C1196.3,516,1197.5,516,1198.7,516z"/>
	</g>
	<g>
		<path class="st2" d="M1117.6,483.4H967.5c-17.3,0-31.4-14.1-31.4-31.4c0-14.6,0-29.3,0-43.9c0-35.4,0-70.8,0-106.2
			c0-2.1,0.2-13.2,9.2-22.2c5.7-5.7,13.5-9.2,22.2-9.2c44.9,0,89.8,0,134.7,0c5.1,0,10.3,0,15.4,0c2.1,0,13.2,0.2,22.2,9.2
			c5.7,5.7,9.2,13.5,9.2,22.2V452C1149,469.3,1134.9,483.4,1117.6,483.4z"/>
		<path d="M1117.6,483.9H967.5c-17.6,0-31.9-14.3-31.9-31.9V301.9c0-3.1,0.7-13.9,9.3-22.6c6-6,14-9.3,22.6-9.3h150.1
			c3.1,0,13.9,0.7,22.6,9.3c6,6,9.3,14,9.3,22.6V452C1149.5,469.6,1135.2,483.9,1117.6,483.9z M967.5,271c-8.3,0-16,3.2-21.9,9.1
			c-8.4,8.4-9.1,18.8-9.1,21.9V452c0,17,13.9,30.9,30.9,30.9h150.1c17,0,30.9-13.9,30.9-30.9V301.9c0-8.3-3.2-16-9.1-21.9
			c-8.4-8.4-18.9-9.1-21.9-9.1H967.5z"/>
	</g>
	<g>
		<path class="st2" d="M976.1,456.7c-6.9,2.3-8.9,8-22.8,40.7c-10.2,23.9-11.8,27-11.6,33.9c0.5,15.9,9.5,21.5,5.9,28.6
			c-4.8,9.2-29.7,0.7-39.8,14.4c-5.7,7.7-4.8,20.8-0.3,23.3c1.7,0.9,3.9,0.3,7.8-1c5.7-1.9,9.1-4.3,11.9-6c7.3-4.4,8.4-2.3,20.3-7.2
			c10.6-4.4,16.8-7,20.3-13.5c3.3-6.1,3.2-13.5,3.1-14.7c0-0.6,0.2-3.2-1.1-7.2c-1.9-5.7-5.7-8-6.2-15.8
			c-0.8-12.1,6.7-22.7,12.3-30.4c6-8.4,8.8-8.7,14.7-18.3c4.9-8,9-14.6,6.7-19.9C994.7,457.4,984.1,454,976.1,456.7z"/>
		<path d="M909.3,598.5c-0.8,0-1.5-0.2-2.1-0.5c-1.6-0.9-2.8-2.9-3.4-5.8c-1.1-4.9-0.4-12.7,3.6-18.2c5.6-7.7,15.7-8.6,24.5-9.3
			c7.1-0.6,13.2-1.1,15.2-5c1.7-3.3,0.4-6.4-1.5-10.6c-1.9-4.3-4.2-9.7-4.5-17.7c-0.2-6.5,1.1-9.5,9.6-29.4l4.8-11.3
			c11.6-27.4,13.7-32.3,20.3-34.5l0,0c8.3-2.8,19.2,0.8,22,7.2c2.4,5.6-1.6,12.1-6.7,20.4c-3.3,5.4-5.7,7.9-8.2,10.5
			c-1.9,2-3.9,4.1-6.6,7.8c-5.5,7.6-13,18.1-12.2,30.1c0.3,4.7,1.8,7.3,3.4,10.1c1,1.7,2,3.4,2.7,5.6c1.2,3.5,1.1,6,1.1,7
			c0,0.1,0,0.3,0,0.3c0.1,2,0,9-3.2,14.9c-3.6,6.7-10,9.3-20.6,13.7c-5.7,2.3-8.9,3.1-11.5,3.7c-2.9,0.7-5,1.2-8.7,3.5
			c-0.4,0.3-0.9,0.6-1.4,0.9c-2.6,1.6-5.8,3.6-10.7,5.2C912.8,597.9,910.9,598.5,909.3,598.5z M982.1,456.2c-2,0-4,0.3-5.9,0.9l0,0
			c-6.2,2.1-8.3,6.9-19.7,34l-4.8,11.3c-8.4,19.6-9.7,22.7-9.5,28.9c0.2,7.8,2.5,13.1,4.4,17.3c1.9,4.3,3.4,7.7,1.4,11.5
			c-2.3,4.4-8.7,5-16,5.6c-8.6,0.7-18.4,1.6-23.8,8.9c-3.8,5.2-4.4,12.7-3.4,17.4c0.6,2.6,1.6,4.4,2.9,5.1c1.5,0.8,3.5,0.2,7.4-1
			c4.8-1.5,7.9-3.5,10.4-5.1c0.5-0.3,0.9-0.6,1.4-0.9c3.9-2.4,6.1-2.9,9-3.6c2.6-0.6,5.8-1.4,11.4-3.7c10.7-4.5,16.6-6.9,20.1-13.3
			c3.1-5.7,3.1-12.5,3.1-14.4c0-0.1,0-0.2,0-0.4c0-1,0.1-3.3-1.1-6.7c-0.7-2.1-1.7-3.8-2.6-5.4c-1.6-2.7-3.3-5.6-3.6-10.5
			c-0.8-12.3,6.8-23,12.4-30.7c2.7-3.7,4.7-5.9,6.7-7.9c2.5-2.6,4.8-5,8.1-10.3c4.9-8,8.8-14.3,6.6-19.5
			C995,459.2,988.6,456.2,982.1,456.2z"/>
	</g>
	<g>
		<path class="st2" d="M1039.6,466.5c-3.5-2.6-10.5,0.2-14.7,3.6c-1.2,1-6.1,5.3-8.2,19.2c-2.4,16,2.8,18.3-0.2,28.5
			c-3.5,11.8-11.4,10.8-13.9,21.7c-2.9,12.3,6.5,16,3.1,27.3c-2.9,9.6-10.7,10.6-12.7,22.3c-0.4,2.4-1.4,8.5,2,11.3
			c3.5,3,9.6,0.7,10.9,0.2c8.8-3.3,15.8-13.6,16.6-24.3c0.9-12.5-7.3-15.4-4.9-24.5c2.8-10.9,15.2-9,18.9-20.3
			c3.4-10.2-5.4-15.7-1.6-30.5c1.3-5,2.4-4.8,4.3-12C1041.1,481.6,1044.3,470,1039.6,466.5z"/>
		<path d="M999.7,602.2c-2.1,0-3.8-0.5-5-1.6c-3.6-3-2.6-9.1-2.1-11.8c1.1-6.6,4-9.9,6.9-13.1c2.3-2.6,4.6-5.1,5.8-9.3
			c1.6-5.5,0.2-9.1-1.3-13c-1.6-3.9-3.2-8-1.7-14.3c1.3-5.6,3.9-8.1,6.7-10.8c2.7-2.5,5.4-5.2,7.2-10.9c1.5-4.9,1-7.8,0.4-11.6
			c-0.6-3.8-1.4-8.6-0.2-16.8c1.9-12.5,6.1-17.6,8.4-19.5c3.8-3.2,11.3-6.5,15.3-3.6l0,0c4.9,3.7,1.8,15.2-0.2,22.8
			c-1,3.9-1.8,5.6-2.6,7.2c-0.6,1.3-1.2,2.5-1.7,4.8c-1.9,7.7-0.4,12.9,0.9,17.5c1.2,4.2,2.3,8.1,0.7,13c-1.9,5.8-6,8.2-10,10.6
			c-3.9,2.3-7.6,4.5-8.9,9.7c-1.1,4.3,0.2,7.2,1.8,10.6c1.7,3.5,3.5,7.4,3.1,13.9c-0.8,11-7.9,21.3-16.9,24.7
			C1003.7,601.8,1001.6,602.2,999.7,602.2z M1036.1,466c-3.3,0-7.7,1.9-10.8,4.5c-2.2,1.8-6.2,6.7-8,18.8c-1.2,8-0.5,12.5,0.2,16.5
			c0.6,3.7,1.1,7-0.4,12.1c-1.8,6-4.7,8.7-7.4,11.4c-2.7,2.5-5.2,4.9-6.4,10.3c-1.4,6,0.2,9.9,1.7,13.7c1.5,3.8,3.1,7.8,1.4,13.6
			c-1.3,4.4-3.7,7.1-6,9.7c-2.9,3.2-5.6,6.3-6.7,12.6c-0.4,2.2-1.4,8.2,1.8,10.8c2.1,1.8,5.8,1.8,10.4,0.1
			c8.6-3.2,15.4-13.2,16.2-23.8c0.5-6.1-1.4-10-3-13.4c-1.6-3.4-3.1-6.6-1.9-11.3c1.5-5.7,5.5-8,9.4-10.3c3.8-2.2,7.7-4.6,9.5-10
			c1.5-4.6,0.5-8.3-0.7-12.4c-1.4-4.7-2.9-10.1-0.9-18.1c0.6-2.4,1.2-3.6,1.8-5c0.7-1.5,1.5-3.2,2.5-7c1.9-6.9,5-18.5,0.6-21.8l0,0
			C1038.5,466.3,1037.3,466,1036.1,466z"/>
	</g>
	<g>
		<path class="st2" d="M1073.7,466.3c2.7-1.7,6.6-1.2,9.3,0.2c4.8,2.5,6.6,8.6,8.1,19.2c3.7,26.7-1.5,33.6,5,44.8
			c4.5,7.8,8.2,6.5,10.3,13.5c3.8,12.4-6.8,19.5-2.8,29.1c4.1,9.9,18.1,8.7,19,16.8c0.7,5.4-4.9,12-9.8,12.1c-1.9,0-3.8-0.9-8.6-6.3
			c-6.5-7.3-9.7-10.9-12.1-16.8c-5.7-14.1,1.8-21.1-4.7-30.7c-4.1-6.1-7.1-3.2-11.1-9.1c-7.4-10.7,2.1-20.9-3.3-42
			c-0.7-2.8-1.6-5.4-2.2-10C1069.8,480.8,1068.2,469.8,1073.7,466.3z"/>
		<path d="M1112.6,602.5c-2,0-4.1-1.1-8.9-6.5c-6.5-7.3-9.8-11-12.2-16.9c-2.8-7-2.4-12.4-2.1-17c0.4-4.8,0.7-8.9-2.5-13.6
			c-2-3-3.7-3.7-5.5-4.5c-1.8-0.8-3.6-1.6-5.7-4.6c-3.9-5.6-3.2-11-2.4-17.8c0.7-6.3,1.7-14.1-1-24.3c-0.2-0.6-0.3-1.2-0.5-1.8
			c-0.6-2.2-1.3-4.7-1.8-8.3c-0.9-6.6-2.4-17.7,3.3-21.3l0,0c3-1.9,7-1.3,9.8,0.2c5.1,2.7,6.9,9,8.4,19.6
			c1.6,11.7,1.5,19.5,1.5,25.8c-0.1,7.9-0.1,12.7,3.4,18.9c2,3.6,3.9,5.2,5.6,6.6c1.9,1.7,3.6,3.1,4.8,7c2,6.5,0.1,11.7-1.6,16.3
			c-1.6,4.3-3.1,8.3-1.2,12.8c2,4.8,6.4,6.9,10.6,8.9c4.1,1.9,8,3.7,8.5,8c0.3,2.8-0.9,6.1-3.2,8.8
			C1117.7,601.1,1115,602.5,1112.6,602.5C1112.7,602.5,1112.6,602.5,1112.6,602.5z M1077.8,465.7c-1.4,0-2.7,0.3-3.8,1
			c-5.2,3.3-3.7,14.4-2.8,20.3c0.5,3.6,1.1,5.9,1.8,8.2c0.2,0.6,0.3,1.2,0.5,1.8c2.7,10.4,1.8,18.3,1,24.6
			c-0.8,6.6-1.4,11.9,2.2,17.2c1.9,2.7,3.5,3.5,5.2,4.2c1.8,0.8,3.7,1.6,5.9,4.9c3.4,5,3.1,9.3,2.7,14.2c-0.3,4.6-0.7,9.8,2,16.6
			c2.3,5.8,5.6,9.4,12,16.6c4.6,5.2,6.4,6.2,8.2,6.2c0,0,0,0,0,0c2.1,0,4.4-1.3,6.3-3.5c2.1-2.4,3.3-5.5,3-8
			c-0.4-3.7-3.9-5.4-7.9-7.2c-4.2-2-8.9-4.2-11.1-9.4c-2-4.8-0.4-9,1.2-13.5c1.7-4.6,3.5-9.4,1.6-15.6c-1.1-3.6-2.6-4.9-4.5-6.5
			c-1.7-1.5-3.6-3.2-5.8-6.9c-3.7-6.4-3.6-11.6-3.6-19.4c0.1-6.2,0.1-14-1.5-25.6c-1.4-10.3-3.1-16.3-7.8-18.8
			C1081.4,466.2,1079.6,465.7,1077.8,465.7z"/>
	</g>
	<g>
		<path class="st1" d="M941.4,477.4c-3.6-3-5.4-4.5-7.5-4.4c-2.5,0.1-5.3,2-6,4.7c-0.7,2.6,0.9,4.8,2,6.4c1.3,1.8,2.9,4.3,6,4.7
			c2.1,0.3,4.4-0.4,6-2.1c1.9-2.1,2.4-5.3,1.2-7.5C942.9,478.9,942.6,478.5,941.4,477.4z"/>
		<path d="M936.8,489.4c-0.3,0-0.6,0-1-0.1c-3.2-0.4-4.9-2.9-6.1-4.7l-0.2-0.2c-1.1-1.6-2.8-4-2.1-6.9c0.7-2.8,3.5-5,6.5-5.1
			c2.3-0.1,4.1,1.5,7.8,4.5c1.2,1,1.6,1.5,1.9,2c1.3,2.4,0.7,5.8-1.3,8C940.9,488.6,938.8,489.4,936.8,489.4z M934,473.5
			c0,0-0.1,0-0.1,0c-2.1,0.1-4.9,1.8-5.5,4.4c-0.6,2.4,0.9,4.5,2,6l0.2,0.2c1.2,1.7,2.7,3.9,5.5,4.3c2,0.3,4.2-0.5,5.6-2
			c1.8-1.9,2.3-4.9,1.2-6.9c-0.2-0.3-0.4-0.7-1.6-1.7l0,0C937.6,475,935.9,473.5,934,473.5z"/>
	</g>
	<g>
		<path class="st1" d="M930.5,495.4c-0.9-3-3.5-4.4-5-5.2c-1.2-0.7-6.7-3.7-9.6-1.2c-2.5,2.1-1.5,7-1.3,8c0.4,1.9,1.2,3.2,1.5,3.6
			c0.4,0.7,1.4,2,3.1,3c1.2,0.8,3.8,2.4,6.7,1.4c3.3-1.1,4.4-4.7,4.6-5.4C930.7,499,931.1,497.3,930.5,495.4z"/>
		<path d="M924.1,505.8c-2.3,0-4.2-1.2-5.2-1.8c-1.6-1-2.7-2.3-3.2-3.2c-0.4-0.6-1.2-2-1.6-3.8c-0.9-4-0.4-7,1.4-8.5
			c1.5-1.2,4.4-2,10.2,1.1c1.5,0.8,4.3,2.3,5.2,5.5h0c0.6,2.1,0.2,3.9,0,4.5c-0.3,1.1-1.5,4.7-4.9,5.8
			C925.4,505.7,924.7,505.8,924.1,505.8z M918.8,488.5c-1.1,0-2,0.3-2.6,0.8c-1.5,1.3-1.9,3.9-1.1,7.5c0.4,1.7,1.1,2.9,1.4,3.5
			c0.5,0.8,1.5,2,2.9,2.9c1.2,0.7,3.6,2.3,6.3,1.4c3-1,4-4.2,4.3-5.1c0.1-0.5,0.5-2.1,0-3.9l0,0c-0.8-2.8-3.3-4.1-4.8-4.9
			C922.7,489.2,920.5,488.5,918.8,488.5z"/>
	</g>
	<g>
		<path class="st1" d="M913.4,504.2c0.2-4-4.6-6.7-5.2-7.1c-2.4-1.3-7.2-2.8-9.5-0.4c-1.7,1.7-1.5,4.7-1.4,5.4
			c0.1,0.6,0.2,2.1,1.1,3.5c2.2,3.4,6.8,3.4,8.2,3.4c1.7,0,3.9,0,5.4-1.6C913.3,506.1,913.4,504.5,913.4,504.2z"/>
		<path d="M907.2,509.5c-0.2,0-0.3,0-0.5,0c-4.2,0-7.1-1.3-8.7-3.6c-1-1.6-1.2-3.2-1.2-3.8c-0.2-2.5,0.3-4.5,1.5-5.7
			c2.7-2.7,7.8-1,10.1,0.3c1,0.5,5.7,3.4,5.5,7.5l0,0c0,0.5-0.2,2.2-1.5,3.6C910.9,509.4,908.8,509.5,907.2,509.5z M902.2,495.9
			c-1.2,0-2.4,0.3-3.2,1.1c-1,1-1.4,2.8-1.3,5c0.1,0.6,0.2,2,1.1,3.3c2.1,3.1,6.4,3.2,7.8,3.2c1.6,0,3.6,0,5-1.4
			c1.1-1.1,1.2-2.5,1.3-2.9l0,0c0.2-3.6-4.1-6.1-5-6.6C906.5,496.7,904.2,495.9,902.2,495.9z"/>
	</g>
	<g>
		<path class="st1" d="M893.5,510.1c0.5-3-1.3-5.3-1.8-5.9c-0.5-0.6-2.4-3-5.6-3.1c-2.6-0.1-5,1.3-6.3,3.4c-1.7,2.7-1.6,6.5,0.3,8.3
			c0.4,0.4,0.6,0.4,6.6,1.4c2.1,0.3,3.1,0.5,3.9,0.2C892.8,513.4,893.4,510.3,893.5,510.1z"/>
		<path d="M889.4,515.1c-0.7,0-1.7-0.2-2.9-0.4c-6.1-1-6.4-1.1-6.9-1.6c-2-1.9-2.2-6-0.3-8.9c1.5-2.3,4.1-3.7,6.8-3.6
			c1.6,0.1,3.9,0.7,6,3.3c2,2.5,2.2,4.8,1.9,6.3v0c-0.1,0.4-0.7,3.7-3.3,4.7C890.3,515,889.9,515.1,889.4,515.1z M885.8,501.6
			c-2.2,0-4.4,1.2-5.7,3.1c-1.6,2.5-1.5,6.1,0.2,7.6c0.3,0.3,0.7,0.4,6.3,1.3c2,0.3,3,0.5,3.6,0.2c2.1-0.9,2.6-3.6,2.7-4l0,0
			c0.2-1.3,0.1-3.2-1.7-5.5c-1.9-2.3-3.9-2.8-5.3-2.9C885.9,501.6,885.9,501.6,885.8,501.6z"/>
	</g>
	<g>
		<path class="st1" d="M883,521.1c-1.9-2.6-4.9-3.1-6.3-3.3c-1.7-0.3-4.9-0.8-6.4,1.1c-1.5,1.9-0.2,4.9,0.5,6.5
			c0.6,1.3,2.8,6.6,7,6.7c2.8,0.1,4.8-2.2,5-2.4c1.5-1.8,1.6-3.8,1.6-4.4C884.4,523.1,883.3,521.6,883,521.1z"/>
		<path d="M877.9,532.6c0,0-0.1,0-0.1,0c-2.1,0-5.1-1.3-7.5-7c-0.7-1.7-2.1-4.9-0.4-7c1.6-2.1,5-1.5,6.9-1.2
			c1.4,0.2,4.6,0.7,6.6,3.5l0,0c1.2,1.7,1.5,3.4,1.5,4.4c0,1-0.2,3-1.7,4.8C882.9,530.3,880.9,532.6,877.9,532.6z M873.9,518
			c-1.3,0-2.5,0.2-3.2,1.1c-1.3,1.6-0.1,4.5,0.6,6c2.2,5.2,4.8,6.3,6.6,6.4c2.6,0.1,4.5-2.1,4.6-2.2c1.3-1.5,1.5-3.2,1.5-4.1
			c0-1.4-0.5-2.7-1.3-3.9c-1.8-2.4-4.6-2.9-5.9-3.1C875.9,518.2,874.9,518,873.9,518z"/>
	</g>
	<g>
		<path class="st1" d="M876.7,536.7c-0.3-0.2-4.6-3.7-7.9-1.8c-2.4,1.4-2.6,4.6-2.7,6.9c-0.1,1.9-0.3,4.6,1.6,6.7
			c2,2.3,5.8,3.2,7.5,1.8c0.7-0.6,1-1.9,1.6-4.6c0.4-1.9,0.3-2.1,0.8-3.4c0.6-1.6,1.1-2,1.1-2.9
			C878.5,538.2,877.4,537.3,876.7,536.7z"/>
		<path d="M873,551.5c-1.9,0-4.3-1-5.7-2.6c-2-2.2-1.8-5-1.7-7.1c0.1-2.3,0.3-5.8,3-7.3c3.6-2.1,8.3,1.7,8.5,1.8
			c0.7,0.6,2,1.6,2,3.2c0,0.7-0.2,1.1-0.5,1.7c-0.2,0.3-0.4,0.8-0.6,1.4c-0.3,0.7-0.3,1-0.4,1.6c-0.1,0.4-0.1,0.9-0.3,1.7
			c-0.6,2.8-0.9,4.2-1.8,4.8C874.8,551.2,874,551.5,873,551.5z M871.1,534.9c-0.7,0-1.4,0.1-2,0.5c-2.2,1.3-2.3,4.3-2.5,6.5
			c-0.1,1.9-0.3,4.4,1.4,6.3c1.8,2.1,5.3,3,6.8,1.8c0.6-0.5,0.9-1.8,1.4-4.3c0.2-0.7,0.2-1.2,0.3-1.6c0.1-0.6,0.2-1.1,0.5-1.8
			c0.3-0.7,0.5-1.1,0.7-1.5c0.3-0.5,0.4-0.8,0.4-1.2c0-1.1-1.1-1.9-1.7-2.4l0,0C876.3,537,873.7,534.9,871.1,534.9z"/>
	</g>
	<g>
		<path class="st1" d="M874.5,557.3c-1.7-2.6-5.3-2.6-5.8-2.6c-0.8,0-3.1,0.2-5,2c-2.2,2.1-2.3,4.9-2.3,5.4c0,1.4,0.5,2.8,1.7,5.4
			c0.8,1.8,1.2,2.7,1.8,3.1c1.8,1.2,4.6,0.6,6.2-0.8c1-0.8,1.5-1.9,2.1-3.2c0.4-0.9,0.3-0.8,1.2-3.7c0.6-1.9,0.8-2.3,0.8-3.1
			C875.3,559.7,875.3,558.5,874.5,557.3z"/>
		<path d="M867.2,571.9c-0.9,0-1.8-0.2-2.6-0.7c-0.8-0.5-1.2-1.5-2-3.3c-1.2-2.7-1.7-4.1-1.7-5.6c0-1.3,0.4-3.8,2.4-5.8
			c1.9-1.8,4.2-2.2,5.4-2.2c0.7,0,4.5,0,6.3,2.8c0.7,1.2,0.9,2.4,0.9,2.9c0,0.8-0.1,1.3-0.6,2.5l-0.3,0.8c-0.5,1.4-0.7,2.1-0.8,2.5
			c-0.2,0.5-0.2,0.7-0.5,1.3c-0.6,1.3-1.2,2.4-2.3,3.3C870.3,571.3,868.7,571.9,867.2,571.9z M868.9,555.3c-0.1,0-0.1,0-0.2,0
			c-0.8,0-3,0.2-4.7,1.9c-1.8,1.7-2.1,3.9-2.1,5.1c0,1.3,0.5,2.6,1.6,5.2c0.7,1.7,1.1,2.6,1.6,2.9c1.6,1.1,4.2,0.5,5.6-0.7
			c0.9-0.8,1.4-1.7,2-3c0.2-0.4,0.3-0.6,0.4-1.1c0.1-0.5,0.3-1.2,0.8-2.6l0.3-0.8c0.4-1.2,0.5-1.6,0.5-2.2c0-0.4-0.1-1.4-0.7-2.4v0
			C872.8,555.4,869.8,555.3,868.9,555.3z"/>
	</g>
	<g>
		<path class="st1" d="M861.4,575.9c-0.2-3-0.3-4.7-1.6-6c-2.4-2.5-6.7-1.2-7.6-1c-1,0.3-3.2,0.9-4.5,2.9c-0.9,1.4-1.1,2.8-1.2,3.9
			c-0.1,1.4-0.2,2.5,0.3,3.5c1,1.9,3.5,2.7,5.5,2.6c1.9-0.1,1.7-1,4.9-1.8c2-0.5,3-0.4,3.7-1.3C861.3,578.3,861.5,577.8,861.4,575.9
			z"/>
		<path d="M852,582.4c-2.1,0-4.5-1-5.6-2.9c-0.6-1.2-0.5-2.4-0.4-3.8c0.1-1,0.3-2.6,1.2-4.1c1.4-2.2,3.8-2.8,4.8-3.1
			c3.5-1,6.4-0.6,8.1,1.1c1.4,1.4,1.5,3.3,1.7,6.4l0,0c0.1,1.9-0.1,2.6-0.5,3.1c-0.6,0.8-1.4,0.9-2.5,1.1c-0.4,0.1-0.9,0.2-1.5,0.3
			c-1.5,0.4-2.2,0.8-2.8,1.1c-0.6,0.4-1.1,0.7-2.2,0.7C852.3,582.3,852.2,582.4,852,582.4z M855.7,568.9c-1,0-2.1,0.2-3.3,0.5
			c-1,0.3-3,0.8-4.2,2.7c-0.8,1.3-1,2.6-1.1,3.6c-0.1,1.4-0.2,2.3,0.3,3.3c0.9,1.7,3.2,2.5,5,2.3c0.8-0.1,1.2-0.3,1.7-0.6
			c0.6-0.4,1.4-0.8,3.1-1.2c0.6-0.2,1.1-0.3,1.6-0.3c1.1-0.2,1.5-0.3,1.9-0.8c0.1-0.2,0.4-0.6,0.3-2.4c-0.2-2.9-0.3-4.5-1.4-5.7
			C858.6,569.4,857.3,568.9,855.7,568.9z"/>
	</g>
	<g>
		<path class="st1" d="M1033.8,488c-1.8,0-3.6,1.2-4.5,2.7c-0.9,1.6-0.6,3.2,0.1,6.4c0.5,2.5,0.9,4.3,2.4,6c0.7,0.8,2,2.1,3.6,2.1
			c2.5,0,4.5-3.2,5-5.5c0.5-1.8,0.2-3.3,0-4C1039.9,492.6,1037.5,488,1033.8,488z"/>
		<path d="M1035.4,505.6c-1.8,0-3.2-1.4-3.9-2.3c-1.6-1.8-2.1-3.7-2.6-6.2c-0.7-3.2-1-5-0.1-6.7c1-1.8,3-2.9,5-2.9l0,0c0,0,0,0,0,0
			c4,0,6.5,4.9,7.1,8c0.1,0.6,0.5,2.3,0,4.3C1040.4,502,1038.4,505.6,1035.4,505.6C1035.4,505.6,1035.4,505.6,1035.4,505.6z
			 M1033.8,488.5c-1.6,0-3.3,1-4.1,2.4c-0.8,1.4-0.5,2.8,0.2,6c0.6,2.7,0.9,4.2,2.3,5.7c0.7,0.8,1.8,1.9,3.2,1.9c0,0,0,0,0,0
			c2.3,0,4-3,4.6-5.1c0.4-1.8,0.1-3.2,0-3.8C1039.4,492.7,1037,488.5,1033.8,488.5C1033.8,488.5,1033.8,488.5,1033.8,488.5
			L1033.8,488.5z"/>
	</g>
	<g>
		<path class="st1" d="M1038.9,511.6c-1-2.6-5.1-4.4-7.4-3.1c-1.6,0.9-1.9,2.9-2.2,4.5c-0.2,1-0.8,4.9,1.7,7.8
			c0.4,0.4,2.4,2.7,5,2.4c1.2-0.1,2.8-0.8,3.3-2.1c0.4-0.9,0-1.6-0.4-3.1C1038.2,514.4,1039.6,513.5,1038.9,511.6z"/>
		<path d="M1035.6,523.6c-1.7,0-3.5-0.9-4.9-2.6c-1.3-1.4-2.6-4-1.9-8.2c0.3-1.6,0.7-3.8,2.5-4.8c1.1-0.6,2.6-0.6,4.1-0.1
			c1.9,0.7,3.4,2,4,3.5l0,0c0.4,1,0.3,1.8,0.1,2.7c-0.2,0.9-0.4,2,0,3.7c0.1,0.4,0.2,0.7,0.3,1c0.2,0.8,0.4,1.5,0.1,2.3
			c-0.6,1.4-2.3,2.2-3.7,2.4C1035.9,523.6,1035.7,523.6,1035.6,523.6z M1033.2,508.5c-0.6,0-1.1,0.1-1.5,0.4c-1.4,0.8-1.7,2.6-2,4.1
			c-0.7,3.8,0.5,6.1,1.6,7.4c1.4,1.6,3,2.4,4.6,2.2c1.1-0.1,2.5-0.7,2.9-1.8c0.2-0.5,0.1-0.9-0.1-1.7c-0.1-0.3-0.2-0.7-0.3-1.1
			c-0.4-2-0.2-3.2,0-4.1c0.1-0.8,0.3-1.4-0.1-2.1l0,0c-0.5-1.2-1.8-2.4-3.4-2.9C1034.4,508.6,1033.8,508.5,1033.2,508.5z"/>
	</g>
	<g>
		<path class="st1" d="M1039,531.1c-1.3-2.3-4.9-3.4-7.5-2c-3,1.6-2.8,5.6-2.8,6.1c0.1,3,2.1,6.6,4.6,6.7c2.1,0,3.7-2.7,4.5-4.1
			C1038.8,536,1040.3,533.4,1039,531.1z"/>
		<path d="M1033.4,542.4C1033.3,542.4,1033.3,542.4,1033.4,542.4c-2.8,0-5-3.8-5.1-7.2c-0.1-1.5,0.1-5,3-6.6
			c1.4-0.7,3.1-0.9,4.7-0.4c1.5,0.4,2.8,1.4,3.5,2.6l0,0c1.4,2.5-0.2,5.3-1.2,7.2C1037.4,539.5,1035.8,542.4,1033.4,542.4z
			 M1034.1,528.9c-0.8,0-1.7,0.2-2.3,0.6c-2.4,1.3-2.6,4.4-2.5,5.7c0.1,2.8,2,6.2,4.1,6.2c0,0,0,0,0,0c1.8,0,3.2-2.5,4-3.9
			c0.9-1.7,2.3-4.2,1.2-6.2l0,0c-0.5-1-1.6-1.8-2.9-2.1C1035.2,529,1034.6,528.9,1034.1,528.9z"/>
	</g>
	<g>
		<path class="st1" d="M1026.7,543.4c-0.1-1.7-1-4.1-3-4.5c-1.8-0.4-3.4,1.3-3.9,1.7c-0.3,0.3-2,2.1-1.7,4.8c0.2,1.6,1.2,4,3.1,4.3
			c1.9,0.3,3.4-1.6,3.9-2.3C1025.7,546.9,1026.8,545.5,1026.7,543.4z"/>
		<path d="M1021.7,550.2c-0.1,0-0.3,0-0.4,0c-2.2-0.3-3.3-3-3.6-4.7c-0.4-2.7,1.3-4.7,1.8-5.2c1.5-1.5,2.9-2.2,4.3-1.9
			c2.1,0.4,3.3,2.9,3.4,5l0,0c0.1,2.2-1.1,3.8-1.6,4.3C1025.1,548.3,1023.7,550.2,1021.7,550.2z M1023.2,539.3c-0.9,0-1.9,0.5-3,1.6
			c-0.3,0.3-1.8,2-1.5,4.4c0.2,1.4,1.1,3.6,2.7,3.8c1.6,0.2,2.9-1.5,3.5-2.1c0.4-0.5,1.4-1.8,1.3-3.6l0,0c-0.1-1.5-0.9-3.7-2.6-4.1
			C1023.5,539.4,1023.3,539.3,1023.2,539.3z"/>
	</g>
	<g>
		<path class="st1" d="M1019.9,555.4c-1.4-1.1-4.2-0.5-5.1,0.9c-0.4,0.7-0.1,1.1,0.4,4.4c0.5,3,0.3,3.4,0.8,4.2c0.1,0.1,1.6,2.4,4,2
			c1.5-0.2,2.7-1.5,3-2.8c0.3-1.2-0.5-1.7-1.5-4.4C1020.5,556.8,1020.8,556,1019.9,555.4z"/>
		<path d="M1019.5,567.4c-2.3,0-3.8-2.2-3.9-2.3c-0.4-0.7-0.5-1.1-0.6-2.3c-0.1-0.5-0.1-1.2-0.3-2.2c-0.2-1-0.3-1.7-0.4-2.3
			c-0.2-1.3-0.3-1.7,0.1-2.4c0.5-0.8,1.4-1.4,2.6-1.6c1.2-0.3,2.5,0,3.3,0.6l0,0c0.7,0.5,0.8,1.1,1,2c0.1,0.6,0.3,1.4,0.7,2.6
			c0.4,1.1,0.7,1.8,1,2.4c0.4,0.9,0.7,1.4,0.5,2.4c-0.3,1.6-1.8,2.9-3.4,3.2C1019.9,567.4,1019.7,567.4,1019.5,567.4z M1018,555.3
			c-0.3,0-0.5,0-0.8,0.1c-0.9,0.2-1.6,0.6-1.9,1.2c-0.2,0.3-0.2,0.5,0.1,1.7c0.1,0.6,0.2,1.3,0.4,2.3c0.1,1,0.2,1.7,0.3,2.2
			c0.1,1.1,0.2,1.4,0.5,1.8c0.1,0.1,1.4,2.1,3.5,1.8c1.2-0.2,2.4-1.2,2.6-2.4c0.1-0.6,0-0.9-0.4-1.7c-0.3-0.6-0.7-1.3-1.1-2.5
			c-0.4-1.2-0.6-2.1-0.8-2.7c-0.2-0.9-0.3-1.1-0.6-1.4C1019.2,555.5,1018.6,555.3,1018,555.3z"/>
	</g>
	<g>
		<path class="st1" d="M1024.4,570.8c-1-1.3-3.5-1.7-4.6-0.8c-0.4,0.3-0.5,1-0.9,2.2c-0.2,0.9-0.4,1.7-0.5,2.7
			c0,0.9-0.1,1.9,0.4,2.9c0.7,1.6,2.5,3.3,4.1,2.9c1-0.3,1.6-1.3,1.9-1.7c0.5-1,0.5-1.9,0.6-3.7c0-1.5-0.2-2.4-0.2-2.6
			C1024.9,571.8,1024.8,571.3,1024.4,570.8z"/>
		<path d="M1022.5,581.4c-1.8,0-3.5-1.8-4.1-3.3c-0.5-1.1-0.4-2.2-0.4-3.1c0-1.1,0.3-1.9,0.5-2.8c0.4-1.4,0.6-2.1,1-2.5
			c0.6-0.5,1.4-0.7,2.4-0.6c1.2,0.1,2.3,0.7,2.9,1.5l0,0c0.5,0.6,0.6,1.2,0.8,2.1c0.2,0.7,0.3,1.7,0.3,2.7c0,1.8,0,2.9-0.6,3.9
			c-0.3,0.5-0.9,1.7-2.2,2C1022.9,581.4,1022.7,581.4,1022.5,581.4z M1021.5,570c-0.5,0-1,0.1-1.3,0.4c-0.2,0.2-0.4,0.9-0.7,2
			c-0.2,0.9-0.4,1.6-0.5,2.6c0,0.9-0.1,1.8,0.3,2.7c0.6,1.5,2.3,2.9,3.5,2.6c0.8-0.2,1.3-1.1,1.5-1.5c0.5-0.9,0.5-1.7,0.5-3.5
			c0-1-0.1-1.9-0.2-2.5c-0.2-0.9-0.3-1.3-0.6-1.7l0,0c-0.5-0.6-1.3-1-2.2-1.1C1021.7,570,1021.6,570,1021.5,570z"/>
	</g>
	<g>
		<path class="st1" d="M1020.5,587.3c-1.3-1.6-3.7-1.6-4.1-1.6c-3,0-4.9,2.3-5.4,2.9c-0.9,1-2.9,3.3-2,6.1c0.7,2.1,2.9,3.9,4.9,3.7
			c1.3-0.1,2.2-1,4-2.9c0.2-0.2,1.5-1.6,2.6-3.8c0.7-1.4,0.8-2.2,0.7-3C1021.1,588.5,1020.9,587.9,1020.5,587.3z"/>
		<path d="M1013.6,598.9c-2.2,0-4.4-1.7-5.1-4c-0.9-3,1.2-5.5,2.1-6.5c2.1-2.5,4.3-3.1,5.8-3.1c0.9,0,3.2,0.1,4.5,1.8h0
			c0.5,0.6,0.7,1.3,0.7,1.5c0.2,0.9,0,1.9-0.7,3.3c-1,2.2-2.3,3.6-2.7,4c-1.8,1.9-2.8,2.9-4.3,3
			C1013.8,598.8,1013.7,598.9,1013.6,598.9z M1016.5,586.2c0,0-0.1,0-0.1,0c-1.8,0-3.5,1-5,2.7c-0.8,0.9-2.7,3.1-1.9,5.6
			c0.6,2,2.6,3.5,4.4,3.3c1.2-0.1,1.9-0.9,3.6-2.7c0.2-0.3,1.5-1.6,2.5-3.7c0.7-1.4,0.7-2.1,0.6-2.7c0-0.1-0.2-0.7-0.5-1.1
			C1019.1,586.3,1017.3,586.2,1016.5,586.2z"/>
	</g>
	<g>
		<path class="st1" d="M1145.7,472.2c0.6-1.7,3.4-2.7,5.1-1.9c0.9,0.5,1.3,1.8,1.9,4.4c0.9,3.6,1.3,5.4,0.5,6.8
			c-1,1.6-3.4,2.6-4.5,1.9c-1.1-0.7-0.2-2.4-1.1-5.8C1146.7,474.3,1145.1,473.6,1145.7,472.2z"/>
		<path d="M1149.5,484.1c-0.4,0-0.8-0.1-1.2-0.3c-0.8-0.5-0.8-1.4-0.8-2.5c0-0.9,0-2.1-0.4-3.6c-0.4-1.4-0.9-2.3-1.3-3.1
			c-0.5-0.9-0.9-1.7-0.6-2.6c0.3-0.9,1.2-1.7,2.4-2.2c1.2-0.5,2.5-0.5,3.4,0c1.1,0.6,1.5,2.1,2.1,4.7c0.9,3.7,1.4,5.6,0.4,7.1
			C1152.7,483.1,1150.9,484.1,1149.5,484.1z M1149.4,470.5c-0.5,0-0.9,0.1-1.4,0.3c-0.9,0.3-1.6,0.9-1.8,1.6v0
			c-0.2,0.5,0,0.9,0.5,1.8c0.4,0.7,1,1.8,1.4,3.3c0.5,1.7,0.5,2.9,0.5,3.9c0,1.1,0,1.4,0.4,1.6c0.8,0.5,2.9-0.3,3.8-1.8
			c0.7-1.2,0.3-2.9-0.5-6.4c-0.6-2.5-0.9-3.7-1.6-4.1C1150.2,470.6,1149.8,470.5,1149.4,470.5z"/>
	</g>
	<g>
		<path class="st1" d="M1156.5,491.3c-1.8-1.4-4.8-1.9-5.8-0.7c-0.5,0.6-0.3,1.5-0.1,2.8c0.1,0.6,0.7,3,3,5.4
			c1.3,1.3,2.1,2.2,3.5,2.1c1.2,0,2.5-0.7,2.9-1.8c0.1-0.3,0.3-1-1.1-3.8C1158,493.1,1157.4,492,1156.5,491.3z"/>
		<path d="M1157.2,501.5c-1.5,0-2.5-1-3.8-2.3c-2.3-2.3-3-4.7-3.2-5.7c-0.3-1.3-0.5-2.4,0.2-3.2c1.2-1.5,4.5-0.9,6.4,0.6h0
			c1,0.8,1.6,1.9,2.7,4.2c1.4,2.7,1.3,3.7,1.1,4.2C1160.1,500.7,1158.5,501.4,1157.2,501.5C1157.2,501.5,1157.2,501.5,1157.2,501.5z
			 M1152.6,490.5c-0.7,0-1.2,0.2-1.5,0.5c-0.3,0.4-0.2,1.1,0,2.3c0.2,0.8,0.8,3,2.9,5.1c1.2,1.2,2,2,3.1,2c0,0,0,0,0,0
			c0.9,0,2.1-0.6,2.5-1.5c0.2-0.5-0.2-1.7-1.1-3.4c-1.1-2.1-1.6-3.2-2.4-3.8h0C1155.2,490.9,1153.7,490.5,1152.6,490.5z"/>
	</g>
	<g>
		<path class="st1" d="M1165.8,504c-1.9-1.6-2.3-1.7-2.7-1.7c-1.5,0.1-2.8,2.3-2.8,4.1c0,2.5,2.3,5.1,5,5c2-0.1,4-1.8,4-3.4
			C1169.4,507.1,1168.2,506.1,1165.8,504z"/>
		<path d="M1165.1,512c-1.2,0-2.4-0.5-3.4-1.4c-1.2-1.1-1.9-2.6-1.9-4.1c0-2,1.4-4.5,3.2-4.7c0.6,0,1.2,0.2,3.1,1.8v0l-0.3,0.4
			l0.3-0.4c2.6,2.2,3.8,3.2,3.8,4.4c0,1.9-2.2,3.8-4.5,3.9C1165.3,512,1165.2,512,1165.1,512z M1163.2,502.8
			C1163.2,502.8,1163.1,502.8,1163.2,502.8c-1.2,0.1-2.4,2-2.4,3.7c0,1.2,0.6,2.4,1.6,3.3c0.9,0.8,1.9,1.2,2.9,1.2
			c1.8-0.1,3.6-1.6,3.6-3c0-0.7-1.3-1.8-3.4-3.6l0.3-0.4l-0.3,0.4C1163.8,503,1163.4,502.8,1163.2,502.8z"/>
	</g>
	<g>
		<path class="st1" d="M1176.6,511c-1.5-0.5-4.3-0.9-5.4,0.7c-0.8,1.2-0.2,2.8,0,3.3c0.9,2.5,3.3,3.4,3.8,3.6
			c0.7,0.2,3.3,1.1,4.7-0.3c1.4-1.4,0.5-4,0.5-4.1C1179.4,511.9,1177.2,511.2,1176.6,511z"/>
		<path d="M1177.5,519.6c-0.7,0-1.6-0.1-2.7-0.5c-0.7-0.3-3.2-1.3-4.1-3.9c-0.2-0.6-0.9-2.4,0.1-3.8c1.3-1.9,4.5-1.4,6-0.9l0,0
			c2.5,0.8,3.5,2.3,3.9,3.4c0.1,0.3,1,3-0.6,4.7C1179.6,519.1,1178.8,519.6,1177.5,519.6z M1174,511.1c-1,0-1.9,0.2-2.4,0.9
			c-0.7,1-0.2,2.4,0,2.9c0.8,2.2,2.9,3,3.5,3.2c2.5,0.9,3.7,0.3,4.2-0.2c1.2-1.2,0.4-3.5,0.3-3.6c-0.5-1.3-1.6-2.3-3.3-2.8l0.2-0.5
			l-0.2,0.5C1175.8,511.2,1174.9,511.1,1174,511.1z"/>
	</g>
	<g>
		<path class="st1" d="M1191.8,513.9c3.3,0.1,4.1-0.1,4.9,0.7c1.2,1.1,1,3.1,0.9,3.5c-0.1,0.6-0.2,1.6-1,2.3
			c-0.8,0.7-1.5,0.4-4.3,0.6c-2.3,0.2-2.6,0.4-3.7,0.2c-0.8-0.2-2-0.4-2.8-1.4c-1.3-1.6-1-4.5,0.5-5.7
			C1187.1,513.5,1187.5,513.8,1191.8,513.9z"/>
		<path d="M1189.4,521.7c-0.3,0-0.6,0-0.9-0.1c-0.8-0.2-2.2-0.4-3.1-1.5c-0.7-0.9-1-2.1-0.9-3.4c0.1-1.3,0.7-2.4,1.5-3
			c0.7-0.5,1.2-0.5,2.7-0.4c0.7,0,1.7,0.1,3.1,0.1l0,0c0.7,0,1.2,0,1.7,0c2,0,2.7,0,3.5,0.8c1.3,1.3,1.1,3.3,1.1,3.9
			c-0.1,0.6-0.2,1.8-1.2,2.6c-0.7,0.6-1.3,0.6-2.4,0.6c-0.5,0-1.2,0-2.1,0.1c-0.9,0.1-1.4,0.1-1.9,0.2
			C1190,521.7,1189.7,521.7,1189.4,521.7z M1187.5,514.2c-0.5,0-0.6,0.1-0.9,0.2c-0.6,0.5-1,1.3-1.1,2.3c-0.1,1,0.1,2,0.7,2.7
			c0.7,0.8,1.8,1,2.5,1.2c0.6,0.1,0.9,0.1,1.7,0c0.5-0.1,1.1-0.1,1.9-0.2c0.9-0.1,1.6-0.1,2.2-0.1c1.1,0,1.4,0,1.8-0.4
			c0.6-0.6,0.8-1.5,0.8-2c0-0.3,0.2-2.1-0.8-3.1c-0.5-0.4-0.9-0.5-2.8-0.5c-0.5,0-1.1,0-1.7,0c-1.4,0-2.4-0.1-3.1-0.1
			C1188.1,514.2,1187.7,514.2,1187.5,514.2z"/>
	</g>
	<g>
		<path class="st1" d="M1209.1,515.3c-1.2-0.6-2.7-0.5-3.7,0.2c-1.8,1.1-2.3,3.9-1.2,5.8c1,1.8,3.1,2.5,4.8,2.3
			c1.8-0.3,3.8-1.6,3.9-3.3c0.1-1.2-0.8-2.1-2.4-3.9C1209.7,515.6,1209.3,515.4,1209.1,515.3z"/>
		<path d="M1208.3,524.2c-1.7,0-3.6-0.8-4.6-2.6c-1.2-2.2-0.6-5.2,1.4-6.5c1.2-0.8,2.9-0.9,4.2-0.2l0,0c0.3,0.1,0.7,0.4,1.5,1.2
			c1.7,1.9,2.6,2.9,2.5,4.3c-0.1,2-2.4,3.5-4.3,3.7C1208.8,524.2,1208.5,524.2,1208.3,524.2z M1207.5,515.5c-0.6,0-1.3,0.2-1.8,0.5
			c-1.5,1-2.1,3.4-1.1,5.2c0.9,1.7,2.9,2.2,4.3,2c1.6-0.2,3.4-1.4,3.5-2.8c0.1-1-0.8-1.9-2.3-3.5c-0.7-0.8-1.1-1-1.2-1l0,0
			C1208.5,515.6,1208,515.5,1207.5,515.5z"/>
	</g>
	<g>
		<path class="st1" d="M1218.4,529.5c-2.1-3.7-2-4.2-2.8-4.6c-1.4-0.7-3.8,0.1-4.6,1.6c-0.4,0.9,0,2.2,0.9,4.8
			c0.6,1.6,0.9,2.4,1.4,3c1.2,1.2,3.5,2.1,4.9,1.1c1.4-1,1.2-3.3,0.9-4.5C1219.1,530.5,1219,530.4,1218.4,529.5z"/>
		<path d="M1216.9,536.4c-1.4,0-3-0.8-3.8-1.7c-0.6-0.7-1-1.6-1.5-3.2c-1-2.7-1.4-4.1-0.9-5.2c0.8-1.7,3.5-2.7,5.2-1.9
			c0.6,0.3,0.8,0.7,1.4,1.7c0.3,0.6,0.8,1.6,1.7,3h0l0.3,0.4c0.3,0.6,0.4,0.8,0.6,1.2c0.4,1.2,0.6,3.8-1,5
			C1218.1,536.2,1217.5,536.4,1216.9,536.4z M1214.4,525.1c-1.1,0-2.5,0.7-2.9,1.6c-0.3,0.7,0.1,2,1,4.4c0.6,1.6,0.8,2.3,1.3,2.8
			c1,1,3.1,1.9,4.3,1c1.1-0.8,1-2.8,0.7-3.9c-0.1-0.3-0.2-0.4-0.5-1l-0.3-0.4c-0.9-1.5-1.4-2.4-1.7-3.1c-0.5-1-0.6-1.1-0.9-1.3
			C1215.1,525.2,1214.8,525.1,1214.4,525.1z"/>
	</g>
	<g>
		<path class="st1" d="M1219.9,539.7c-1.4-0.7-3.6-0.7-4.7,0.5c-1.2,1.2-0.9,3.1-0.6,5.6c0.1,0.9,0.3,1.2,1.3,4.6
			c1.3,4.1,1.4,4.5,2,4.8c1.6,0.8,4.7-0.9,5.7-3.2c0.7-1.7-0.5-1.9-0.9-7c-0.1-1.3-0.2-2.6-1.1-3.9
			C1221.4,540.8,1220.9,540.1,1219.9,539.7z"/>
		<path d="M1218.9,555.9c-0.4,0-0.8-0.1-1.2-0.2c-0.7-0.3-0.8-0.8-1.8-3.9l-0.9-3c-0.6-1.8-0.7-2.1-0.8-2.9c-0.4-2.5-0.7-4.6,0.7-6
			c1.4-1.4,3.8-1.3,5.3-0.6l0,0c1,0.5,1.6,1.3,1.8,1.5c1,1.3,1.1,2.7,1.2,3.9l0,0.3c0.2,2.4,0.6,3.8,0.8,4.6c0.3,1,0.5,1.6,0.1,2.6
			c-0.6,1.5-2,2.8-3.6,3.4C1219.9,555.8,1219.4,555.9,1218.9,555.9z M1217.9,539.8c-0.9,0-1.7,0.2-2.3,0.8c-1,1-0.8,2.8-0.4,5.2
			c0.1,0.7,0.2,1,0.8,2.7l0.9,3c0.9,2.7,1,3.2,1.3,3.3c0.5,0.2,1.2,0.2,1.9-0.1c1.3-0.5,2.6-1.7,3-2.9c0.3-0.7,0.2-1-0.1-1.9
			c-0.3-0.9-0.7-2.3-0.9-4.8l0-0.3c-0.1-1.2-0.2-2.3-1-3.4c-0.2-0.2-0.6-0.8-1.5-1.2C1219.2,539.9,1218.5,539.8,1217.9,539.8z"/>
	</g>
	<g>
		<path class="st1" d="M1224.3,560.3c-1.5-1.2-4.5-0.5-5.9,1.4c-1.7,2.3-0.3,5.5,1.4,7.1c1.2,1.1,3.4,2.1,4.7,1.3c1-0.7,1-2.1,1-4.5
			C1225.5,562.8,1225.5,561.2,1224.3,560.3z"/>
		<path d="M1223.3,570.8c-1.4,0-3-0.9-3.9-1.7c-1.7-1.6-3.4-5.1-1.5-7.7c0.8-1.1,2.1-1.9,3.6-2.1c1.2-0.2,2.2,0,3,0.6l0,0
			c1.3,1,1.3,2.7,1.3,5.6c0,2.5,0,4.1-1.2,4.9C1224.3,570.7,1223.8,570.8,1223.3,570.8z M1222.4,560.2c-0.2,0-0.4,0-0.6,0
			c-1.2,0.2-2.3,0.8-2.9,1.7c-1.5,2-0.2,5,1.3,6.4c1,0.9,3,1.9,4.1,1.2c0.8-0.5,0.8-1.8,0.8-4.1c0-2.7,0-4.1-0.9-4.8l0,0
			C1223.6,560.4,1223,560.2,1222.4,560.2z"/>
	</g>
	<g>
		<path class="st1" d="M1228.3,573.4c-1.6-0.2-3.6,1-4,2.4c-0.8,2.7,3.1,7.1,6.7,6.6c2.5-0.3,4.8-2.8,4.4-4.2c-0.2-0.8-1-0.6-3-1.9
			C1229.8,574.8,1229.7,573.6,1228.3,573.4z"/>
		<path d="M1230.5,583c-1.8,0-3.9-1.1-5.4-2.8c-1.3-1.5-1.8-3.2-1.4-4.5c0.5-1.7,2.7-3,4.6-2.8l0,0c0.9,0.1,1.4,0.6,2,1.2
			c0.5,0.5,1.1,1.1,2.2,1.8c0.8,0.5,1.4,0.8,1.9,1c0.7,0.3,1.2,0.5,1.3,1.2c0.2,0.6,0,1.4-0.6,2.2c-0.8,1.2-2.4,2.4-4.2,2.6
			C1230.8,583,1230.7,583,1230.5,583z M1227.8,573.9c-1.3,0-2.8,1-3.1,2.1c-0.3,1,0.2,2.3,1.2,3.6c1.4,1.7,3.3,2.6,5,2.4
			c1.5-0.2,2.9-1.3,3.5-2.2c0.4-0.5,0.5-1,0.4-1.4c-0.1-0.2-0.2-0.3-0.8-0.5c-0.5-0.2-1.1-0.5-2-1.1c-1.2-0.8-1.9-1.4-2.4-1.9
			c-0.6-0.6-0.9-0.8-1.4-0.9l0,0C1228.1,573.9,1228,573.9,1227.8,573.9z"/>
	</g>
	<g>
		<path class="st1" d="M1241.4,580.1c-0.8,0.1-2.4,0.1-3,1.1c-0.9,1.4,0.6,4.1,2.5,5.3c0.1,0.1,2.6,1.7,5.3,0.6c2.4-1,4.2-3.7,3.5-5
			c-0.3-0.6-0.9-0.4-4.7-1.4C1243.1,580.3,1242.5,580,1241.4,580.1z"/>
		<path d="M1244.1,588c-2,0-3.5-1-3.6-1.1c-2.1-1.4-3.7-4.3-2.6-6c0.7-1.2,2.5-1.3,3.4-1.4l0,0c1-0.1,1.6,0.1,2.8,0.5l0.9,0.2
			c1.5,0.4,2.5,0.6,3.1,0.7c1.1,0.2,1.6,0.3,1.9,0.9c0.3,0.5,0.2,1.2-0.1,2c-0.5,1.3-1.8,2.9-3.8,3.7
			C1245.5,587.9,1244.8,588,1244.1,588z M1241.7,580.6c-0.1,0-0.2,0-0.3,0l0,0c-0.7,0-2.2,0.1-2.6,0.9c-0.7,1.1,0.5,3.5,2.3,4.7
			c0,0,2.3,1.5,4.8,0.5c1.6-0.6,2.8-2.1,3.2-3.1c0.2-0.5,0.2-0.9,0.1-1.2c-0.1-0.1-0.2-0.2-1.2-0.4c-0.7-0.1-1.7-0.4-3.2-0.8
			l-0.9-0.2C1242.9,580.7,1242.4,580.6,1241.7,580.6z"/>
	</g>
	<g>
		<path class="st1" d="M1258.4,580.7c-1.9,1.4-3.8,0.3-4.3,1.3c-0.7,1.2,1.3,4.6,4.2,5.4c3.3,0.9,6.3-1.9,7.4-3
			c1.2-1.2,1.4-1.9,1.4-2.2c0.3-1.8-1.2-3.7-2.9-4.4c-0.3-0.1-1.8-0.8-3.2-0.1C1259.6,578.3,1259.9,579.6,1258.4,580.7z"/>
		<path d="M1259.6,588.1c-0.5,0-1-0.1-1.5-0.2c-2.2-0.6-3.8-2.5-4.4-4c-0.4-0.9-0.4-1.6-0.1-2.1c0.4-0.7,1.2-0.7,1.9-0.7
			c0.8,0,1.7-0.1,2.6-0.7h0c0.6-0.5,0.9-0.9,1.1-1.5c0.3-0.6,0.7-1.3,1.6-1.7c0.7-0.3,1.9-0.6,3.6,0.1c1.8,0.8,3.5,2.8,3.2,4.9
			c-0.1,0.5-0.3,1.3-1.6,2.5C1265.1,585.7,1262.6,588.1,1259.6,588.1z M1258.7,581.1c-1.1,0.9-2.3,0.9-3.1,0.9c-0.6,0-0.9,0-1,0.2
			c-0.1,0.2-0.1,0.6,0.1,1.3c0.5,1.3,2,2.9,3.8,3.4c3,0.8,5.9-1.9,7-2.9c1.2-1.1,1.3-1.7,1.3-1.9c0.3-1.6-1.2-3.2-2.6-3.9
			c-1.1-0.5-2-0.5-2.8-0.2c-0.6,0.3-0.8,0.7-1.1,1.3C1259.8,579.9,1259.5,580.5,1258.7,581.1L1258.7,581.1z"/>
	</g>
	<g>
		<path class="st2" d="M1118.2,458.3c4.4,0.7,8.4,5.2,14.6,25.5c11.5,37.9,6.3,51.3,19.1,63.3c6.1,5.8,16.5,11.3,18.9,12.6
			c11.5,6,14.9,5.2,20.7,10.6c9,8.4,10.2,19.5,10.5,22.4c0.6,6,0,15.4-3.3,16.3c-2.8,0.7-5.3-5.1-12.5-13.5c0,0-8.4-9.8-20.1-17.9
			c-14.1-9.8-18-6.4-27.5-15c-2.2-2-9.7-9-13.4-20.3c-2.9-8.6-0.5-10.8-2.6-28.4c-1.2-10.4-1.9-15.7-3.9-21
			c-5.8-15-15.2-18.4-13.5-25.6C1106.5,462,1113.1,457.5,1118.2,458.3z"/>
		<path d="M1198.2,609.6c-1.9,0-3.5-2.2-6.3-6c-1.6-2.1-3.5-4.8-6.1-7.7c-0.1-0.1-8.5-9.8-20-17.8c-6.8-4.7-11.2-6.3-15-7.7
			c-4.1-1.5-7.6-2.8-12.5-7.3c-6.4-5.8-11-12.9-13.6-20.5c-1.6-4.8-1.6-7.7-1.6-12c0-3.8-0.1-8.5-1-16.5
			c-1.2-10.4-1.9-15.6-3.9-20.9c-2.7-7-6.2-11.5-9-15c-3.1-4-5.4-6.9-4.5-10.9c1.3-5.5,8.2-10.2,13.6-9.4c4.6,0.7,8.7,5.3,15,25.9
			c4.7,15.6,6.6,26.8,8.2,35.9c2.1,12.6,3.4,20.2,10.8,27.2c5.9,5.6,15.9,11,18.8,12.5c4.7,2.5,8.1,3.8,10.8,4.8
			c4,1.6,6.6,2.6,10,5.8c6,5.6,9.8,13.7,10.7,22.7c0.6,6,0.1,15.8-3.7,16.8C1198.6,609.5,1198.4,609.6,1198.2,609.6z M1117,458.7
			c-4.7,0-10.2,4.1-11.3,8.7c-0.9,3.6,1.2,6.2,4.3,10.1c2.8,3.6,6.4,8.1,9.2,15.3c2.1,5.4,2.7,10.7,4,21.2c1,8,1,13,1,16.6
			c0,4.4,0.1,7.1,1.6,11.7c2.5,7.5,7.1,14.4,13.3,20.1c4.8,4.4,8,5.6,12.2,7.1c3.9,1.4,8.4,3.1,15.3,7.9c11.6,8,20.1,17.8,20.2,17.9
			c2.6,3,4.5,5.6,6.1,7.8c2.8,3.7,4.4,5.9,5.9,5.6c2.6-0.7,3.6-8.8,2.9-15.7c-0.9-8.8-4.6-16.7-10.4-22.1c-3.3-3.1-5.8-4.1-9.7-5.6
			c-2.7-1.1-6.1-2.4-10.9-4.9c-2.9-1.5-13-7-19-12.7c-7.7-7.2-9-15-11.1-27.8c-1.5-9-3.4-20.3-8.1-35.8c-6.1-20-10.1-24.5-14.2-25.2
			C1117.8,458.7,1117.4,458.7,1117,458.7z"/>
	</g>
	<g>
		<path class="st3" d="M1101,278.9c2.3-6.2,4.8-15.8,4.1-27.5c-0.3-4.9-0.9-13.9-6.1-23.5c-1.6-3-4.9-7.5-5.9-8.7
			c-0.7-0.8-1.4-1.6-1.4-1.6c-0.6-0.7-1.1-1.2-1.3-1.4c-0.8-0.9-1.1-1.1-1.1-1.1c0.9-0.8,25.3,11.2,32.2,34.2
			c3.2,10.7,1.9,21.1-0.9,29.5"/>
		<path d="M1101.5,279.1l-0.9-0.3c3.3-8.9,4.6-18.1,4.1-27.3c-0.3-4.8-0.9-13.7-6.1-23.3c-1.6-3-4.9-7.4-5.9-8.6
			c-0.7-0.8-1.4-1.6-1.4-1.6c-0.6-0.7-1.1-1.2-1.3-1.4c-0.5-0.5-0.8-0.8-1-1c-0.2-0.2-0.3-0.3-0.3-0.5l0-0.2l0.2-0.1
			c0.3-0.3,0.7-0.2,1.1-0.1c4.8,1.3,25.7,13.7,31.9,34.5c3.5,11.7,1.5,22.7-0.9,29.8l-1-0.3c2.3-7,4.3-17.8,0.9-29.2
			c-5.9-19.7-24.7-31.2-30.1-33.5c0.2,0.2,0.6,0.7,1.2,1.3c0,0,0.8,0.9,1.4,1.6c1,1.2,4.3,5.7,6,8.7c5.3,9.7,5.9,19.2,6.2,23.7
			C1106.2,260.8,1104.8,270.1,1101.5,279.1z"/>
	</g>
	<g>
		<path d="M1101.5,279.1l-1-0.3c2.5-8.3,4.7-21.4,1.2-36.5c-2.1-9-5.8-17.4-11.2-25.1l0.8-0.6c5.4,7.7,9.2,16.3,11.3,25.4
			C1106.2,257.4,1104,270.6,1101.5,279.1z"/>
	</g>
	<g>
		<path d="M1109.7,239.2l-0.2-1c0.8-0.1,2.1-0.5,3.1-1.6c0.5-0.5,0.9-1,1.2-1.7l0.9,0.4c-0.4,0.7-0.8,1.4-1.4,2
			C1112.1,238.6,1110.7,239,1109.7,239.2z"/>
	</g>
	<g>
		<path d="M1113.6,242.1l-0.3-1c0.9-0.3,1.8-0.7,2.6-1.3c0.3-0.2,0.6-0.5,0.8-0.7l0.7,0.7c-0.3,0.3-0.6,0.6-0.9,0.8
			C1115.7,241.3,1114.7,241.8,1113.6,242.1z"/>
	</g>
	<g>
		<path d="M1114,246.1l0-1c0.7,0,1.8-0.2,2.8-0.9c0.7-0.4,1.3-1,1.7-1.6l0.8,0.6c-0.5,0.8-1.2,1.4-2,1.9
			C1116.1,245.9,1114.8,246.1,1114,246.1z"/>
	</g>
	<g>
		<path class="st3" d="M997.9,277.5c-2.3-6.2-4.8-15.8-4.1-27.5c0.3-4.9,0.9-13.9,6.1-23.5c1.6-3,4.9-7.5,5.9-8.7
			c0.7-0.8,1.4-1.6,1.4-1.6c0.6-0.7,1.1-1.2,1.3-1.4c0.8-0.9,1.1-1.1,1.1-1.1c-0.9-0.8-25.3,11.2-32.2,34.2
			c-3.2,10.7-1.9,21.1,0.9,29.5"/>
		<path d="M997.4,277.7c-3.3-9-4.7-18.3-4.1-27.7c0.3-4.5,0.9-14,6.2-23.7c1.7-3.1,5-7.5,6-8.7c0.7-0.8,1.4-1.6,1.4-1.6
			c0.5-0.6,1-1,1.2-1.3c-5.5,2.3-24.3,13.8-30.1,33.5c-3.4,11.5-1.4,22.2,0.9,29.2l-1,0.3c-2.3-7.2-4.4-18.1-0.9-29.8
			c6.2-20.8,27.1-33.2,31.9-34.5c0.4-0.1,0.8-0.2,1.1,0.1l0.2,0.1l0,0.2c0,0.2-0.1,0.3-0.3,0.5c-0.2,0.1-0.4,0.4-0.9,1
			c-0.2,0.2-0.6,0.7-1.3,1.4c0,0-0.8,0.8-1.4,1.6c-1,1.2-4.2,5.6-5.9,8.6c-5.2,9.5-5.8,18.5-6.1,23.3c-0.6,9.2,0.8,18.4,4.1,27.3
			L997.4,277.7z"/>
	</g>
	<g>
		<path d="M997.4,277.7c-2.5-8.4-4.8-21.7-1.2-37c2.1-9.1,5.9-17.7,11.3-25.4l0.8,0.6c-5.4,7.6-9.1,16.1-11.2,25.1
			c-3.5,15.1-1.2,28.2,1.2,36.5L997.4,277.7z"/>
	</g>
	<g>
		<path d="M989.2,237.8c-1-0.2-2.4-0.6-3.7-1.8c-0.6-0.6-1.1-1.2-1.4-2l0.9-0.4c0.3,0.6,0.7,1.2,1.2,1.7c1.1,1,2.3,1.4,3.1,1.6
			L989.2,237.8z"/>
	</g>
	<g>
		<path d="M985.2,240.7c-1.1-0.3-2-0.8-2.9-1.4c-0.3-0.2-0.6-0.5-0.9-0.8l0.7-0.7c0.3,0.3,0.5,0.5,0.8,0.7c0.8,0.6,1.6,1,2.6,1.3
			L985.2,240.7z"/>
	</g>
	<g>
		<path d="M984.8,244.7c-0.8,0-2.1-0.2-3.3-1c-0.8-0.5-1.5-1.1-2-1.9l0.8-0.6c0.5,0.7,1,1.2,1.7,1.6c1.1,0.7,2.1,0.8,2.8,0.9
			L984.8,244.7z"/>
	</g>
</g>
<g id="face_nhin">
	<g>
		<ellipse class="st3" cx="1044.1" cy="313" rx="15.7" ry="18.5"/>
		<path d="M1044.1,332c-8.9,0-16.2-8.5-16.2-19s7.3-19,16.2-19s16.2,8.5,16.2,19S1053,332,1044.1,332z M1044.1,295
			c-8.4,0-15.2,8.1-15.2,18s6.8,18,15.2,18s15.2-8.1,15.2-18S1052.4,295,1044.1,295z"/>
	</g>
	<g>
		<ellipse class="st3" cx="1101.5" cy="363.6" rx="14.2" ry="20.1"/>
		<path d="M1101.5,384.1c-8.1,0-14.7-9.2-14.7-20.6s6.6-20.6,14.7-20.6c8.1,0,14.7,9.2,14.7,20.6S1109.6,384.1,1101.5,384.1z
			 M1101.5,344c-7.5,0-13.7,8.8-13.7,19.6s6.1,19.6,13.7,19.6s13.7-8.8,13.7-19.6S1109,344,1101.5,344z"/>
	</g>
	<g>
		<ellipse class="st3" cx="990.6" cy="362.2" rx="16.1" ry="22.5"/>
		<path d="M990.6,385.2c-9.1,0-16.6-10.3-16.6-23s7.4-23,16.6-23s16.6,10.3,16.6,23S999.7,385.2,990.6,385.2z M990.6,340.2
			c-8.6,0-15.6,9.9-15.6,22s7,22,15.6,22s15.6-9.9,15.6-22S999.2,340.2,990.6,340.2z"/>
	</g>
	<g>
		<path d="M1063,424.7c-0.4,0-0.8,0-1.2,0c-7.8-0.5-12.9-5.4-15.1-8.1c-3.8,5.2-10,8.1-16.4,7.6c-10.3-0.8-15.1-9.8-15.3-10.2
			c-0.5-1.3-1.8-5.4,0.4-9.9c2.3-4.6,6.5-6,7.8-6.3l0.5,1.9c-0.7,0.2-4.6,1.4-6.5,5.3c-1.8,3.7-0.7,7.2-0.4,8.2
			c0.1,0.3,4.4,8.3,13.6,9c6.1,0.4,12-2.5,15.4-7.8l0.8-1.3l0.9,1.2c0.9,1.3,6,7.9,14.4,8.4c4.4,0.3,13.3-1.1,16-8.2
			c2.4-6.4-2-12.6-2.5-13.3l1.6-1.2c0.6,0.8,5.5,7.8,2.7,15.2C1076.9,422.7,1068.4,424.7,1063,424.7z"/>
	</g>
	<g>
		<path d="M1109.6,362.5c-0.6-3.4-0.9-5.3-2.2-7c-2.7-3.4-8.9-5-12-2.6c-2,1.6-2,4.7-1.8,11c0.1,4.7,0.2,7,1.8,8.8
			c2.4,2.7,7.3,3.8,10.7,1.8c2.4-1.5,3.2-4.1,3.6-5.3C1110.3,366.8,1110,365,1109.6,362.5z"/>
		<path d="M1102,375.9c-2.6,0-5.3-1.1-7-3c-1.7-1.9-1.8-4.5-1.9-9.1c-0.2-6.4-0.3-9.6,2-11.4c3.4-2.7,9.9-0.7,12.7,2.7
			c1.4,1.8,1.8,3.7,2.3,7.2c0.4,2.3,0.7,4.4,0,6.8c-0.4,1.2-1.2,4-3.8,5.5C1105.1,375.6,1103.6,375.9,1102,375.9z M1099.2,352.2
			c-1.4,0-2.6,0.3-3.5,1c-1.8,1.4-1.8,4.5-1.6,10.6c0.1,4.7,0.2,6.9,1.6,8.5c2.4,2.7,7.1,3.5,10,1.7c2.3-1.4,3-3.9,3.3-5
			c0.7-2.2,0.4-4,0-6.4l0,0c-0.5-3.3-0.8-5.2-2.1-6.8C1105.2,353.6,1102,352.2,1099.2,352.2z"/>
	</g>
	<g>
		<path d="M997.8,356.9c-0.9-2.4-2.9-7.5-6.9-8.1c-3.6-0.5-6.8,2.8-8.1,5.7c-1.1,2.4-1,4.9-0.8,10c0.2,5,0.3,7.4,1.6,9
			c2.4,2.9,6.9,2.5,9.8,1c3.7-2,5-5.9,5.3-6.7C1000.2,363,998.6,358.8,997.8,356.9z"/>
		<path d="M988.6,376.2c-2.1,0-4.1-0.7-5.4-2.3c-1.4-1.7-1.5-4.3-1.7-9.3c-0.2-5.1-0.3-7.7,0.9-10.2c1.5-3.3,4.9-6.5,8.7-6
			c4.3,0.6,6.3,5.9,7.3,8.4c0.7,1.9,2.4,6.3,0.8,11.3c-0.4,1.1-1.9,5-5.5,6.9C992.1,375.7,990.4,376.2,988.6,376.2z M990.2,349.2
			c-3.2,0-5.8,3.2-6.9,5.5c-1.1,2.3-1,4.8-0.8,9.7c0.2,4.8,0.3,7.3,1.5,8.7c2.1,2.6,6.3,2.3,9.1,0.8c3.3-1.8,4.7-5.3,5-6.4
			c1.5-4.6-0.1-8.8-0.8-10.6l0,0c-0.9-2.3-2.8-7.2-6.5-7.8C990.6,349.3,990.4,349.2,990.2,349.2z"/>
	</g>
	<g>
		<path d="M1053.3,310.6c-0.4-3.3-2.6-9.6-6.8-10c-3.4-0.3-6.5,3.3-7.7,4.6c-3.8,4.4-3.1,9-2.9,10.2c0.2,1.2,1.8,9,8.1,10
			c2.9,0.5,6.4-0.5,8.1-2.8c1-1.4,1.1-3.4,1.3-7.6C1053.4,312.7,1053.4,311.6,1053.3,310.6z"/>
		<path d="M1045.3,326c-0.5,0-1,0-1.5-0.1c-6.7-1.1-8.3-9.5-8.5-10.4c-0.3-1.8-0.6-6.4,3.1-10.6c1.2-1.4,4.4-5.2,8.1-4.8
			c4.3,0.4,6.7,6.6,7.2,10.4c0.1,1.1,0.1,2.2,0,4.5c-0.2,4.3-0.3,6.4-1.4,7.9C1050.8,325,1047.9,326,1045.3,326z M1046,301
			c-3,0-5.9,3.3-6.8,4.5c-3.4,3.9-3.1,8.2-2.8,9.8c0.2,0.9,1.7,8.6,7.6,9.6c2.9,0.5,6.1-0.7,7.6-2.6c0.9-1.2,1-3.3,1.2-7.3
			c0.1-2.2,0.1-3.3,0-4.3v0c-0.4-3-2.5-9.2-6.3-9.6C1046.3,301,1046.2,301,1046,301z"/>
	</g>
</g>
<g id="KHUONG" class="st0">
	<g class="st4">
		<path class="st5" d="M377.4,418.1c0.4,27.5,0.8,55,1.2,82.6c0.5,5.3,0.9,17.3-6.6,23.4c-4.7,3.8-8.8,2.4-28.3,1.9
			c-24.6-0.6-29.7,1.3-36.1-3.9c-4.7-3.8-9-10.6-8.3-17.7c1.1-10,12.2-19.1,27.5-20v-66.4H377.4z"/>
		<path d="M362.6,527.7c-2.1,0-4.6-0.1-7.7-0.2c-3-0.1-6.8-0.3-11.3-0.4c-6.6-0.2-11.8-0.1-16-0.1c-11.5,0-15.8,0-20.7-3.9
			c-4.5-3.6-9.5-10.7-8.6-18.6c1.2-10.8,12.9-19.7,27.5-20.8v-66.5h52.6l1.2,83.6c0.7,7.8,0.1,18.4-7,24.2
			C369.9,527.1,367.4,527.7,362.6,527.7z M331.4,524.9c3.4,0,7.5,0,12.2,0.1c4.5,0.1,8.3,0.3,11.3,0.4c10.1,0.4,13.1,0.6,16.4-2.1
			c6.7-5.5,6.8-16.5,6.2-22.5l-1.1-81.7h-48.7v66.3l-0.9,0.1c-14,0.8-25.4,9-26.5,19.1c-0.8,7.1,3.8,13.5,7.9,16.8
			c4.4,3.5,8.2,3.5,19.4,3.5C328.8,524.9,330.1,524.9,331.4,524.9z"/>
	</g>
	<g class="st4">
		<path class="st5" d="M418.9,418.1c-0.4,27.5-0.8,55-1.2,82.6c-0.5,5.3-0.9,17.3,6.6,23.4c4.7,3.8,8.8,2.4,28.3,1.9
			c24.6-0.6,29.7,1.3,36.1-3.9c4.7-3.8,9-10.6,8.3-17.7c-1.1-10-12.2-19.1-27.5-20v-66.4H418.9z"/>
		<path d="M433.7,527.7c-4.8,0-7.3-0.6-10-2.8c-7.1-5.8-7.7-16.4-7-24.3l1.2-83.5h52.6v66.5c14.6,1.1,26.3,10,27.5,20.8
			c0.9,7.9-4.1,14.9-8.6,18.6c-4.9,4-9.2,4-20.7,3.9c-4.2,0-9.4,0-16,0.1c-4.5,0.1-8.3,0.3-11.3,0.4
			C438.3,527.6,435.8,527.7,433.7,527.7z M419.9,419.1l-1.1,81.6c-0.6,6.1-0.5,17.1,6.2,22.6c3.3,2.7,6.3,2.6,16.4,2.1
			c3-0.1,6.8-0.3,11.3-0.4c6.6-0.2,11.8-0.2,16-0.1c11.3,0,15,0,19.4-3.5c4.1-3.3,8.7-9.7,7.9-16.8c-1.1-10.1-12.5-18.3-26.5-19.1
			l-0.9-0.1v-66.3H419.9z"/>
	</g>
	<g class="st4">
		<path class="st5" d="M299.9,372.7c-20.8,13.8-31.7,28.4-37.1,37.1c-6.9,11-8.4,18-7.1,24.5c0.4,2,2,10.1,8.2,13.6
			c12.8,7.3,35.8-10,47.4-23.4c3-3.5,5.2-6.6,6.6-8.7"/>
		<path d="M270.8,450.6c-2.7,0-5.2-0.6-7.4-1.8c-3-1.7-7-5.6-8.7-14.3c-1.4-7.3,0.7-14.8,7.2-25.2c8.9-14.2,21.4-26.8,37.4-37.4
			l1.1,1.7c-15.7,10.4-28,22.8-36.8,36.8c-6.2,9.9-8.3,17.1-7,23.8c1.6,8,5,11.4,7.7,13c12,6.9,34.2-9.4,46.2-23.2
			c2.3-2.7,4.5-5.6,6.5-8.6l1.7,1.1c-2,3.1-4.2,6.1-6.6,8.9C301.8,437,284,450.6,270.8,450.6z"/>
	</g>
	<g class="st4">
		<path class="st1" d="M277.2,418.6c-2.8-0.7-6.1,0.8-7.9,3.3c-3,4.3,0.1,9.7,0.5,10.5c0.6,1,2.5,4.2,6.3,4.9c4.7,0.8,8.1-3,8.6-3.5
			c0.8-0.9,3-3.3,2.5-6c-0.2-1.1-0.7-1.5-5-5.3C278.3,419.1,278,418.8,277.2,418.6z"/>
		<path d="M277.5,437.9c-0.5,0-0.9,0-1.4-0.1c-4-0.7-6-4-6.6-5.1c-0.6-1.1-3.6-6.6-0.5-11c1.9-2.7,5.5-4.2,8.4-3.5l0,0
			c0.9,0.2,1.2,0.5,4.8,3.6l0.6,0.6c4.1,3.6,4.7,4.1,4.9,5.3c0.6,2.9-1.7,5.5-2.6,6.4C284,435.3,281.2,437.9,277.5,437.9z
			 M275.8,419c-2.2,0-4.7,1.2-6.1,3.2c-2.8,3.9,0,9,0.6,10c0.6,1,2.4,4,5.9,4.7c4,0.7,7-2.1,8.1-3.4c0.8-0.9,2.8-3.2,2.3-5.6
			c-0.2-0.9-0.6-1.2-4.6-4.8l-0.6-0.6c-3.4-3-3.7-3.2-4.4-3.4l0,0C276.6,419,276.2,419,275.8,419z"/>
	</g>
	<g class="st4">
		<path class="st1" d="M264.1,420.5c-0.6-0.7-2-1.7-3.3-1.2c-1.5,0.6-1.6,2.9-1.6,3.5c0,0.8-0.1,2.1,0.8,2.9c1,0.8,2.7,0.3,3.5-0.3
			c0.3-0.2,1.3-0.9,1.5-2.2C265.3,421.8,264.3,420.8,264.1,420.5z"/>
		<path d="M261.4,426.6c-0.6,0-1.2-0.2-1.7-0.5c-1.1-0.9-1-2.4-1-3.3c0.1-2.2,0.7-3.5,2-4c1.5-0.6,3.1,0.6,3.8,1.4
			c1.1,1.2,1.2,2.4,1.1,3.1c-0.1,0.7-0.5,1.7-1.7,2.5C263.2,426.3,262.2,426.6,261.4,426.6z M261.5,419.7c-0.2,0-0.3,0-0.5,0.1
			c-0.8,0.3-1.2,1.3-1.3,3.1c0,0.8-0.1,1.9,0.6,2.4c0.8,0.7,2.3,0.2,3-0.3c0.9-0.6,1.2-1.3,1.3-1.8c0.1-0.5,0-1.4-0.8-2.3l0,0
			C263.3,420.4,262.4,419.7,261.5,419.7z"/>
	</g>
	<g class="st4">
		<path class="st1" d="M265.2,429c-1.5-1-3.8-1-4.9,0.1c-0.7,0.7-0.7,1.9-0.7,4.2c0,2.7,0,4,0.8,4.5c1.1,0.7,3-0.4,3.7-0.8
			c0.9-0.5,3.1-1.9,3.1-4.4C267.2,431.2,266.5,429.8,265.2,429z"/>
		<path d="M261.3,438.6c-0.4,0-0.8-0.1-1.2-0.3c-1-0.7-1-2.1-1-4.9c0-2.4,0-3.7,0.8-4.6c1.2-1.3,3.7-1.4,5.5-0.2
			c1.4,0.9,2.3,2.5,2.3,4.1c0,2.7-2.5,4.2-3.4,4.8C263.8,437.8,262.5,438.6,261.3,438.6z M262.7,428.8c-0.8,0-1.5,0.2-2,0.7
			c-0.5,0.5-0.5,1.6-0.5,3.9c0,2.4,0,3.7,0.6,4.1c0.9,0.6,2.6-0.5,3.2-0.8c0.8-0.5,2.9-1.8,2.9-3.9c0-1.3-0.7-2.6-1.8-3.3h0
			C264.2,429,263.4,428.8,262.7,428.8z"/>
	</g>
	<g class="st4">
		<path class="st1" d="M269,437.3c-1-0.2-1.9,0.4-2.5,0.8c-1.1,0.7-2.7,2.5-2.2,3.8c0.5,1.3,2.9,1.4,4.4,1c0.5-0.2,2.4-0.7,2.7-2.4
			C271.7,439.1,270.4,437.5,269,437.3z"/>
		<path d="M267.1,443.6c-1.3,0-2.7-0.4-3.2-1.5c-0.7-1.6,1-3.5,2.4-4.4c0.6-0.4,1.6-1.1,2.8-0.9l0,0c1.7,0.3,3.1,2.1,2.8,3.8
			c-0.1,0.9-0.8,2.1-3,2.8C268.4,443.5,267.7,443.6,267.1,443.6z M268.6,437.8c-0.7,0-1.3,0.4-1.8,0.8c-1,0.7-2.4,2.3-2,3.2
			c0.4,0.9,2.3,1.1,3.8,0.7c1.4-0.4,2.2-1.1,2.3-2c0.2-1.1-0.8-2.5-2-2.7l0,0C268.8,437.8,268.7,437.8,268.6,437.8z"/>
	</g>
	<g class="st4">
		<path class="st1" d="M276,441.5c-1.2,0.9-1.9,0.5-2.6,1.2c-0.6,0.6-0.7,1.7-0.3,2.5c0.7,1.3,3.3,1.3,4.8,0.1
			c1-0.8,1.6-2.2,1.2-3.4c-0.2-0.8-0.9-1.8-1.6-1.8C276.9,440.1,276.9,440.8,276,441.5z"/>
		<path d="M275.3,446.6c-0.3,0-0.5,0-0.8-0.1c-0.9-0.2-1.5-0.6-1.9-1.2c-0.5-0.9-0.4-2.2,0.3-3c0.4-0.5,0.9-0.6,1.4-0.7
			c0.4-0.1,0.8-0.2,1.3-0.6c0.4-0.3,0.6-0.5,0.7-0.8c0.2-0.3,0.5-0.7,1-0.7c1.1,0,1.9,1.2,2.1,2.1c0.4,1.4-0.2,3-1.4,3.9
			C277.4,446.3,276.4,446.6,275.3,446.6z M277.5,440.6C277.5,440.6,277.5,440.6,277.5,440.6c-0.1,0-0.1,0-0.3,0.3
			c-0.2,0.3-0.5,0.6-0.9,1l0,0c-0.7,0.5-1.2,0.6-1.7,0.7c-0.4,0.1-0.6,0.2-0.8,0.4c-0.4,0.5-0.5,1.4-0.2,1.9
			c0.2,0.3,0.6,0.6,1.2,0.7c1,0.2,2.1-0.1,2.8-0.7c0.7-0.6,1.4-1.8,1.1-2.9C278.4,441.2,277.8,440.6,277.5,440.6z"/>
	</g>
	<g class="st4">
		<path class="st5" d="M480,379.7c10.1-1.3,28-2.1,46.8,6.8c21.3,10,39.9,30.6,41.2,50.8c0.2,3.7,0.8,11.5-4.5,17.5
			c-3.4,3.8-9,6.7-14.6,6.4c-7.3-0.4-10.4-5.9-23.5-19.7c-10.8-11.3-16.2-17-23.5-21.6c-9.4-5.8-19.3-8.3-28.2-9.2"/>
		<path d="M549.8,462.2c-0.3,0-0.6,0-0.9,0c-6.1-0.4-9.6-4.1-17.1-12.3c-2-2.2-4.3-4.8-7.1-7.7c-10.7-11.2-16.1-16.9-23.3-21.4
			c-8-5-17.3-8-27.8-9l0.2-2c10.8,1,20.4,4.2,28.6,9.3c7.5,4.7,12.9,10.4,23.7,21.7c2.8,2.9,5.1,5.5,7.1,7.7
			c7.4,8,10.4,11.4,15.7,11.7c4.9,0.3,10.3-2.1,13.8-6.1c5-5.7,4.5-13.2,4.2-16.8c-1.2-18.4-18.3-39.4-40.7-49.9
			c-17.5-8.3-34.8-8.2-46.2-6.7l-0.3-2c11.7-1.5,29.4-1.6,47.3,6.9c23.4,11,40.5,32.2,41.8,51.6c0.3,3.9,0.8,11.9-4.7,18.2
			C560.7,459.6,555,462.2,549.8,462.2z"/>
	</g>
	<g class="st4">
		<path class="st1" d="M550.5,424.7c-0.7-0.3-4.8-1.8-8.8,0.8c-2.7,1.7-5.2,5.3-4.8,9.3c0.4,4.6,4.3,6.9,5.3,7.5
			c0.4,0.3,6.3,3.6,11.3,0c0.3-0.2,4.2-3.1,4.3-7.8C557.9,429.4,553.8,425.9,550.5,424.7z"/>
		<path d="M548.2,444.4c-3.2,0-5.9-1.5-6.3-1.7c-4.2-2.5-5.3-5.7-5.5-7.9c-0.4-4.3,2.3-8,5.1-9.8c3.8-2.4,7.7-1.4,9.2-0.8l0,0
			c3.8,1.4,7.8,5.2,7.6,10.2c-0.1,4.9-4,7.9-4.5,8.2C552,444,550,444.4,548.2,444.4z M546.7,424.5c-1.4,0-3.1,0.3-4.7,1.3
			c-2.5,1.6-4.9,5-4.6,8.8c0.3,2.9,2,5.3,5.1,7.1c0.2,0.1,6,3.5,10.8,0c0.4-0.3,4-3,4.1-7.4c0.1-4.6-3.5-8-7-9.3l0.2-0.5l-0.2,0.5
			C549.6,424.9,548.3,424.5,546.7,424.5z"/>
	</g>
	<g class="st4">
		<path class="st1" d="M562.8,436.6c-0.2,0-1.6-0.2-2.4,0.7c-1,1.2-0.2,4,1.7,5c1,0.5,2.8,0.7,3.6-0.3c0.9-1.2,0.1-3-0.1-3.2
			C565.6,438.5,564.7,436.8,562.8,436.6z"/>
		<path d="M563.8,443.2c-0.7,0-1.4-0.2-2-0.5c-1.1-0.6-2-1.8-2.3-3.2c-0.2-1,0-2,0.5-2.6c0.8-1,2.2-0.9,2.8-0.8h0
			c2.1,0.2,3.1,2,3.2,2.4c0.3,0.5,1.1,2.4,0,3.7C565.6,442.9,564.7,443.2,563.8,443.2z M562.4,437.1c-0.5,0-1.1,0.1-1.5,0.5
			c-0.3,0.4-0.4,1-0.3,1.7c0.2,1.1,0.9,2.1,1.8,2.5c0.8,0.4,2.3,0.6,3-0.2c0.7-0.8,0.1-2.3-0.1-2.7c-0.1-0.2-0.9-1.7-2.4-1.9
			l0.1-0.5l-0.1,0.5C562.7,437.1,562.5,437.1,562.4,437.1z"/>
	</g>
	<g class="st4">
		<path class="st1" d="M563,447.7c0-0.3,0.1-1.8-0.8-3c-1.3-1.7-4.2-2.3-5.4-1.2c-0.5,0.5-0.6,1.3-0.6,2.7c0,1.6,0,2.7,0.8,3.7
			c0.7,0.8,2,1.4,3.2,1.1c1.2-0.2,1.8-1.1,2-1.3C562.9,448.9,563,448.1,563,447.7z"/>
		<path d="M559.7,451.6c-1.1,0-2.2-0.5-3-1.4c-1-1.1-1-2.4-0.9-4c0-1.5,0-2.4,0.7-3.1c0.5-0.5,1.4-0.8,2.4-0.7
			c1.4,0.1,2.9,0.9,3.7,2c1,1.3,1,2.7,0.9,3.3v0c0,0.4-0.1,1.4-0.8,2.3c-0.3,0.5-1.1,1.3-2.3,1.5
			C560.2,451.5,559.9,451.6,559.7,451.6z M558.5,443.4c-0.6,0-1,0.1-1.3,0.4c-0.4,0.4-0.4,1-0.4,2.4c0,1.5,0,2.5,0.7,3.3
			c0.6,0.7,1.7,1.2,2.8,1c0.9-0.2,1.4-0.8,1.7-1.1c0.5-0.7,0.6-1.4,0.6-1.8l0,0c0-0.5,0-1.6-0.7-2.6c-0.7-0.9-1.8-1.5-3-1.6
			C558.7,443.4,558.6,443.4,558.5,443.4z"/>
	</g>
	<g class="st4">
		<path class="st1" d="M553.6,453.1c1-1.3,0.1-3.7-1.4-5c-0.2-0.2-2-1.6-4.1-0.8c-1.4,0.5-2.7,1.9-2.7,3.3c0.1,2.2,3.4,3.6,5.8,3.5
			C551.8,454,553,453.9,553.6,453.1z"/>
		<path d="M550.7,454.6c-1.7,0-3.5-0.6-4.7-1.7c-0.7-0.7-1.2-1.5-1.2-2.3c-0.1-1.8,1.5-3.3,3-3.8c2.3-0.8,4.2,0.6,4.6,0.9
			c1.7,1.3,2.7,4.1,1.5,5.6l0,0c-0.8,1.1-2.1,1.2-2.8,1.2C551,454.6,550.9,454.6,550.7,454.6z M549.3,447.6c-0.4,0-0.7,0.1-1.1,0.2
			c-1.2,0.4-2.4,1.6-2.4,2.8c0,0.6,0.3,1.1,0.9,1.6c1,0.9,2.9,1.5,4.4,1.4c0.5,0,1.6-0.1,2.1-0.8l0,0c0.7-1,0.1-3.1-1.3-4.3
			C551.7,448.4,550.7,447.6,549.3,447.6z"/>
	</g>
	<g class="st4">
		<path class="st1" d="M539.6,444.7c-0.9-0.1-3.2-0.2-3.7,0.9c-0.5,1.1,1,2.8,1.8,3.5c0.6,0.5,1.7,1.4,3,1.2
			c1.8-0.3,3.1-2.8,2.5-4.2C542.6,444.9,540.8,444.8,539.6,444.7z"/>
		<path d="M540.2,450.9c-1.3,0-2.3-0.9-2.9-1.4c-0.3-0.2-2.7-2.4-1.9-4.1c0.7-1.5,3.1-1.3,4.2-1.2h0c1.3,0.1,3.3,0.2,4,1.7
			c0.4,0.8,0.3,1.8-0.2,2.8c-0.6,1.1-1.6,1.9-2.6,2.1C540.6,450.9,540.4,450.9,540.2,450.9z M538.6,445.2c-1.3,0-2,0.2-2.2,0.7
			c-0.3,0.7,0.8,2.1,1.7,2.9c0.6,0.5,1.5,1.3,2.6,1.1c0.7-0.1,1.5-0.8,1.9-1.6c0.4-0.7,0.4-1.4,0.2-1.9c-0.4-0.9-2.1-1.1-3.1-1.1
			l0-0.5l0,0.5C539.2,445.2,538.9,445.2,538.6,445.2z"/>
	</g>
	<g class="st4">
		<path class="st5" d="M498.4,379.2c-5,16.3-11.7,37.7-31.5,56.8c-6.5,6.2-31.8,29.8-71,30.1c-45.1,0.3-73.3-30.6-77.6-35.5
			c-8.9-13.2-22.1-36.5-27.6-68.2c-3.1-18-7.2-41.4,2-65.9c14.1-37.3,54.4-65,97-67.4c52.3-3,101.4,32.3,114.4,75.6
			C512.6,333.1,504.2,360.2,498.4,379.2z"/>
		<path d="M395.2,467.1c-42.8,0-70.2-27.4-77.7-35.8l-0.1-0.1c-14.1-21.1-23.5-44.1-27.7-68.6c-3.1-17.6-7.2-41.6,2.1-66.4
			c14.2-37.6,54.4-65.6,97.9-68c25.1-1.4,50.9,5.9,72.6,20.6c21.2,14.4,36.4,34.1,42.8,55.7c8.6,28.6-0.1,56.5-5.8,75
			c-5,16-11.7,38-31.8,57.2c-20.2,19.4-45.6,30.2-71.7,30.4C395.7,467.1,395.4,467.1,395.2,467.1z M319.1,430
			c7.4,8.3,34.3,35.1,76.1,35.1c0.2,0,0.5,0,0.7,0c25.5-0.2,50.5-10.8,70.3-29.8c19.7-18.9,26.4-40.6,31.3-56.4l1,0.3l-1-0.3
			c6-19.3,14.2-45.8,5.8-73.8c-13.4-44.9-63.2-77.7-113.4-74.9c-42.7,2.5-82.2,29.9-96.1,66.8c-9.1,24.2-5.2,47-2,65.3
			C295.9,386.4,305.1,409.2,319.1,430z"/>
	</g>
	<g class="st4">
		<path d="M425.4,295.5c-2.7-2.9-10.2-9.6-21.8-10c-9.4-0.4-16.5,3.7-19.8,6.1l-1.2-1.6c3.5-2.6,11-6.9,21.1-6.5
			c12.3,0.5,20.3,7.6,23.2,10.7L425.4,295.5z"/>
	</g>
	<g class="st4">
		<path class="st6" d="M522.8,199.1c-0.7,0.1,5.9,19.8-2.3,28.3c-7.9,8.3-26.6,2.9-26.8,4.6c-0.2,1.6,17.2,1.9,23,12.3
			c3.6,6.5,1.6,14.4,3.1,14.6c1.6,0.2,1.4-10.2,8.3-16c7.8-6.5,19.6-2.9,20.1-5.4c0.4-2.1-7.4-3.4-13.8-9.2
			C522.8,217.9,523.5,199,522.8,199.1z"/>
		<path d="M519.8,259.9c-0.1,0-0.1,0-0.2,0c-1.4-0.2-1.4-1.8-1.5-4.1c-0.1-2.8-0.2-7.1-2.3-10.9c-3.8-6.9-13.4-9.1-18.5-10.3
			c-3.3-0.8-4.8-1.1-4.6-2.5c0.2-1.5,1.8-1.3,5.7-1c6.1,0.5,16.3,1.3,21.4-4.1c4-4.2,4.2-11.4,3.6-17.3c-0.6-2.8-0.9-5.3-1.1-7.1
			c0-0.2-0.1-0.4-0.1-0.6c-0.5-2.3-0.5-2.7-0.2-3.2l0.2-0.4l0.9-0.1l0.4,0.3c0.5,0.4,0.5,0.8,0.7,2.7c0,0.3,0.1,0.6,0.1,1
			c0.4,1.9,0.9,4.4,1.1,7.2c1.3,5.9,3.9,13.2,9.6,18.2c3.2,2.9,6.9,4.7,9.5,6c3,1.5,4.9,2.4,4.6,4.2c-0.4,1.8-2.6,1.8-5.8,1.9
			c-4.3,0.1-10.2,0.3-14.6,4.1c-4.2,3.5-5.6,8.8-6.5,12.3C521.5,258.3,521.1,259.9,519.8,259.9z M499.8,233
			c5.6,1.4,14,4.1,17.8,10.8c2.3,4.2,2.5,8.8,2.5,11.8c0,0,0,0.1,0,0.1c0-0.1,0.1-0.2,0.1-0.3c0.9-3.5,2.5-9.5,7.2-13.4
			c5-4.2,11.5-4.4,15.9-4.5c1.5,0,3.2-0.1,3.8-0.4c-0.4-0.5-2.1-1.3-3.4-2c-2.8-1.4-6.5-3.2-10-6.3c-3.8-3.4-6.4-7.8-8-12.1
			c-0.3,4.2-1.5,8.3-4.3,11.3C515.9,233.7,506.3,233.5,499.8,233z"/>
	</g>
	<g class="st4">
		<path class="st6" d="M547.3,309.8c-0.7,0.1,5.9,19.8-2.3,28.3c-7.9,8.3-26.6,2.9-26.8,4.6c-0.2,1.6,17.2,1.9,23,12.3
			c3.6,6.5,1.6,14.4,3.1,14.6c1.6,0.2,1.4-10.2,8.3-16c7.8-6.5,19.6-2.9,20.1-5.4c0.4-2.1-7.4-3.4-13.8-9.2
			C547.3,328.6,547.9,309.7,547.3,309.8z"/>
		<path d="M544.3,370.6c-0.1,0-0.1,0-0.2,0c-1.4-0.2-1.4-1.8-1.5-4.1c-0.1-2.8-0.2-7.1-2.3-10.9c-3.8-6.9-13.4-9.1-18.5-10.3
			c-3.3-0.8-4.8-1.1-4.6-2.5c0.2-1.5,1.8-1.3,5.7-1c6.1,0.5,16.3,1.3,21.4-4.1c4-4.2,4.2-11.4,3.6-17.3c-0.6-2.8-0.9-5.3-1.1-7.1
			c0-0.2-0.1-0.4-0.1-0.6c-0.5-2.3-0.5-2.7-0.2-3.2l0.2-0.4l0.9-0.1l0.4,0.3c0.5,0.4,0.5,0.8,0.7,2.7c0,0.3,0.1,0.6,0.1,1
			c0.4,1.9,0.9,4.4,1.1,7.2c1.3,5.9,3.9,13.2,9.6,18.2c3.2,2.9,6.9,4.7,9.5,6c3,1.5,4.9,2.4,4.6,4.2c-0.4,1.8-2.6,1.8-5.8,1.9
			c-4.3,0.1-10.2,0.3-14.6,4.1c-4.2,3.5-5.6,8.8-6.5,12.3C546,369,545.6,370.6,544.3,370.6z M524.3,343.7c5.6,1.4,14,4.1,17.8,10.8
			c2.3,4.2,2.5,8.8,2.5,11.8c0,0,0,0.1,0,0.1c0-0.1,0.1-0.2,0.1-0.3c0.9-3.5,2.5-9.5,7.2-13.4c5-4.2,11.5-4.4,15.9-4.5
			c1.5,0,3.2-0.1,3.8-0.4c-0.4-0.5-2.1-1.3-3.4-2c-2.8-1.4-6.5-3.2-10-6.3c-3.8-3.4-6.4-7.8-8.1-12.1c-0.3,4.2-1.5,8.3-4.3,11.3
			C540.3,344.4,530.8,344.1,524.3,343.7z"/>
	</g>
	<g class="st4">
		<path class="st6" d="M274.8,217.2c-0.7,0.1,5.9,19.8-2.3,28.3c-7.9,8.3-26.6,2.9-26.8,4.6c-0.2,1.6,17.2,1.9,23,12.3
			c3.6,6.5,1.6,14.4,3.1,14.6c1.6,0.2,1.4-10.2,8.3-16c7.8-6.5,19.6-2.9,20.1-5.4c0.4-2.1-7.4-3.4-13.8-9.2
			C274.8,236,275.4,217.1,274.8,217.2z"/>
		<path d="M271.8,277.9c-0.1,0-0.1,0-0.2,0c-1.4-0.2-1.4-1.8-1.5-4.1c-0.1-2.8-0.2-7.1-2.3-10.9c-3.8-6.9-13.4-9.1-18.5-10.3
			c-3.3-0.8-4.8-1.1-4.6-2.5c0.2-1.5,1.8-1.3,5.7-1c6.1,0.5,16.3,1.3,21.4-4.1c4-4.2,4.2-11.4,3.6-17.3c-0.6-2.8-0.9-5.3-1.1-7.1
			c0-0.2-0.1-0.4-0.1-0.6c-0.5-2.3-0.5-2.7-0.2-3.2l0.2-0.4l0.9-0.1l0.4,0.3c0.5,0.4,0.5,0.8,0.7,2.7c0,0.3,0.1,0.6,0.1,1
			c0.4,1.9,0.9,4.4,1.1,7.2c1.3,5.9,3.9,13.2,9.6,18.2c3.2,2.9,6.9,4.7,9.5,6c3,1.5,4.9,2.4,4.6,4.2c-0.4,1.8-2.6,1.8-5.8,1.9
			c-4.3,0.1-10.2,0.3-14.6,4.1c-4.2,3.5-5.6,8.8-6.5,12.3C273.5,276.3,273.1,277.9,271.8,277.9z M251.8,251
			c5.6,1.4,14,4.1,17.8,10.8c2.3,4.2,2.5,8.8,2.5,11.8c0,0,0,0.1,0,0.1c0-0.1,0.1-0.2,0.1-0.3c0.9-3.5,2.5-9.5,7.2-13.4
			c5-4.2,11.5-4.4,15.9-4.5c1.5,0,3.2-0.1,3.8-0.4c-0.4-0.5-2.1-1.3-3.4-2c-2.8-1.4-6.5-3.2-10-6.3c-3.8-3.4-6.4-7.8-8.1-12.1
			c-0.3,4.2-1.5,8.3-4.3,11.3C267.8,251.8,258.3,251.5,251.8,251z"/>
	</g>
	<g class="st4">
		<path class="st6" d="M247.6,459.3c-0.7,0.1,5.9,19.8-2.3,28.3c-7.9,8.3-26.6,2.9-26.8,4.6c-0.2,1.6,17.2,1.9,23,12.3
			c3.6,6.5,1.6,14.4,3.1,14.6c1.6,0.2,1.4-10.2,8.3-16c7.8-6.5,19.6-2.9,20.1-5.4c0.4-2.1-7.4-3.4-13.8-9.2
			C247.6,478.1,248.2,459.2,247.6,459.3z"/>
		<path d="M244.6,520.1c-0.1,0-0.1,0-0.2,0c-1.4-0.2-1.4-1.8-1.5-4.1c-0.1-2.8-0.2-7.1-2.3-10.9c-3.8-6.9-13.4-9.1-18.5-10.3
			c-3.3-0.8-4.8-1.1-4.6-2.5c0.2-1.5,1.8-1.3,5.7-1c6.1,0.5,16.3,1.3,21.4-4.1c4-4.2,4.2-11.4,3.6-17.3c-0.6-2.8-0.9-5.3-1.1-7.1
			c0-0.2-0.1-0.4-0.1-0.6c-0.5-2.3-0.5-2.7-0.2-3.2l0.2-0.4l0.9-0.1l0.4,0.3c0.5,0.4,0.5,0.8,0.7,2.7c0,0.3,0.1,0.6,0.1,1
			c0.4,1.9,0.9,4.4,1.1,7.2c1.3,5.9,3.9,13.2,9.6,18.2c3.2,2.9,6.9,4.7,9.5,6c3,1.5,4.9,2.4,4.6,4.2c-0.4,1.8-2.6,1.8-5.8,1.9
			c-4.3,0.1-10.2,0.3-14.6,4.1c-4.2,3.5-5.6,8.8-6.5,12.3C246.3,518.5,245.9,520.1,244.6,520.1z M224.6,493.2
			c5.6,1.4,14,4.1,17.8,10.8c2.3,4.2,2.5,8.8,2.5,11.8c0,0,0,0.1,0,0.1c0-0.1,0.1-0.2,0.1-0.3c0.9-3.5,2.5-9.5,7.2-13.4
			c5-4.2,11.5-4.4,15.9-4.5c1.5,0,3.2-0.1,3.8-0.4c-0.4-0.5-2.1-1.3-3.4-2c-2.8-1.4-6.5-3.2-10-6.3c-3.8-3.4-6.4-7.8-8.1-12.1
			c-0.3,4.2-1.5,8.3-4.3,11.3C240.6,493.9,231.1,493.7,224.6,493.2z"/>
	</g>
	<g class="st4">
		<path d="M544.8,472.9c-2.7,0-5.8-0.5-8.9-2.2c-6.1-3.2-8.5-8.8-9.2-11l1.9-0.6c0.7,2,2.8,7,8.3,9.9c7.1,3.8,14.2,1,15.5,0.4
			l0.8,1.8C552.3,471.6,549,472.9,544.8,472.9z"/>
	</g>
	<g class="st4">
		<path d="M546.8,466.6c-2.3,0-5.3-0.4-8.4-2c-2.3-1.2-4.3-2.9-6-5l1.6-1.2c1.4,1.9,3.2,3.4,5.3,4.4c3.9,2,7.7,1.9,9.6,1.6l0.3,2
			C548.6,466.5,547.8,466.6,546.8,466.6z"/>
	</g>
	<g class="st4">
		<path d="M576.4,436.9l-2-0.2c0.2-1.6,0.1-3.2-0.2-4.8c-1.1-4.7-4.5-7.6-6.5-8.8l1.1-1.7c2.2,1.4,6.1,4.6,7.3,10.1
			C576.5,433.2,576.6,435,576.4,436.9z"/>
	</g>
	<g class="st4">
		<path d="M582.5,437.3l-1.9-0.7c0.6-1.6,1.7-5.9-0.4-10.6c-2.3-5.1-6.8-7.1-8.2-7.6l0.7-1.9c1.5,0.5,6.7,2.8,9.3,8.6
			C584.4,430.6,583.1,435.5,582.5,437.3z"/>
	</g>
	<g class="st4">
		<path d="M338,265c-13.2-2.8-23.4-11.6-26.8-23c-3.7-12.6,0.2-29.4,11.6-33.3c2.3-0.8,4.7-1,7.2-0.8c5.6-6.3,14-10.8,23-9
			c4.4,0.9,7.8,2.9,10.5,5.3c4.4-1,9-0.8,12-0.8c2.3,0.1,6,0.2,9.7,1.3c4.8-1.6,10.4-2.1,14.9-1.8c7.1,0.6,13,3.2,17.2,7.5
			c3-1.4,6.2-2.5,9.8-2.9c10.4-1.2,16.3,2.3,19.4,5.5c0.1,0.1,0.1,0.1,0.2,0.2c6.4-1.2,13.3-0.7,17.7,3.9c0.5,0.5,0.9,1,1.3,1.6
			c0.6-0.1,1.2-0.2,1.8-0.3c5.7-0.8,11.2,0.6,14.8,3.7c3,2.5,4.7,6.3,5,10.9c0.5,7.2-2.6,16-7.8,21.9c-6.4,7.4-15.2,9.2-19.8,9.7
			l-0.6-6c3.8-0.4,10.8-1.9,15.9-7.7c4.1-4.7,6.7-11.9,6.3-17.6c-0.2-3-1.2-5.3-2.9-6.8c-2.3-2-6.1-2.8-10-2.3c0,0-0.1,0-0.1,0
			c0.7,2.9,0.8,6.1-0.1,9c-0.2,0.6-4.1,14.4-10.7,12.8c-1.2-0.3-2.9-1.2-4.1-4.2c-1.7-4.3-1.8-11.2,1.5-16.2c1.2-1.9,2.9-3.5,5-4.7
			c-2.5-2.3-6.6-2.5-9.4-2.3c1.6,3.4,2.2,7.2,0.5,10.1c-0.1,0.2-0.4,0.6-0.8,1.1c-2.9,3-8.5,2.2-12.8,0.5c-2.5-1-6.6-3.2-6.6-6.7
			c-0.1-4.1,5.6-7.1,9-8.5c0,0,0.1,0,0.1,0c-2.5-1.4-6.2-2.5-11.9-1.8c-2.4,0.3-4.7,1-6.7,1.8c1.2,2.2,2,4.8,1,7.5
			c-1.5,4.1-6.9,6.2-11.4,6.5c-3.5,0.2-5.8-0.7-6.8-2.6c-0.7-1.4-0.6-3.1,0.5-5.1c1.2-2.3,4-5.4,7.7-8c-3.1-2.7-7.3-4.3-12.3-4.7
			c-2.1-0.2-4.4-0.1-6.5,0.2c0.5,0.5,1,1,1.5,1.6c3.5,4.3,4.6,8.7,3,12.3c-1.9,4.2-6.8,6-10.5,5.9c-3.6-0.1-7.4-2.1-10-5.2
			c-2.4-2.8-3.5-6-3.1-8.9c0.3-2,1.3-3.7,2.7-5.2c-0.5,0-1,0-1.4,0c-1.9-0.1-4.5-0.1-7.2,0.1c0.5,0.7,0.9,1.4,1.3,2.1
			c1.9,3.4,5.4,9.6,2,15.3c-2.8,4.7-9.6,7-14.5,4.8c-2.6-1.2-4.5-3.4-5.6-6.6c-1.4-4.3-1-9.6,1.1-13.4c1.2-2.1,2.7-3.7,4.6-4.9
			c-1.5-0.9-3.2-1.6-5.1-2c-5.8-1.1-11.2,1.4-15.2,5c2.9,1.4,5.5,3.5,7.4,6.1c2.9,4,6.5,12.6,1.5,18.9c-4.4,5.5-13.6,6.8-19,2.5
			c-8.1-6.3-2.1-20.4-1.4-22c0.2-0.4,0.4-0.9,0.6-1.3c-0.3,0.1-0.7,0.2-1,0.3c-7.7,2.7-10.6,16.4-7.8,25.9
			c2.7,9.3,11.2,16.5,22.2,18.8L338,265z M462.5,226.3c-1.1,0.7-2,1.6-2.7,2.6c-2.2,3.4-1.8,8.1-1,10.4c1.1-1.4,2.6-4.2,3.6-7.7
			C462.8,230,462.8,228.1,462.5,226.3z M332.5,214.5c-0.7,1.1-1.4,2.2-1.8,3.3c-1.3,2.9-4.2,11.8-0.4,14.8c2.6,2,8.1,1.7,10.6-1.5
			c3.6-4.5-1.6-11.6-1.6-11.7C337.6,217.1,335.1,215.4,332.5,214.5z M361.7,211c-1.8,0.8-3.2,1.9-4.1,3.5c-1.3,2.4-1.6,5.9-0.7,8.6
			c0.4,1.1,1,2.4,2.3,3c2.1,1,5.6-0.2,6.9-2.4c1.6-2.6-0.6-6.6-2.1-9.2C363.5,213.5,362.7,212.2,361.7,211z M437,223.6
			c1,0.7,3.1,1.7,5.5,2.2c1.9,0.4,2.9,0.1,3.2,0c0.5-1-0.1-3.4-1.5-5.8C440.7,221.1,438.1,222.6,437,223.6z M415.8,218.2
			c-2.5,1.8-4.5,3.7-5.5,5.1c1.1-0.1,2.6-0.3,4-0.9c1.4-0.6,2-1.3,2.2-1.7C416.5,220.4,416.7,219.7,415.8,218.2z M385.2,211
			c-3,1.2-5.1,2.8-5.4,4.5c-0.2,1.1,0.5,2.8,1.7,4.2c1.6,1.9,3.7,3,5.6,3.1c1.8,0.1,4.1-0.8,4.8-2.3c0.6-1.4-0.2-3.7-2.1-6.1
			C388.6,212.8,387,211.7,385.2,211z"/>
	</g>
</g>
<g id="face_K" class="st0">
	<g class="st4">
		<path class="st7" d="M436.7,356.6c-6.3,16.2-23,24.7-37.9,24.9c-2.1,0-21-0.1-32.9-15.7c-1.2-1.6-8.8-11.9-7.9-26
			c1.3-20.7,20.1-41.6,40.8-41c13.5,0.4,22.8,9.8,25.9,12.9C426.8,313.7,445.7,333.6,436.7,356.6z"/>
		<path d="M398.7,382.5c-2.9,0-21.7-0.6-33.5-16.1c-2.1-2.8-9-12.9-8.1-26.7c0.6-10.3,5.5-20.9,13.4-29.1
			c8.1-8.4,18.5-13.1,28.4-12.8c14,0.4,23.4,10,26.6,13.2c2.2,2.3,21.3,22.6,12.2,46c-6.8,17.4-24.4,25.4-38.8,25.5
			C398.8,382.5,398.8,382.5,398.7,382.5z M398.1,299.7c-18.9,0-37.7,19.2-39,40.1c-0.8,13.1,5.7,22.7,7.7,25.4
			c11.4,15.1,30,15.3,32,15.3c13.7-0.1,30.5-7.7,36.9-24.2c8.6-22.2-9.7-41.7-11.8-43.9c-3-3-12-12.3-25.2-12.6
			C398.6,299.7,398.4,299.7,398.1,299.7z"/>
	</g>
	<g class="st4">
		<path class="st8" d="M342.6,385.4c12.9,6.8,24.8,10.2,34.3,12c1.7,0.3,4,0.7,7,1.1c15.7,2.1,27.7,0.6,36.3-0.5
			c12.9-1.6,23.6-4.5,31.3-7c-0.8,4.6-4,18.8-16.8,30.4c-13.6,12.4-29.1,13.6-33.4,13.9c-17.3,1.1-29.7-6.2-35.3-9.7
			c-6.4-3.9-16-9.8-20.8-21.7C342.1,396.4,342.2,389.6,342.6,385.4z"/>
		<path d="M397.7,436.5c-16.1,0-27.8-7.1-32.3-9.9c-6.5-4-16.3-10-21.2-22.2c-2.4-5.9-3.3-12.3-2.6-19l0.1-1.5l1.3,0.7
			c10.9,5.7,22.4,9.7,34.1,11.9c2.3,0.4,4.6,0.8,6.9,1.1c15.5,2,27.4,0.6,36-0.5c10.5-1.3,21-3.6,31.1-6.9l1.6-0.5l-0.3,1.6
			c-1.3,6.9-5.1,20.1-17.1,31c-9.3,8.4-21,13.3-34,14.1C400.1,436.4,398.9,436.5,397.7,436.5z M343.5,387
			c-0.4,5.8,0.5,11.4,2.6,16.6c4.7,11.6,14.1,17.4,20.4,21.3c5.2,3.2,17.4,10.7,34.7,9.5c12.5-0.8,23.9-5.5,32.8-13.6
			c10.6-9.7,14.7-21.2,16.2-28.2c-9.7,3.1-19.7,5.2-29.8,6.5c-8.7,1.1-20.7,2.6-36.5,0.5c-2.4-0.3-4.7-0.7-7-1.1
			C365.3,396.2,354.2,392.4,343.5,387z"/>
	</g>
	<g class="st4">
		<path d="M455.7,381.1c-4.7,0-8.5-3.8-8.5-8.5c0-5.7,4.6-10.3,10.3-10.3c7,0,12.7,5.7,12.7,12.7h-2c0-5.9-4.8-10.7-10.7-10.7
			c-4.6,0-8.3,3.7-8.3,8.3c0,3.6,2.9,6.5,6.5,6.5c2.7,0,5-2.2,5-5c0-2.1-1.7-3.8-3.8-3.8c-1.5,0-2.8,1.2-2.8,2.8
			c0.1-1.3,1.2-2.3,2.6-2.3c1.6,0,3,1.3,3,3c0,1.9-1.5,3.5-3.5,3.5c-2.2,0-4.1-1.8-4.1-4.1c0-2.7,2.2-4.8,4.8-4.8
			c3.2,0,5.8,2.6,5.8,5.8C462.7,378,459.6,381.1,455.7,381.1z M454.1,373.4c0.1,1,1,1.8,2.1,1.8c0.8,0,1.5-0.7,1.5-1.5
			c0-0.5-0.4-1-1-1c-0.3,0-0.6,0.3-0.6,0.6H454.1z"/>
	</g>
	<g class="st4">
		<path d="M342,377.9c-3.8,0-7-3.1-7-7c0-3.2,2.6-5.8,5.8-5.8c2.7,0,4.8,2.2,4.8,4.8c0,2.2-1.8,4.1-4.1,4.1c-1.9,0-3.4-1.5-3.4-3.4
			c0-1.6,1.3-3,3-3c1.3,0,2.4,1,2.6,2.3c0-1.5-1.3-2.8-2.8-2.8c-2.1,0-3.8,1.7-3.8,3.8c0,2.7,2.2,5,5,5c3.6,0,6.5-2.9,6.5-6.5
			c0-4.6-3.7-8.3-8.3-8.3c-5.9,0-10.7,4.8-10.7,10.7h-2c0-7,5.7-12.7,12.7-12.7c5.7,0,10.3,4.6,10.3,10.3
			C350.5,374.1,346.7,377.9,342,377.9z M341.1,369.6c-0.5,0-1,0.4-1,1c0,0.8,0.6,1.4,1.4,1.4c1.1,0,1.9-0.8,2.1-1.8h-2
			C341.7,369.9,341.4,369.6,341.1,369.6z"/>
	</g>
	<g class="st4">
		<path d="M415.4,342.4c0.2-1,2-9.4-4.2-14.6c-4.8-4-10.9-3.3-12.8-3.1c-2,0.2-10.1,1.4-13.3,7.8c-2.4,4.7-0.7,9.3,0.3,12
			c1,2.8,3.5,9.8,10.3,11.5c7.3,1.8,13.6-4.2,14.7-5.2C411.4,349.8,414.3,347,415.4,342.4z"/>
		<path d="M398.5,357.3c-1,0-2-0.1-3-0.4c-7.3-1.8-10-9.3-11-12.1c-1-2.7-2.8-7.7-0.2-12.8c3.4-6.7,11.7-8.1,14.1-8.4
			c5.6-0.6,10.1,0.5,13.5,3.4c6.5,5.4,4.9,13.9,4.5,15.6v0c-0.8,3.3-2.5,6.3-5.3,8.8C408.6,353.8,404,357.3,398.5,357.3z
			 M401.2,325.5c-0.8,0-1.7,0.1-2.6,0.2c-2.2,0.2-9.6,1.5-12.5,7.3c-2.2,4.3-0.6,8.6,0.3,11.2c1,2.8,3.3,9.3,9.6,10.8
			c6.1,1.5,11.7-3,13.8-5c0.9-0.9,3.7-3.5,4.7-7.8v0c0.3-1.5,1.7-8.9-3.8-13.6C408.2,326.6,405,325.5,401.2,325.5z"/>
	</g>
</g>
</svg>
