<?xml version="1.0" encoding="utf-8"?>
<!-- Generator: Adobe Illustrator 23.0.0, SVG Export Plug-In . SVG Version: 6.00 Build 0)  -->
<svg version="1.1" xmlns="http://www.w3.org/2000/svg" xmlns:xlink="http://www.w3.org/1999/xlink" x="0px" y="0px"
	 viewBox="0 0 450 450" style="enable-background:new 0 0 450 450;" xml:space="preserve">
<style type="text/css">
	.st0{display:none;}
	.st1{fill:#A3C4F3;}
	.st2{fill:#DA85B0;}
	.st3{fill:#CFBAF0;}
</style>
<g id="Layer_1" class="st0">
</g>
<g id="Layer_2">
	<g>
		<path class="st1" d="M361.8,405.1c-1.9-0.8-1.9-2.8-2.9-2.8c-1.2,0-3,3-2.3,5.5c0.7,2.9,4.2,4,5.5,4.4c1.4,0.4,2,0.3,2.3,0.2
			c1.5-0.5,2.3-2.5,2.1-4.1c0-0.3-0.2-1.7-1.3-2.5C364.1,404.9,363.2,405.7,361.8,405.1z"/>
		<path d="M363.7,413c-0.4,0-1-0.1-1.7-0.3c-1.4-0.4-5.1-1.6-5.9-4.8c-0.5-1.9,0.3-4,1.2-5.2c0.5-0.7,1.1-1,1.6-1
			c0.7,0,1.1,0.6,1.4,1.2c0.4,0.6,0.8,1.3,1.6,1.6v0c0.6,0.3,1.1,0.2,1.6,0.2c0.6,0,1.3,0,2,0.5c0.8,0.6,1.3,1.6,1.5,2.9
			c0.2,1.8-0.7,4-2.5,4.6C364.4,413,364.1,413,363.7,413z M358.9,402.8c-0.2,0-0.5,0.2-0.9,0.6c-0.8,1-1.4,2.8-1,4.3
			c0.6,2.7,3.9,3.7,5.2,4c1.3,0.4,1.8,0.2,2,0.2c1.3-0.5,2-2.2,1.8-3.6c-0.1-1-0.5-1.8-1.1-2.2c-0.5-0.3-0.9-0.3-1.4-0.3
			c-0.5,0-1.2,0-2-0.3c-1.2-0.5-1.7-1.4-2.1-2C359.2,403.1,359.1,402.8,358.9,402.8C358.9,402.8,358.9,402.8,358.9,402.8z"/>
	</g>
	<g>
		<path class="st1" d="M336.3,381.1c-2.3-0.5-5.1,1.3-5.6,3.9c-0.6,2.9,2.1,5.1,2.5,5.4c2.1,1.6,5.7,2.4,7.1,0.8
			c1.3-1.4,0.3-4-0.2-5.4C339.5,384.1,338.5,381.6,336.3,381.1z"/>
		<path d="M337.8,392.5c-1.7,0-3.6-0.7-5-1.8c-1-0.8-3.3-3-2.7-5.9c0.3-1.4,1.2-2.6,2.4-3.4c1.2-0.8,2.6-1.1,3.8-0.8
			c2.5,0.5,3.5,3.2,4.1,5c0.5,1.5,1.6,4.2,0.1,5.9C340,392.2,339,392.5,337.8,392.5z M335.5,381.5c-0.8,0-1.6,0.3-2.4,0.8
			c-1,0.7-1.8,1.7-2,2.8c-0.5,2.3,1.5,4.2,2.3,4.9c1.9,1.5,5.2,2.2,6.4,0.8c1.1-1.2,0.1-3.7-0.3-4.9c-0.6-1.6-1.4-3.9-3.4-4.3l0,0
			C336,381.6,335.7,381.5,335.5,381.5z"/>
	</g>
	<g>
		<path class="st1" d="M345.4,390.7c-1.2,1-1.8,2.8-1.6,4.4c0.3,1.6,1.4,2.5,3.6,4.3c1.8,1.4,3,2.4,5,2.7c1,0.1,2.5,0.4,3.6-0.6
			c1.7-1.4,1.3-4.6,0.4-6.6c-0.7-1.5-1.8-2.4-2.2-2.8C352.1,390.5,347.9,388.7,345.4,390.7z"/>
		<path d="M353.8,402.7c-0.6,0-1.1-0.1-1.5-0.1c-2.1-0.3-3.5-1.4-5.2-2.8c-2.3-1.8-3.5-2.8-3.8-4.6c-0.3-1.8,0.4-3.7,1.8-4.8
			c2.7-2.2,7.2-0.3,9.4,1.5c0.4,0.4,1.6,1.3,2.4,2.9c0.9,1.9,1.5,5.5-0.5,7.2C355.6,402.5,354.7,402.7,353.8,402.7z M348.2,390.4
			c-0.9,0-1.8,0.2-2.4,0.8l0,0c-1.1,0.9-1.6,2.5-1.4,3.9c0.2,1.4,1.2,2.2,3.4,4c1.8,1.5,3,2.3,4.7,2.6c0.9,0.1,2.3,0.3,3.2-0.5
			c1.5-1.2,1-4.2,0.2-6c-0.7-1.4-1.7-2.2-2.1-2.6C352.4,391.4,350.1,390.4,348.2,390.4z"/>
	</g>
	<g>
		<path class="st1" d="M123.7,377.2c-0.3-1.7-2.3-2.5-3.1-2.9c-2-0.8-5.4-1.2-7.5,0.9c-1.2,1.2-1.5,2.7-1.5,3.2
			c0,0.2-0.4,3.1,1.3,4.3c0.8,0.5,2.6,0.1,6.1-0.8c2.6-0.7,3.4-1,4-1.8C123.1,379.7,124,378.5,123.7,377.2z"/>
		<path d="M113.7,383.3c-0.5,0-1-0.1-1.3-0.3c-1.9-1.3-1.5-4.4-1.5-4.7c0.1-0.6,0.4-2.2,1.7-3.4c2.4-2.4,6.2-1.8,8.1-1
			c0.9,0.4,3,1.3,3.4,3.2l0,0c0.3,1.5-0.6,2.8-0.9,3.2c-0.8,0.9-1.7,1.3-4.3,2C116.5,382.9,114.9,383.3,113.7,383.3z M117.2,374.1
			c-1.3,0-2.7,0.4-3.8,1.4c-1.1,1-1.3,2.4-1.4,2.9c0,0.1-0.4,2.8,1.1,3.8c0.6,0.4,2.7-0.1,5.6-0.9c2.7-0.7,3.3-1,3.8-1.6
			c0.2-0.3,1-1.3,0.7-2.4l0,0c-0.3-1.5-2-2.2-2.8-2.5C119.6,374.4,118.4,374.1,117.2,374.1z"/>
	</g>
	<g>
		<path class="st1" d="M126.5,367.6c-1.4-0.4-3.8-0.4-4.5,1c-0.9,1.6,1.5,4,1.8,4.3c0.8,0.8,2,2,3.5,1.7c1.5-0.3,2.7-2.1,2.5-3.7
			C129.7,368.6,127,367.7,126.5,367.6z"/>
		<path d="M126.9,375.1c-1.5,0-2.7-1.2-3.4-1.9c-0.9-0.9-2.8-3.1-1.9-4.9c0.9-1.7,3.6-1.7,5.1-1.2l0,0c0.6,0.2,3.5,1.1,3.7,3.7
			c0.2,1.9-1.2,3.9-2.9,4.2C127.3,375.1,127.1,375.1,126.9,375.1z M124.8,367.9c-1,0-2,0.3-2.3,0.9c-0.5,1,0.5,2.6,1.7,3.7
			c0.7,0.7,1.8,1.8,3.1,1.6c1.2-0.3,2.3-1.8,2.1-3.2c-0.2-2-2.5-2.7-3-2.9h0C125.9,367.9,125.4,367.9,124.8,367.9z"/>
	</g>
	<g>
		<path class="st1" d="M124.9,352.7c-1.4-1-3.8-1.8-5.4-0.7c-1.9,1.3-1.2,4.6-0.8,6.4c0.4,2.1,0.9,4.5,3,5.4
			c1.9,0.8,4.5-0.1,5.6-1.8c1.6-2.3,0.2-5.3-0.5-6.7C126.5,354.5,126,353.5,124.9,352.7z"/>
		<path d="M123.2,364.6c-0.6,0-1.2-0.1-1.7-0.3c-2.3-1-2.9-3.6-3.3-5.7c-0.4-1.9-1.1-5.4,1-6.9c1.6-1.2,4.3-0.5,6,0.7h0
			c1.2,0.9,1.7,2,2.1,2.8c0.7,1.4,2.2,4.6,0.4,7.2C126.7,363.7,124.9,364.6,123.2,364.6z M121.3,352c-0.6,0-1.1,0.1-1.5,0.4
			c-1.6,1.1-1,4.2-0.6,5.9c0.4,2,0.9,4.3,2.7,5c1.6,0.7,4-0.1,5-1.6c1.5-2.1,0.1-4.9-0.5-6.2c-0.4-0.7-0.8-1.7-1.8-2.4h0
			C123.8,352.5,122.5,352,121.3,352z"/>
	</g>
	<g>
		<path class="st1" d="M286.3,396.9c-0.6-0.1-5.8-1.1-6.4-4.2c0-0.1-0.3-1.2,0.3-2.3c0.8-1.5,2.6-1.9,3.9-1.8c1,0,1.9,0.6,3.7,1.6
			c1.4,0.8,1.9,1.3,2.2,1.6c0.5,0.5,1.1,1.2,1.3,2.3c0.1,0.4,0.2,1.5-0.4,2.2C289.9,397.6,287.6,397.2,286.3,396.9z"/>
		<path d="M288.6,397.7c-0.9,0-1.8-0.2-2.4-0.3l0.1-0.5l-0.1,0.5c-1.4-0.3-6.2-1.4-6.8-4.6c-0.1-0.5-0.2-1.6,0.4-2.6
			c0.9-1.6,2.9-2.2,4.3-2.1c1.1,0,2.1,0.6,4,1.7c1.4,0.8,2,1.3,2.3,1.7c0.5,0.6,1.2,1.3,1.4,2.6c0.1,0.4,0.3,1.7-0.5,2.6
			C290.7,397.5,289.6,397.7,288.6,397.7z M283.9,389c-0.9,0-2.6,0.3-3.3,1.6c-0.4,0.8-0.3,1.6-0.3,1.9c0.5,2.7,5.1,3.7,6,3.9h0
			c1.2,0.2,3.4,0.6,4.2-0.4c0.5-0.6,0.3-1.5,0.3-1.9c-0.2-0.9-0.7-1.5-1.2-2.1c-0.3-0.3-0.8-0.8-2.1-1.5c-1.8-1-2.6-1.5-3.5-1.6
			C284,389,283.9,389,283.9,389z"/>
	</g>
	<g>
		<path class="st1" d="M264.8,367.7c1,0.4,2.3,0.2,3.1-0.5c1.8-1.6,0.5-5.3-0.3-6.9c-1.3-2.7-3.5-3.9-4.3-4.3
			c-0.6-0.3-4.5-2.2-6.1-0.6c-1.2,1.2-0.7,3.7,0.4,5.3c1,1.4,1.9,0.9,3.5,2.3C263.4,365,263,367,264.8,367.7z"/>
		<path d="M265.9,368.4c-0.4,0-0.8-0.1-1.2-0.2l0,0c-1.2-0.4-1.6-1.3-2-2.2c-0.4-0.8-0.8-1.7-1.9-2.6c-0.7-0.6-1.3-0.9-1.8-1.1
			c-0.6-0.3-1.2-0.5-1.8-1.3c-1.3-1.7-1.7-4.5-0.4-5.9c1.6-1.7,4.9-0.4,6.7,0.5c1.1,0.6,3.2,1.9,4.5,4.5c1,2,2.1,5.8,0.2,7.5
			C267.6,368.1,266.8,368.4,265.9,368.4z M265,367.2c0.9,0.3,2,0.1,2.6-0.4c1.4-1.2,0.5-4.4-0.5-6.3c-1.2-2.3-3.1-3.5-4.1-4
			c-2.6-1.3-4.7-1.5-5.5-0.7c-1,1-0.5,3.3,0.4,4.6c0.5,0.6,0.9,0.8,1.4,1c0.5,0.2,1.2,0.5,2.1,1.3c1.2,1,1.7,2.1,2.1,2.9
			C263.9,366.4,264.2,366.9,265,367.2L265,367.2z"/>
	</g>
	<g>
		<path class="st2" d="M132.6,234.7c-7.6-3.4-20.3,6.8-26.5,16c-4.9,7.3-2.7,10.2-8.6,25.5c-5.7,14.8-8.7,22.3-13.3,25.7
			c-12.8,9.4-26.6-1.7-38.4,7.1c-8.7,6.5-10,19.2-11.5,34c-1.5,14.7,1.1,22.9-4.7,26.6c-5.3,3.3-11.4-1-18.9,3.6
			c-3.2,1.9-7.4,6-6.7,9.8c1.1,5.4,11.9,8.1,19.1,8.2c0.8,0,15.3-0.1,23.6-10.4c4.7-5.9,3.1-9.7,6.4-31c2.2-13.9,3.3-21,6.3-23.9
			c9.1-9,21.4-0.3,37.6-8.6c9.3-4.8,19-15.3,21.7-27.6c2.1-9.6-0.7-17.4,5.6-22.6c4-3.3,7-1.7,10.5-4.9
			C142.1,255.3,140.3,238.1,132.6,234.7z"/>
		<path d="M23.2,391.6C23.1,391.6,23.1,391.6,23.2,391.6c-7.3-0.1-18.5-2.8-19.7-8.6c-0.9-4.3,3.9-8.5,6.9-10.3
			c4.2-2.5,8-2.4,11.3-2.3c2.8,0.1,5.3,0.2,7.6-1.3c3.7-2.3,3.8-6.7,3.9-13.9c0-3.5,0.1-7.5,0.6-12.3c1.5-14.8,2.8-27.7,11.7-34.3
			c5.9-4.4,12.5-3.9,18.8-3.4c6.5,0.5,13.2,1,19.6-3.7c4.4-3.2,7.2-10.1,13.1-25.5c2.7-7,3.7-11.4,4.5-14.9c0.9-4,1.5-6.7,4.2-10.7
			c6-8.9,19.1-19.8,27.2-16.2l0,0c3.4,1.5,5.9,5.6,6.8,11c1.1,6.8-0.6,13.5-4.3,17c-1.8,1.7-3.6,2.1-5.3,2.6
			c-1.6,0.4-3.3,0.8-5.2,2.4c-4,3.3-4.2,7.6-4.4,13.1c-0.1,2.8-0.3,6-1,9.3c-2.9,13-13.1,23.4-22,28c-8,4.1-15.1,4.1-21.4,4.1
			c-6.3,0-11.7,0-16.1,4.4c-3,2.9-4.1,10.3-6.2,23.7c-1.1,7.1-1.7,12.3-2.1,16.1c-0.9,7.8-1.2,11.1-4.4,15.1
			C38.8,391.4,24.3,391.6,23.2,391.6z M19.5,371.3c-2.7,0-5.5,0.3-8.6,2.2c-3.6,2.2-7.1,6-6.4,9.2c1,5,11.5,7.8,18.6,7.8
			c0.6,0,15,0,23.2-10.2c3.1-3.8,3.4-6.7,4.2-14.6c0.4-3.8,1-9.1,2.1-16.2c2.3-14.6,3.4-21.2,6.5-24.2c4.8-4.7,10.3-4.7,16.8-4.7
			c6.1,0,13.1,0,20.9-4c8.7-4.5,18.7-14.6,21.5-27.3c0.7-3.2,0.9-6.2,1-9.1c0.3-5.5,0.5-10.3,4.8-13.8c2.1-1.7,3.9-2.2,5.6-2.6
			c1.6-0.4,3.2-0.8,4.8-2.3c4-3.7,4.9-10.8,4-16.1c-0.8-5.1-3.2-8.9-6.2-10.3c-7.6-3.4-20.1,7.3-25.9,15.9c-2.6,3.8-3.2,6.4-4,10.4
			c-0.8,3.5-1.8,7.9-4.5,15c-5.6,14.4-8.6,22.4-13.4,25.9c-6.7,4.9-13.6,4.4-20.3,3.8c-6.4-0.5-12.5-1-18.1,3.3
			c-8.5,6.4-9.8,19-11.3,33.6c-0.5,4.7-0.5,8.7-0.6,12.2c-0.1,7.3-0.2,12.1-4.4,14.7c-2.6,1.6-5.3,1.5-8.2,1.4
			C20.9,371.4,20.2,371.3,19.5,371.3z"/>
	</g>
	<g>
		<path class="st2" d="M312.9,245.7c7.5-3.6,20.5,6.2,27,15.3c5.1,7.1,3,10.1,9.4,25.2c6.2,14.7,9.3,22.1,14,25.3
			c13.1,9,26.6-2.5,38.6,6c8.9,6.3,10.5,18.9,12.5,33.6c1.9,14.7-0.5,22.9,5.5,26.4c5.4,3.2,11.4-1.3,19,3c3.2,1.8,7.6,5.7,6.9,9.6
			c-1,5.4-11.6,8.5-18.9,8.8c-0.8,0-15.3,0.4-23.9-9.7c-4.9-5.7-3.4-9.6-7.3-30.8c-2.6-13.9-3.9-20.9-7-23.8
			c-9.3-8.7-21.4,0.3-37.8-7.6c-9.4-4.5-19.4-14.7-22.5-27c-2.4-9.5,0.2-17.5-6.3-22.5c-4.1-3.2-7.1-1.5-10.6-4.6
			C304,266.6,305.3,249.4,312.9,245.7z"/>
		<path d="M426.4,399.4c-2.9,0-15.8-0.5-23.7-9.9c-3.4-3.9-3.8-7.2-4.9-15c-0.5-3.8-1.3-9-2.6-16.1c-2.5-13.3-3.8-20.6-6.9-23.5
			c-4.6-4.3-10-4.1-16.3-4c-6.2,0.2-13.3,0.4-21.5-3.5c-9-4.3-19.6-14.4-22.8-27.3c-0.8-3.3-1.1-6.5-1.3-9.3
			c-0.4-5.5-0.7-9.8-4.8-13c-1.9-1.5-3.6-1.9-5.3-2.2c-1.7-0.4-3.5-0.8-5.4-2.4c-3.9-3.4-5.8-10-4.8-16.9c0.7-5.4,3.2-9.6,6.5-11.2
			l0,0c7.9-3.8,21.4,6.7,27.6,15.4c2.8,3.9,3.5,6.6,4.5,10.6c0.9,3.5,2,7.8,4.9,14.7c6.4,15.2,9.4,22,13.8,25.1
			c6.5,4.5,13.2,3.8,19.7,3.1c6.3-0.7,12.8-1.4,18.9,2.9c9.1,6.4,10.7,19.2,12.7,34c0.6,4.8,0.8,8.7,0.9,12.3
			c0.3,7.2,0.5,11.5,4.3,13.8c2.4,1.4,4.8,1.2,7.7,1.1c3.3-0.2,7.1-0.4,11.4,2c3,1.7,7.9,5.8,7.2,10.1c-1,5.8-12.2,8.9-19.3,9.2
			C426.8,399.4,426.7,399.4,426.4,399.4z M375.7,330c4.9,0,9.3,0.6,13.3,4.3c3.3,3.1,4.7,10.5,7.2,24c1.3,7.1,2,12.3,2.6,16.1
			c1.1,7.8,1.5,10.7,4.7,14.4c8.5,10,22.9,9.6,23.5,9.5c7.1-0.3,17.5-3.3,18.4-8.3c0.6-3.3-3.1-7-6.7-9.1c-4-2.3-7.5-2.1-10.8-1.9
			c-2.9,0.2-5.6,0.4-8.2-1.2c-4.3-2.5-4.5-7.3-4.8-14.6c-0.1-3.5-0.3-7.5-0.9-12.2c-1.9-14.6-3.6-27.1-12.3-33.3
			c-5.8-4.1-11.8-3.4-18.2-2.7c-6.7,0.7-13.5,1.4-20.4-3.3c-4.9-3.4-8.2-11.2-14.2-25.5c-2.9-7-4.1-11.4-5-14.9
			c-1-3.9-1.7-6.5-4.3-10.2c-6-8.4-18.9-18.7-26.4-15.1c-3,1.4-5.2,5.3-5.9,10.5c-0.7,5.4,0.4,12.4,4.5,16c1.7,1.5,3.3,1.8,4.9,2.2
			c1.8,0.4,3.6,0.8,5.7,2.4c4.4,3.4,4.8,8.2,5.2,13.7c0.2,2.9,0.4,5.9,1.3,9.1c3.2,12.6,13.4,22.5,22.2,26.7
			c7.9,3.8,14.9,3.6,21,3.4C373.3,330,374.5,330,375.7,330z"/>
	</g>
	<g>
		<path class="st2" d="M294.6,297.4H144.5c-17.3,0-31.4-14.1-31.4-31.4c0-14.6,0-29.3,0-43.9c0-35.4,0-70.8,0-106.2
			c0-2.1,0.2-13.2,9.2-22.2c5.7-5.7,13.5-9.2,22.2-9.2c44.9,0,89.8,0,134.7,0c5.1,0,10.3,0,15.4,0c2.1,0,13.2,0.2,22.2,9.2
			c5.7,5.7,9.2,13.5,9.2,22.2V266C326,283.3,311.9,297.4,294.6,297.4z"/>
		<path d="M294.6,297.9H144.5c-17.6,0-31.9-14.3-31.9-31.9V115.9c0-3.1,0.7-13.9,9.3-22.6c6-6,14-9.3,22.6-9.3h150.1
			c3.1,0,13.9,0.7,22.6,9.3c6,6,9.3,14,9.3,22.6V266C326.5,283.6,312.2,297.9,294.6,297.9z M144.5,85c-8.3,0-16,3.2-21.9,9.1
			c-8.4,8.4-9.1,18.8-9.1,21.9V266c0,17,13.9,30.9,30.9,30.9h150.1c17,0,30.9-13.9,30.9-30.9V115.9c0-8.3-3.2-16-9.1-21.9
			c-8.4-8.4-18.9-9.1-21.9-9.1H144.5z"/>
	</g>
	<g>
		<path class="st2" d="M153.1,270.7c-6.9,2.3-8.9,8-22.8,40.7c-10.2,23.9-11.8,27-11.6,33.9c0.5,15.9,9.5,21.5,5.9,28.6
			c-4.8,9.2-29.7,0.7-39.8,14.4c-5.7,7.7-4.8,20.8-0.3,23.3c1.7,0.9,3.9,0.3,7.8-1c5.7-1.9,9.1-4.3,11.9-6c7.3-4.4,8.4-2.3,20.3-7.2
			c10.6-4.4,16.8-7,20.3-13.5c3.3-6.1,3.2-13.5,3.1-14.7c0-0.6,0.2-3.2-1.1-7.2c-1.9-5.7-5.7-8-6.2-15.8
			c-0.8-12.1,6.7-22.7,12.3-30.4c6-8.4,8.8-8.7,14.7-18.3c4.9-8,9-14.6,6.7-19.9C171.7,271.4,161.1,268,153.1,270.7z"/>
		<path d="M86.3,412.5c-0.8,0-1.5-0.2-2.1-0.5c-1.6-0.9-2.8-2.9-3.4-5.8c-1.1-4.9-0.4-12.7,3.6-18.2c5.6-7.7,15.7-8.6,24.5-9.3
			c7.1-0.6,13.2-1.1,15.2-5c1.7-3.3,0.4-6.4-1.5-10.6c-1.9-4.3-4.2-9.7-4.5-17.7c-0.2-6.5,1.1-9.5,9.6-29.4l4.8-11.3
			c11.6-27.4,13.7-32.3,20.3-34.5l0,0c8.3-2.8,19.2,0.8,22,7.2c2.4,5.6-1.6,12.1-6.7,20.4c-3.3,5.4-5.7,7.9-8.2,10.5
			c-1.9,2-3.9,4.1-6.6,7.8c-5.5,7.6-13,18.1-12.2,30.1c0.3,4.7,1.8,7.3,3.4,10.1c1,1.7,2,3.4,2.7,5.6c1.2,3.5,1.1,6,1.1,7
			c0,0.1,0,0.3,0,0.3c0.1,2,0,9-3.2,14.9c-3.6,6.7-10,9.3-20.6,13.7c-5.7,2.3-8.9,3.1-11.5,3.7c-2.9,0.7-5,1.2-8.7,3.5
			c-0.4,0.3-0.9,0.6-1.4,0.9c-2.6,1.6-5.8,3.6-10.7,5.2C89.8,411.9,87.9,412.5,86.3,412.5z M159.1,270.2c-2,0-4,0.3-5.9,0.9l0,0
			c-6.2,2.1-8.3,6.9-19.7,34l-4.8,11.3c-8.4,19.6-9.7,22.7-9.5,28.9c0.2,7.8,2.5,13.1,4.4,17.3c1.9,4.3,3.4,7.7,1.4,11.5
			c-2.3,4.4-8.7,5-16,5.6c-8.6,0.7-18.4,1.6-23.8,8.9c-3.8,5.2-4.4,12.7-3.4,17.4c0.6,2.6,1.6,4.4,2.9,5.1c1.5,0.8,3.5,0.2,7.4-1
			c4.8-1.5,7.9-3.5,10.4-5.1c0.5-0.3,0.9-0.6,1.4-0.9c3.9-2.4,6.1-2.9,9-3.6c2.6-0.6,5.8-1.4,11.4-3.7c10.7-4.5,16.6-6.9,20.1-13.3
			c3.1-5.7,3.1-12.5,3.1-14.4c0-0.1,0-0.2,0-0.4c0-1,0.1-3.3-1.1-6.7c-0.7-2.1-1.7-3.8-2.6-5.4c-1.6-2.7-3.3-5.6-3.6-10.5
			c-0.8-12.3,6.8-23,12.4-30.7c2.7-3.7,4.7-5.9,6.7-7.9c2.5-2.6,4.8-5,8.1-10.3c4.9-8,8.8-14.3,6.6-19.5
			C172,273.2,165.6,270.2,159.1,270.2z"/>
	</g>
	<g>
		<path class="st2" d="M216.6,280.5c-3.5-2.6-10.5,0.2-14.7,3.6c-1.2,1-6.1,5.3-8.2,19.2c-2.4,16,2.8,18.3-0.2,28.5
			c-3.5,11.8-11.4,10.8-13.9,21.7c-2.9,12.3,6.5,16,3.1,27.3c-2.9,9.6-10.7,10.6-12.7,22.3c-0.4,2.4-1.4,8.5,2,11.3
			c3.5,3,9.6,0.7,10.9,0.2c8.8-3.3,15.8-13.6,16.6-24.3c0.9-12.5-7.3-15.4-4.9-24.5c2.8-10.9,15.2-9,18.9-20.3
			c3.4-10.2-5.4-15.7-1.6-30.5c1.3-5,2.4-4.8,4.3-12C218.1,295.6,221.3,284,216.6,280.5z"/>
		<path d="M176.7,416.2c-2.1,0-3.8-0.5-5-1.6c-3.6-3-2.6-9.1-2.1-11.8c1.1-6.6,4-9.9,6.9-13.1c2.3-2.6,4.6-5.1,5.8-9.3
			c1.6-5.5,0.2-9.1-1.3-13c-1.6-3.9-3.2-8-1.7-14.3c1.3-5.6,3.9-8.1,6.7-10.8c2.7-2.5,5.4-5.2,7.2-10.9c1.5-4.9,1-7.8,0.4-11.6
			c-0.6-3.8-1.4-8.6-0.2-16.8c1.9-12.5,6.1-17.6,8.4-19.5c3.8-3.2,11.3-6.5,15.3-3.6l0,0c4.9,3.7,1.8,15.2-0.2,22.8
			c-1,3.9-1.8,5.6-2.6,7.2c-0.6,1.3-1.2,2.5-1.7,4.8c-1.9,7.7-0.4,12.9,0.9,17.5c1.2,4.2,2.3,8.1,0.7,13c-1.9,5.8-6,8.2-10,10.6
			c-3.9,2.3-7.6,4.5-8.9,9.7c-1.1,4.3,0.2,7.2,1.8,10.6c1.7,3.5,3.5,7.4,3.1,13.9c-0.8,11-7.9,21.3-16.9,24.7
			C180.7,415.8,178.6,416.2,176.7,416.2z M213.1,280c-3.3,0-7.7,1.9-10.8,4.5c-2.2,1.8-6.2,6.7-8,18.8c-1.2,8-0.5,12.5,0.2,16.5
			c0.6,3.7,1.1,7-0.4,12.1c-1.8,6-4.7,8.7-7.4,11.4c-2.7,2.5-5.2,4.9-6.4,10.3c-1.4,6,0.2,9.9,1.7,13.7c1.5,3.8,3.1,7.8,1.4,13.6
			c-1.3,4.4-3.7,7.1-6,9.7c-2.9,3.2-5.6,6.3-6.7,12.6c-0.4,2.2-1.4,8.2,1.8,10.8c2.1,1.8,5.8,1.8,10.4,0.1
			c8.6-3.2,15.4-13.2,16.2-23.8c0.5-6.1-1.4-10-3-13.4c-1.6-3.4-3.1-6.6-1.9-11.3c1.5-5.7,5.5-8,9.4-10.3c3.8-2.2,7.7-4.6,9.5-10
			c1.5-4.6,0.5-8.3-0.7-12.4c-1.4-4.7-2.9-10.1-0.9-18.1c0.6-2.4,1.2-3.6,1.8-5c0.7-1.5,1.5-3.2,2.5-7c1.9-6.9,5-18.5,0.6-21.8l0,0
			C215.5,280.3,214.3,280,213.1,280z"/>
	</g>
	<g>
		<path class="st2" d="M250.7,280.3c2.7-1.7,6.6-1.2,9.3,0.2c4.8,2.5,6.6,8.6,8.1,19.2c3.7,26.7-1.5,33.6,5,44.8
			c4.5,7.8,8.2,6.5,10.3,13.5c3.8,12.4-6.8,19.5-2.8,29.1c4.1,9.9,18.1,8.7,19,16.8c0.7,5.4-4.9,12-9.8,12.1c-1.9,0-3.8-0.9-8.6-6.3
			c-6.5-7.3-9.7-10.9-12.1-16.8c-5.7-14.1,1.8-21.1-4.7-30.7c-4.1-6.1-7.1-3.2-11.1-9.1c-7.4-10.7,2.1-20.9-3.3-42
			c-0.7-2.8-1.6-5.4-2.2-10C246.8,294.8,245.2,283.8,250.7,280.3z"/>
		<path d="M289.6,416.5c-2,0-4.1-1.1-8.9-6.5c-6.5-7.3-9.8-11-12.2-16.9c-2.8-7-2.4-12.4-2.1-17c0.4-4.8,0.7-8.9-2.5-13.6
			c-2-3-3.7-3.7-5.5-4.5c-1.8-0.8-3.6-1.6-5.7-4.6c-3.9-5.6-3.2-11-2.4-17.8c0.7-6.3,1.7-14.1-1-24.3c-0.2-0.6-0.3-1.2-0.5-1.8
			c-0.6-2.2-1.3-4.7-1.8-8.3c-0.9-6.6-2.4-17.7,3.3-21.3l0,0c3-1.9,7-1.3,9.8,0.2c5.1,2.7,6.9,9,8.4,19.6
			c1.6,11.7,1.5,19.5,1.5,25.8c-0.1,7.9-0.1,12.7,3.4,18.9c2,3.6,3.9,5.2,5.6,6.6c1.9,1.7,3.6,3.1,4.8,7c2,6.5,0.1,11.7-1.6,16.3
			c-1.6,4.3-3.1,8.3-1.2,12.8c2,4.8,6.4,6.9,10.6,8.9c4.1,1.9,8,3.7,8.5,8c0.3,2.8-0.9,6.1-3.2,8.8
			C294.7,415.1,292,416.5,289.6,416.5C289.7,416.5,289.6,416.5,289.6,416.5z M254.8,279.7c-1.4,0-2.7,0.3-3.8,1
			c-5.2,3.3-3.7,14.4-2.8,20.3c0.5,3.6,1.1,5.9,1.8,8.2c0.2,0.6,0.3,1.2,0.5,1.8c2.7,10.4,1.8,18.3,1,24.6
			c-0.8,6.6-1.4,11.9,2.2,17.2c1.9,2.7,3.5,3.5,5.2,4.2c1.8,0.8,3.7,1.6,5.9,4.9c3.4,5,3.1,9.3,2.7,14.2c-0.3,4.6-0.7,9.8,2,16.6
			c2.3,5.8,5.6,9.4,12,16.6c4.6,5.2,6.4,6.2,8.2,6.2c0,0,0,0,0,0c2.1,0,4.4-1.3,6.3-3.5c2.1-2.4,3.3-5.5,3-8
			c-0.4-3.7-3.9-5.4-7.9-7.2c-4.2-2-8.9-4.2-11.1-9.4c-2-4.8-0.4-9,1.2-13.5c1.7-4.6,3.5-9.4,1.6-15.6c-1.1-3.6-2.6-4.9-4.5-6.5
			c-1.7-1.5-3.6-3.2-5.8-6.9c-3.7-6.4-3.6-11.6-3.6-19.4c0.1-6.2,0.1-14-1.5-25.6c-1.4-10.3-3.1-16.3-7.8-18.8
			C258.4,280.2,256.6,279.7,254.8,279.7z"/>
	</g>
	<g>
		<path class="st1" d="M118.4,291.4c-3.6-3-5.4-4.5-7.5-4.4c-2.5,0.1-5.3,2-6,4.7c-0.7,2.6,0.9,4.8,2,6.4c1.3,1.8,2.9,4.3,6,4.7
			c2.1,0.3,4.4-0.4,6-2.1c1.9-2.1,2.4-5.3,1.2-7.5C119.9,292.9,119.6,292.5,118.4,291.4z"/>
		<path d="M113.8,303.4c-0.3,0-0.6,0-1-0.1c-3.2-0.4-4.9-2.9-6.1-4.7l-0.2-0.2c-1.1-1.6-2.8-4-2.1-6.9c0.7-2.8,3.5-5,6.5-5.1
			c2.3-0.1,4.1,1.5,7.8,4.5c1.2,1,1.6,1.5,1.9,2c1.3,2.4,0.7,5.8-1.3,8C117.9,302.6,115.8,303.4,113.8,303.4z M111,287.5
			c0,0-0.1,0-0.1,0c-2.1,0.1-4.9,1.8-5.5,4.4c-0.6,2.4,0.9,4.5,2,6l0.2,0.2c1.2,1.7,2.7,3.9,5.5,4.3c2,0.3,4.2-0.5,5.6-2
			c1.8-1.9,2.3-4.9,1.2-6.9c-0.2-0.3-0.4-0.7-1.6-1.7l0,0C114.6,289,112.9,287.5,111,287.5z"/>
	</g>
	<g>
		<path class="st1" d="M107.5,309.4c-0.9-3-3.5-4.4-5-5.2c-1.2-0.7-6.7-3.7-9.6-1.2c-2.5,2.1-1.5,7-1.3,8c0.4,1.9,1.2,3.2,1.5,3.6
			c0.4,0.7,1.4,2,3.1,3c1.2,0.8,3.8,2.4,6.7,1.4c3.3-1.1,4.4-4.7,4.6-5.4C107.7,313,108.1,311.3,107.5,309.4z"/>
		<path d="M101.1,319.8c-2.3,0-4.2-1.2-5.2-1.8c-1.6-1-2.7-2.3-3.2-3.2c-0.4-0.6-1.2-2-1.6-3.8c-0.9-4-0.4-7,1.4-8.5
			c1.5-1.2,4.4-2,10.2,1.1c1.5,0.8,4.3,2.3,5.2,5.5h0c0.6,2.1,0.2,3.9,0,4.5c-0.3,1.1-1.5,4.7-4.9,5.8
			C102.4,319.7,101.7,319.8,101.1,319.8z M95.8,302.5c-1.1,0-2,0.3-2.6,0.8c-1.5,1.3-1.9,3.9-1.1,7.5c0.4,1.7,1.1,2.9,1.4,3.5
			c0.5,0.8,1.5,2,2.9,2.9c1.2,0.7,3.6,2.3,6.3,1.4c3-1,4-4.2,4.3-5.1c0.1-0.5,0.5-2.1,0-3.9l0,0c-0.8-2.8-3.3-4.1-4.8-4.9
			C99.7,303.2,97.5,302.5,95.8,302.5z"/>
	</g>
	<g>
		<path class="st1" d="M90.4,318.2c0.2-4-4.6-6.7-5.2-7.1c-2.4-1.3-7.2-2.8-9.5-0.4c-1.7,1.7-1.5,4.7-1.4,5.4
			c0.1,0.6,0.2,2.1,1.1,3.5c2.2,3.4,6.8,3.4,8.2,3.4c1.7,0,3.9,0,5.4-1.6C90.3,320.1,90.4,318.5,90.4,318.2z"/>
		<path d="M84.2,323.5c-0.2,0-0.3,0-0.5,0c-4.2,0-7.1-1.3-8.7-3.6c-1-1.6-1.2-3.2-1.2-3.8c-0.2-2.5,0.3-4.5,1.5-5.7
			c2.7-2.7,7.8-1,10.1,0.3c1,0.5,5.7,3.4,5.5,7.5l0,0c0,0.5-0.2,2.2-1.5,3.6C87.9,323.4,85.8,323.5,84.2,323.5z M79.2,309.9
			c-1.2,0-2.4,0.3-3.2,1.1c-1,1-1.4,2.8-1.3,5c0.1,0.6,0.2,2,1.1,3.3c2.1,3.1,6.4,3.2,7.8,3.2c1.6,0,3.6,0,5-1.4
			c1.1-1.1,1.2-2.5,1.3-2.9l0,0c0.2-3.6-4.1-6.1-5-6.6C83.5,310.7,81.2,309.9,79.2,309.9z"/>
	</g>
	<g>
		<path class="st1" d="M70.5,324.1c0.5-3-1.3-5.3-1.8-5.9c-0.5-0.6-2.4-3-5.6-3.1c-2.6-0.1-5,1.3-6.3,3.4c-1.7,2.7-1.6,6.5,0.3,8.3
			c0.4,0.4,0.6,0.4,6.6,1.4c2.1,0.3,3.1,0.5,3.9,0.2C69.8,327.4,70.4,324.3,70.5,324.1z"/>
		<path d="M66.4,329.1c-0.7,0-1.7-0.2-2.9-0.4c-6.1-1-6.4-1.1-6.9-1.6c-2-1.9-2.2-6-0.3-8.9c1.5-2.3,4.1-3.7,6.8-3.6
			c1.6,0.1,3.9,0.7,6,3.3c2,2.5,2.2,4.8,1.9,6.3v0c-0.1,0.4-0.7,3.7-3.3,4.7C67.3,329,66.9,329.1,66.4,329.1z M62.8,315.6
			c-2.2,0-4.4,1.2-5.7,3.1c-1.6,2.5-1.5,6.1,0.2,7.6c0.3,0.3,0.7,0.4,6.3,1.3c2,0.3,3,0.5,3.6,0.2c2.1-0.9,2.6-3.6,2.7-4l0,0
			c0.2-1.3,0.1-3.2-1.7-5.5c-1.9-2.3-3.9-2.8-5.3-2.9C62.9,315.6,62.9,315.6,62.8,315.6z"/>
	</g>
	<g>
		<path class="st1" d="M60,335.1c-1.9-2.6-4.9-3.1-6.3-3.3c-1.7-0.3-4.9-0.8-6.4,1.1c-1.5,1.9-0.2,4.9,0.5,6.5
			c0.6,1.3,2.8,6.6,7,6.7c2.8,0.1,4.8-2.2,5-2.4c1.5-1.8,1.6-3.8,1.6-4.4C61.4,337.1,60.3,335.6,60,335.1z"/>
		<path d="M54.9,346.6c0,0-0.1,0-0.1,0c-2.1,0-5.1-1.3-7.5-7c-0.7-1.7-2.1-4.9-0.4-7c1.6-2.1,5-1.5,6.9-1.2c1.4,0.2,4.6,0.7,6.6,3.5
			l0,0c1.2,1.7,1.5,3.4,1.5,4.4c0,1-0.2,3-1.7,4.8C59.9,344.3,57.9,346.6,54.9,346.6z M50.9,332c-1.3,0-2.5,0.2-3.2,1.1
			c-1.3,1.6-0.1,4.5,0.6,6c2.2,5.2,4.8,6.3,6.6,6.4c2.6,0.1,4.5-2.1,4.6-2.2c1.3-1.5,1.5-3.2,1.5-4.1c0-1.4-0.5-2.7-1.3-3.9
			c-1.8-2.4-4.6-2.9-5.9-3.1C52.9,332.2,51.9,332,50.9,332z"/>
	</g>
	<g>
		<path class="st1" d="M53.7,350.7c-0.3-0.2-4.6-3.7-7.9-1.8c-2.4,1.4-2.6,4.6-2.7,6.9c-0.1,1.9-0.3,4.6,1.6,6.7
			c2,2.3,5.8,3.2,7.5,1.8c0.7-0.6,1-1.9,1.6-4.6c0.4-1.9,0.3-2.1,0.8-3.4c0.6-1.6,1.1-2,1.1-2.9C55.5,352.2,54.4,351.3,53.7,350.7z"
			/>
		<path d="M50,365.5c-1.9,0-4.3-1-5.7-2.6c-2-2.2-1.8-5-1.7-7.1c0.1-2.3,0.3-5.8,3-7.3c3.6-2.1,8.3,1.7,8.5,1.8c0.7,0.6,2,1.6,2,3.2
			c0,0.7-0.2,1.1-0.5,1.7c-0.2,0.3-0.4,0.8-0.6,1.4c-0.3,0.7-0.3,1-0.4,1.6c-0.1,0.4-0.1,0.9-0.3,1.7c-0.6,2.8-0.9,4.2-1.8,4.8
			C51.8,365.2,51,365.5,50,365.5z M48.1,348.9c-0.7,0-1.4,0.1-2,0.5c-2.2,1.3-2.3,4.3-2.5,6.5c-0.1,1.9-0.3,4.4,1.4,6.3
			c1.8,2.1,5.3,3,6.8,1.8c0.6-0.5,0.9-1.8,1.4-4.3c0.2-0.7,0.2-1.2,0.3-1.6c0.1-0.6,0.2-1.1,0.5-1.8c0.3-0.7,0.5-1.1,0.7-1.5
			c0.3-0.5,0.4-0.8,0.4-1.2c0-1.1-1.1-1.9-1.7-2.4l0,0C53.3,351,50.7,348.9,48.1,348.9z"/>
	</g>
	<g>
		<path class="st1" d="M51.5,371.3c-1.7-2.6-5.3-2.6-5.8-2.6c-0.8,0-3.1,0.2-5,2c-2.2,2.1-2.3,4.9-2.3,5.4c0,1.4,0.5,2.8,1.7,5.4
			c0.8,1.8,1.2,2.7,1.8,3.1c1.8,1.2,4.6,0.6,6.2-0.8c1-0.8,1.5-1.9,2.1-3.2c0.4-0.9,0.3-0.8,1.2-3.7c0.6-1.9,0.8-2.3,0.8-3.1
			C52.3,373.7,52.3,372.5,51.5,371.3z"/>
		<path d="M44.2,385.9c-0.9,0-1.8-0.2-2.6-0.7c-0.8-0.5-1.2-1.5-2-3.3c-1.2-2.7-1.7-4.1-1.7-5.6c0-1.3,0.4-3.8,2.4-5.8
			c1.9-1.8,4.2-2.2,5.4-2.2c0.7,0,4.5,0,6.3,2.8c0.7,1.2,0.9,2.4,0.9,2.9c0,0.8-0.1,1.3-0.6,2.5l-0.3,0.8c-0.5,1.4-0.7,2.1-0.8,2.5
			c-0.2,0.5-0.2,0.7-0.5,1.3c-0.6,1.3-1.2,2.4-2.3,3.3C47.3,385.3,45.7,385.9,44.2,385.9z M45.9,369.3c-0.1,0-0.1,0-0.2,0
			c-0.8,0-3,0.2-4.7,1.9c-1.8,1.7-2.1,3.9-2.1,5.1c0,1.3,0.5,2.6,1.6,5.2c0.7,1.7,1.1,2.6,1.6,2.9c1.6,1.1,4.2,0.5,5.6-0.7
			c0.9-0.8,1.4-1.7,2-3c0.2-0.4,0.3-0.6,0.4-1.1c0.1-0.5,0.3-1.2,0.8-2.6l0.3-0.8c0.4-1.2,0.5-1.6,0.5-2.2c0-0.4-0.1-1.4-0.7-2.4v0
			C49.8,369.4,46.8,369.3,45.9,369.3z"/>
	</g>
	<g>
		<path class="st1" d="M38.4,389.9c-0.2-3-0.3-4.7-1.6-6c-2.4-2.5-6.7-1.2-7.6-1c-1,0.3-3.2,0.9-4.5,2.9c-0.9,1.4-1.1,2.8-1.2,3.9
			c-0.1,1.4-0.2,2.5,0.3,3.5c1,1.9,3.5,2.7,5.5,2.6c1.9-0.1,1.7-1,4.9-1.8c2-0.5,3-0.4,3.7-1.3C38.3,392.3,38.5,391.8,38.4,389.9z"
			/>
		<path d="M29,396.4c-2.1,0-4.5-1-5.6-2.9c-0.6-1.2-0.5-2.4-0.4-3.8c0.1-1,0.3-2.6,1.2-4.1c1.4-2.2,3.8-2.8,4.8-3.1
			c3.5-1,6.4-0.6,8.1,1.1c1.4,1.4,1.5,3.3,1.7,6.4l0,0c0.1,1.9-0.1,2.6-0.5,3.1c-0.6,0.8-1.4,0.9-2.5,1.1c-0.4,0.1-0.9,0.2-1.5,0.3
			c-1.5,0.4-2.2,0.8-2.8,1.1c-0.6,0.4-1.1,0.7-2.2,0.7C29.3,396.3,29.2,396.4,29,396.4z M32.7,382.9c-1,0-2.1,0.2-3.3,0.5
			c-1,0.3-3,0.8-4.2,2.7c-0.8,1.3-1,2.6-1.1,3.6c-0.1,1.4-0.2,2.3,0.3,3.3c0.9,1.7,3.2,2.5,5,2.3c0.8-0.1,1.2-0.3,1.7-0.6
			c0.6-0.4,1.4-0.8,3.1-1.2c0.6-0.2,1.1-0.3,1.6-0.3c1.1-0.2,1.5-0.3,1.9-0.8c0.1-0.2,0.4-0.6,0.3-2.4c-0.2-2.9-0.3-4.5-1.4-5.7
			C35.6,383.4,34.3,382.9,32.7,382.9z"/>
	</g>
	<g>
		<path class="st1" d="M210.8,302c-1.8,0-3.6,1.2-4.5,2.7c-0.9,1.6-0.6,3.2,0.1,6.4c0.5,2.5,0.9,4.3,2.4,6c0.7,0.8,2,2.1,3.6,2.1
			c2.5,0,4.5-3.2,5-5.5c0.5-1.8,0.2-3.3,0-4C216.9,306.6,214.5,302,210.8,302z"/>
		<path d="M212.4,319.6c-1.8,0-3.2-1.4-3.9-2.3c-1.6-1.8-2.1-3.7-2.6-6.2c-0.7-3.2-1-5-0.1-6.7c1-1.8,3-2.9,5-2.9l0,0c0,0,0,0,0,0
			c4,0,6.5,4.9,7.1,8c0.1,0.6,0.5,2.3,0,4.3C217.4,316,215.4,319.6,212.4,319.6C212.4,319.6,212.4,319.6,212.4,319.6z M210.8,302.5
			c-1.6,0-3.3,1-4.1,2.4c-0.8,1.4-0.5,2.8,0.2,6c0.6,2.7,0.9,4.2,2.3,5.7c0.7,0.8,1.8,1.9,3.2,1.9c0,0,0,0,0,0c2.3,0,4-3,4.6-5.1
			c0.4-1.8,0.1-3.2,0-3.8C216.4,306.7,214,302.5,210.8,302.5C210.8,302.5,210.8,302.5,210.8,302.5L210.8,302.5z"/>
	</g>
	<g>
		<path class="st1" d="M215.9,325.6c-1-2.6-5.1-4.4-7.4-3.1c-1.6,0.9-1.9,2.9-2.2,4.5c-0.2,1-0.8,4.9,1.7,7.8c0.4,0.4,2.4,2.7,5,2.4
			c1.2-0.1,2.8-0.8,3.3-2.1c0.4-0.9,0-1.6-0.4-3.1C215.2,328.4,216.6,327.5,215.9,325.6z"/>
		<path d="M212.6,337.6c-1.7,0-3.5-0.9-4.9-2.6c-1.3-1.4-2.6-4-1.9-8.2c0.3-1.6,0.7-3.8,2.5-4.8c1.1-0.6,2.6-0.6,4.1-0.1
			c1.9,0.7,3.4,2,4,3.5l0,0c0.4,1,0.3,1.8,0.1,2.7c-0.2,0.9-0.4,2,0,3.7c0.1,0.4,0.2,0.7,0.3,1c0.2,0.8,0.4,1.5,0.1,2.3
			c-0.6,1.4-2.3,2.2-3.7,2.4C212.9,337.6,212.7,337.6,212.6,337.6z M210.2,322.5c-0.6,0-1.1,0.1-1.5,0.4c-1.4,0.8-1.7,2.6-2,4.1
			c-0.7,3.8,0.5,6.1,1.6,7.4c1.4,1.6,3,2.4,4.6,2.2c1.1-0.1,2.5-0.7,2.9-1.8c0.2-0.5,0.1-0.9-0.1-1.7c-0.1-0.3-0.2-0.7-0.3-1.1
			c-0.4-2-0.2-3.2,0-4.1c0.1-0.8,0.3-1.4-0.1-2.1l0,0c-0.5-1.2-1.8-2.4-3.4-2.9C211.4,322.6,210.8,322.5,210.2,322.5z"/>
	</g>
	<g>
		<path class="st1" d="M216,345.1c-1.3-2.3-4.9-3.4-7.5-2c-3,1.6-2.8,5.6-2.8,6.1c0.1,3,2.1,6.6,4.6,6.7c2.1,0,3.7-2.7,4.5-4.1
			C215.8,350,217.3,347.4,216,345.1z"/>
		<path d="M210.4,356.4C210.3,356.4,210.3,356.4,210.4,356.4c-2.8,0-5-3.8-5.1-7.2c-0.1-1.5,0.1-5,3-6.6c1.4-0.7,3.1-0.9,4.7-0.4
			c1.5,0.4,2.8,1.4,3.5,2.6l0,0c1.4,2.5-0.2,5.3-1.2,7.2C214.4,353.5,212.8,356.4,210.4,356.4z M211.1,342.9c-0.8,0-1.7,0.2-2.3,0.6
			c-2.4,1.3-2.6,4.4-2.5,5.7c0.1,2.8,2,6.2,4.1,6.2c0,0,0,0,0,0c1.8,0,3.2-2.5,4-3.9c0.9-1.7,2.3-4.2,1.2-6.2l0,0
			c-0.5-1-1.6-1.8-2.9-2.1C212.2,343,211.6,342.9,211.1,342.9z"/>
	</g>
	<g>
		<path class="st1" d="M203.7,357.4c-0.1-1.7-1-4.1-3-4.5c-1.8-0.4-3.4,1.3-3.9,1.7c-0.3,0.3-2,2.1-1.7,4.8c0.2,1.6,1.2,4,3.1,4.3
			c1.9,0.3,3.4-1.6,3.9-2.3C202.7,360.9,203.8,359.5,203.7,357.4z"/>
		<path d="M198.7,364.2c-0.1,0-0.3,0-0.4,0c-2.2-0.3-3.3-3-3.6-4.7c-0.4-2.7,1.3-4.7,1.8-5.2c1.5-1.5,2.9-2.2,4.3-1.9
			c2.1,0.4,3.3,2.9,3.4,5l0,0c0.1,2.2-1.1,3.8-1.6,4.3C202.1,362.3,200.7,364.2,198.7,364.2z M200.2,353.3c-0.9,0-1.9,0.5-3,1.6
			c-0.3,0.3-1.8,2-1.5,4.4c0.2,1.4,1.1,3.6,2.7,3.8c1.6,0.2,2.9-1.5,3.5-2.1c0.4-0.5,1.4-1.8,1.3-3.6l0,0c-0.1-1.5-0.9-3.7-2.6-4.1
			C200.5,353.4,200.3,353.3,200.2,353.3z"/>
	</g>
	<g>
		<path class="st1" d="M196.9,369.4c-1.4-1.1-4.2-0.5-5.1,0.9c-0.4,0.7-0.1,1.1,0.4,4.4c0.5,3,0.3,3.4,0.8,4.2c0.1,0.1,1.6,2.4,4,2
			c1.5-0.2,2.7-1.5,3-2.8c0.3-1.2-0.5-1.7-1.5-4.4C197.5,370.8,197.8,370,196.9,369.4z"/>
		<path d="M196.5,381.4c-2.3,0-3.8-2.2-3.9-2.3c-0.4-0.7-0.5-1.1-0.6-2.3c-0.1-0.5-0.1-1.2-0.3-2.2c-0.2-1-0.3-1.7-0.4-2.3
			c-0.2-1.3-0.3-1.7,0.1-2.4c0.5-0.8,1.4-1.4,2.6-1.6c1.2-0.3,2.5,0,3.3,0.6l0,0c0.7,0.5,0.8,1.1,1,2c0.1,0.6,0.3,1.4,0.7,2.6
			c0.4,1.1,0.7,1.8,1,2.4c0.4,0.9,0.7,1.4,0.5,2.4c-0.3,1.6-1.8,2.9-3.4,3.2C196.9,381.4,196.7,381.4,196.5,381.4z M195,369.3
			c-0.3,0-0.5,0-0.8,0.1c-0.9,0.2-1.6,0.6-1.9,1.2c-0.2,0.3-0.2,0.5,0.1,1.7c0.1,0.6,0.2,1.3,0.4,2.3c0.1,1,0.2,1.7,0.3,2.2
			c0.1,1.1,0.2,1.4,0.5,1.8c0.1,0.1,1.4,2.1,3.5,1.8c1.2-0.2,2.4-1.2,2.6-2.4c0.1-0.6,0-0.9-0.4-1.7c-0.3-0.6-0.7-1.3-1.1-2.5
			c-0.4-1.2-0.6-2.1-0.8-2.7c-0.2-0.9-0.3-1.1-0.6-1.4C196.2,369.5,195.6,369.3,195,369.3z"/>
	</g>
	<g>
		<path class="st1" d="M201.4,384.8c-1-1.3-3.5-1.7-4.6-0.8c-0.4,0.3-0.5,1-0.9,2.2c-0.2,0.9-0.4,1.7-0.5,2.7c0,0.9-0.1,1.9,0.4,2.9
			c0.7,1.6,2.5,3.3,4.1,2.9c1-0.3,1.6-1.3,1.9-1.7c0.5-1,0.5-1.9,0.6-3.7c0-1.5-0.2-2.4-0.2-2.6
			C201.9,385.8,201.8,385.3,201.4,384.8z"/>
		<path d="M199.5,395.4c-1.8,0-3.5-1.8-4.1-3.3c-0.5-1.1-0.4-2.2-0.4-3.1c0-1.1,0.3-1.9,0.5-2.8c0.4-1.4,0.6-2.1,1-2.5
			c0.6-0.5,1.4-0.7,2.4-0.6c1.2,0.1,2.3,0.7,2.9,1.5l0,0c0.5,0.6,0.6,1.2,0.8,2.1c0.2,0.7,0.3,1.7,0.3,2.7c0,1.8,0,2.9-0.6,3.9
			c-0.3,0.5-0.9,1.7-2.2,2C199.9,395.4,199.7,395.4,199.5,395.4z M198.5,384c-0.5,0-1,0.1-1.3,0.4c-0.2,0.2-0.4,0.9-0.7,2
			c-0.2,0.9-0.4,1.6-0.5,2.6c0,0.9-0.1,1.8,0.3,2.7c0.6,1.5,2.3,2.9,3.5,2.6c0.8-0.2,1.3-1.1,1.5-1.5c0.5-0.9,0.5-1.7,0.5-3.5
			c0-1-0.1-1.9-0.2-2.5c-0.2-0.9-0.3-1.3-0.6-1.7l0,0c-0.5-0.6-1.3-1-2.2-1.1C198.7,384,198.6,384,198.5,384z"/>
	</g>
	<g>
		<path class="st1" d="M197.5,401.3c-1.3-1.6-3.7-1.6-4.1-1.6c-3,0-4.9,2.3-5.4,2.9c-0.9,1-2.9,3.3-2,6.1c0.7,2.1,2.9,3.9,4.9,3.7
			c1.3-0.1,2.2-1,4-2.9c0.2-0.2,1.5-1.6,2.6-3.8c0.7-1.4,0.8-2.2,0.7-3C198.1,402.5,197.9,401.9,197.5,401.3z"/>
		<path d="M190.6,412.9c-2.2,0-4.4-1.7-5.1-4c-0.9-3,1.2-5.5,2.1-6.5c2.1-2.5,4.3-3.1,5.8-3.1c0.9,0,3.2,0.1,4.5,1.8h0
			c0.5,0.6,0.7,1.3,0.7,1.5c0.2,0.9,0,1.9-0.7,3.3c-1,2.2-2.3,3.6-2.7,4c-1.8,1.9-2.8,2.9-4.3,3
			C190.8,412.8,190.7,412.9,190.6,412.9z M193.5,400.2c0,0-0.1,0-0.1,0c-1.8,0-3.5,1-5,2.7c-0.8,0.9-2.7,3.1-1.9,5.6
			c0.6,2,2.6,3.5,4.4,3.3c1.2-0.1,1.9-0.9,3.6-2.7c0.2-0.3,1.5-1.6,2.5-3.7c0.7-1.4,0.7-2.1,0.6-2.7c0-0.1-0.2-0.7-0.5-1.1
			C196.1,400.3,194.3,400.2,193.5,400.2z"/>
	</g>
	<g>
		<path class="st1" d="M322.7,286.2c0.6-1.7,3.4-2.7,5.1-1.9c0.9,0.5,1.3,1.8,1.9,4.4c0.9,3.6,1.3,5.4,0.5,6.8
			c-1,1.6-3.4,2.6-4.5,1.9c-1.1-0.7-0.2-2.4-1.1-5.8C323.7,288.3,322.1,287.6,322.7,286.2z"/>
		<path d="M326.5,298.1c-0.4,0-0.8-0.1-1.2-0.3c-0.8-0.5-0.8-1.4-0.8-2.5c0-0.9,0-2.1-0.4-3.6c-0.4-1.4-0.9-2.3-1.3-3.1
			c-0.5-0.9-0.9-1.7-0.6-2.6c0.3-0.9,1.2-1.7,2.4-2.2c1.2-0.5,2.5-0.5,3.4,0c1.1,0.6,1.5,2.1,2.1,4.7c0.9,3.7,1.4,5.6,0.4,7.1
			C329.7,297.1,327.9,298.1,326.5,298.1z M326.4,284.5c-0.5,0-0.9,0.1-1.4,0.3c-0.9,0.3-1.6,0.9-1.8,1.6v0c-0.2,0.5,0,0.9,0.5,1.8
			c0.4,0.7,1,1.8,1.4,3.3c0.5,1.7,0.5,2.9,0.5,3.9c0,1.1,0,1.4,0.4,1.6c0.8,0.5,2.9-0.3,3.8-1.8c0.7-1.2,0.3-2.9-0.5-6.4
			c-0.6-2.5-0.9-3.7-1.6-4.1C327.2,284.6,326.8,284.5,326.4,284.5z"/>
	</g>
	<g>
		<path class="st1" d="M333.5,305.3c-1.8-1.4-4.8-1.9-5.8-0.7c-0.5,0.6-0.3,1.5-0.1,2.8c0.1,0.6,0.7,3,3,5.4
			c1.3,1.3,2.1,2.2,3.5,2.1c1.2,0,2.5-0.7,2.9-1.8c0.1-0.3,0.3-1-1.1-3.8C335,307.1,334.4,306,333.5,305.3z"/>
		<path d="M334.2,315.5c-1.5,0-2.5-1-3.8-2.3c-2.3-2.3-3-4.7-3.2-5.7c-0.3-1.3-0.5-2.4,0.2-3.2c1.2-1.5,4.5-0.9,6.4,0.6h0
			c1,0.8,1.6,1.9,2.7,4.2c1.4,2.7,1.3,3.7,1.1,4.2C337.1,314.7,335.5,315.4,334.2,315.5C334.2,315.5,334.2,315.5,334.2,315.5z
			 M329.6,304.5c-0.7,0-1.2,0.2-1.5,0.5c-0.3,0.4-0.2,1.1,0,2.3c0.2,0.8,0.8,3,2.9,5.1c1.2,1.2,2,2,3.1,2c0,0,0,0,0,0
			c0.9,0,2.1-0.6,2.5-1.5c0.2-0.5-0.2-1.7-1.1-3.4c-1.1-2.1-1.6-3.2-2.4-3.8h0C332.2,304.9,330.7,304.5,329.6,304.5z"/>
	</g>
	<g>
		<path class="st1" d="M342.8,318c-1.9-1.6-2.3-1.7-2.7-1.7c-1.5,0.1-2.8,2.3-2.8,4.1c0,2.5,2.3,5.1,5,5c2-0.1,4-1.8,4-3.4
			C346.4,321.1,345.2,320.1,342.8,318z"/>
		<path d="M342.1,326c-1.2,0-2.4-0.5-3.4-1.4c-1.2-1.1-1.9-2.6-1.9-4.1c0-2,1.4-4.5,3.2-4.7c0.6,0,1.2,0.2,3.1,1.8v0l-0.3,0.4
			l0.3-0.4c2.6,2.2,3.8,3.2,3.8,4.4c0,1.9-2.2,3.8-4.5,3.9C342.3,326,342.2,326,342.1,326z M340.2,316.8
			C340.2,316.8,340.1,316.8,340.2,316.8c-1.2,0.1-2.4,2-2.4,3.7c0,1.2,0.6,2.4,1.6,3.3c0.9,0.8,1.9,1.2,2.9,1.2
			c1.8-0.1,3.6-1.6,3.6-3c0-0.7-1.3-1.8-3.4-3.6l0.3-0.4l-0.3,0.4C340.8,317,340.4,316.8,340.2,316.8z"/>
	</g>
	<g>
		<path class="st1" d="M353.6,325c-1.5-0.5-4.3-0.9-5.4,0.7c-0.8,1.2-0.2,2.8,0,3.3c0.9,2.5,3.3,3.4,3.8,3.6
			c0.7,0.2,3.3,1.1,4.7-0.3c1.4-1.4,0.5-4,0.5-4.1C356.4,325.9,354.2,325.2,353.6,325z"/>
		<path d="M354.5,333.6c-0.7,0-1.6-0.1-2.7-0.5c-0.7-0.3-3.2-1.3-4.1-3.9c-0.2-0.6-0.9-2.4,0.1-3.8c1.3-1.9,4.5-1.4,6-0.9l0,0
			c2.5,0.8,3.5,2.3,3.9,3.4c0.1,0.3,1,3-0.6,4.7C356.6,333.1,355.8,333.6,354.5,333.6z M351,325.1c-1,0-1.9,0.2-2.4,0.9
			c-0.7,1-0.2,2.4,0,2.9c0.8,2.2,2.9,3,3.5,3.2c2.5,0.9,3.7,0.3,4.2-0.2c1.2-1.2,0.4-3.5,0.3-3.6c-0.5-1.3-1.6-2.3-3.3-2.8l0.2-0.5
			l-0.2,0.5C352.8,325.2,351.9,325.1,351,325.1z"/>
	</g>
	<g>
		<path class="st1" d="M368.8,327.9c3.3,0.1,4.1-0.1,4.9,0.7c1.2,1.1,1,3.1,0.9,3.5c-0.1,0.6-0.2,1.6-1,2.3
			c-0.8,0.7-1.5,0.4-4.3,0.6c-2.3,0.2-2.6,0.4-3.7,0.2c-0.8-0.2-2-0.4-2.8-1.4c-1.3-1.6-1-4.5,0.5-5.7
			C364.1,327.5,364.5,327.8,368.8,327.9z"/>
		<path d="M366.4,335.7c-0.3,0-0.6,0-0.9-0.1c-0.8-0.2-2.2-0.4-3.1-1.5c-0.7-0.9-1-2.1-0.9-3.4c0.1-1.3,0.7-2.4,1.5-3
			c0.7-0.5,1.2-0.5,2.7-0.4c0.7,0,1.7,0.1,3.1,0.1l0,0c0.7,0,1.2,0,1.7,0c2,0,2.7,0,3.5,0.8c1.3,1.3,1.1,3.3,1.1,3.9
			c-0.1,0.6-0.2,1.8-1.2,2.6c-0.7,0.6-1.3,0.6-2.4,0.6c-0.5,0-1.2,0-2.1,0.1c-0.9,0.1-1.4,0.1-1.9,0.2
			C367,335.7,366.7,335.7,366.4,335.7z M364.5,328.2c-0.5,0-0.6,0.1-0.9,0.2c-0.6,0.5-1,1.3-1.1,2.3c-0.1,1,0.1,2,0.7,2.7
			c0.7,0.8,1.8,1,2.5,1.2c0.6,0.1,0.9,0.1,1.7,0c0.5-0.1,1.1-0.1,1.9-0.2c0.9-0.1,1.6-0.1,2.2-0.1c1.1,0,1.4,0,1.8-0.4
			c0.6-0.6,0.8-1.5,0.8-2c0-0.3,0.2-2.1-0.8-3.1c-0.5-0.4-0.9-0.5-2.8-0.5c-0.5,0-1.1,0-1.7,0c-1.4,0-2.4-0.1-3.1-0.1
			C365.1,328.2,364.7,328.2,364.5,328.2z"/>
	</g>
	<g>
		<path class="st1" d="M386.1,329.3c-1.2-0.6-2.7-0.5-3.7,0.2c-1.8,1.1-2.3,3.9-1.2,5.8c1,1.8,3.1,2.5,4.8,2.3
			c1.8-0.3,3.8-1.6,3.9-3.3c0.1-1.2-0.8-2.1-2.4-3.9C386.7,329.6,386.3,329.4,386.1,329.3z"/>
		<path d="M385.3,338.2c-1.7,0-3.6-0.8-4.6-2.6c-1.2-2.2-0.6-5.2,1.4-6.5c1.2-0.8,2.9-0.9,4.2-0.2l0,0c0.3,0.1,0.7,0.4,1.5,1.2
			c1.7,1.9,2.6,2.9,2.5,4.3c-0.1,2-2.4,3.5-4.3,3.7C385.8,338.2,385.5,338.2,385.3,338.2z M384.5,329.5c-0.6,0-1.3,0.2-1.8,0.5
			c-1.5,1-2.1,3.4-1.1,5.2c0.9,1.7,2.9,2.2,4.3,2c1.6-0.2,3.4-1.4,3.5-2.8c0.1-1-0.8-1.9-2.3-3.5c-0.7-0.8-1.1-1-1.2-1l0,0
			C385.5,329.6,385,329.5,384.5,329.5z"/>
	</g>
	<g>
		<path class="st1" d="M395.4,343.5c-2.1-3.7-2-4.2-2.8-4.6c-1.4-0.7-3.8,0.1-4.6,1.6c-0.4,0.9,0,2.2,0.9,4.8c0.6,1.6,0.9,2.4,1.4,3
			c1.2,1.2,3.5,2.1,4.9,1.1c1.4-1,1.2-3.3,0.9-4.5C396.1,344.5,396,344.4,395.4,343.5z"/>
		<path d="M393.9,350.4c-1.4,0-3-0.8-3.8-1.7c-0.6-0.7-1-1.6-1.5-3.2c-1-2.7-1.4-4.1-0.9-5.2c0.8-1.7,3.5-2.7,5.2-1.9
			c0.6,0.3,0.8,0.7,1.4,1.7c0.3,0.6,0.8,1.6,1.7,3h0l0.3,0.4c0.3,0.6,0.4,0.8,0.6,1.2c0.4,1.2,0.6,3.8-1,5
			C395.1,350.2,394.5,350.4,393.9,350.4z M391.4,339.1c-1.1,0-2.5,0.7-2.9,1.6c-0.3,0.7,0.1,2,1,4.4c0.6,1.6,0.8,2.3,1.3,2.8
			c1,1,3.1,1.9,4.3,1c1.1-0.8,1-2.8,0.7-3.9c-0.1-0.3-0.2-0.4-0.5-1l-0.3-0.4c-0.9-1.5-1.4-2.4-1.7-3.1c-0.5-1-0.6-1.1-0.9-1.3
			C392.1,339.2,391.8,339.1,391.4,339.1z"/>
	</g>
	<g>
		<path class="st1" d="M396.9,353.7c-1.4-0.7-3.6-0.7-4.7,0.5c-1.2,1.2-0.9,3.1-0.6,5.6c0.1,0.9,0.3,1.2,1.3,4.6
			c1.3,4.1,1.4,4.5,2,4.8c1.6,0.8,4.7-0.9,5.7-3.2c0.7-1.7-0.5-1.9-0.9-7c-0.1-1.3-0.1-2.6-1.1-3.9
			C398.4,354.8,397.9,354.1,396.9,353.7z"/>
		<path d="M395.9,369.9c-0.4,0-0.8-0.1-1.2-0.2c-0.7-0.3-0.8-0.8-1.8-3.9l-0.9-3c-0.6-1.8-0.7-2.1-0.8-2.9c-0.4-2.5-0.7-4.6,0.7-6
			c1.4-1.4,3.8-1.3,5.3-0.6l0,0c1,0.5,1.6,1.3,1.8,1.5c1,1.3,1.1,2.7,1.2,3.9l0,0.3c0.2,2.4,0.6,3.8,0.8,4.6c0.3,1,0.5,1.6,0.1,2.6
			c-0.6,1.5-2,2.8-3.6,3.4C396.9,369.8,396.4,369.9,395.9,369.9z M394.9,353.8c-0.9,0-1.7,0.2-2.3,0.8c-1,1-0.8,2.8-0.4,5.2
			c0.1,0.7,0.2,1,0.8,2.7l0.9,3c0.9,2.7,1,3.2,1.3,3.3c0.5,0.2,1.2,0.2,1.9-0.1c1.3-0.5,2.6-1.7,3-2.9c0.3-0.7,0.2-1-0.1-1.9
			c-0.3-0.9-0.7-2.3-0.9-4.8l0-0.3c-0.1-1.2-0.2-2.3-1-3.4c-0.2-0.2-0.6-0.8-1.5-1.2C396.2,353.9,395.5,353.8,394.9,353.8z"/>
	</g>
	<g>
		<path class="st1" d="M401.3,374.3c-1.5-1.2-4.5-0.5-5.9,1.4c-1.7,2.3-0.3,5.5,1.4,7.1c1.2,1.1,3.4,2.1,4.7,1.3c1-0.7,1-2.1,1-4.5
			C402.5,376.8,402.5,375.2,401.3,374.3z"/>
		<path d="M400.3,384.8c-1.4,0-3-0.9-3.9-1.7c-1.7-1.6-3.4-5.1-1.5-7.7c0.8-1.1,2.1-1.9,3.6-2.1c1.2-0.2,2.2,0,3,0.6l0,0
			c1.3,1,1.3,2.7,1.3,5.6c0,2.5,0,4.1-1.2,4.9C401.3,384.7,400.8,384.8,400.3,384.8z M399.4,374.2c-0.2,0-0.4,0-0.6,0
			c-1.2,0.2-2.3,0.8-2.9,1.7c-1.5,2-0.2,5,1.3,6.4c1,0.9,3,1.9,4.1,1.2c0.8-0.5,0.8-1.8,0.8-4.1c0-2.7,0-4.1-0.9-4.8l0,0
			C400.6,374.4,400,374.2,399.4,374.2z"/>
	</g>
	<g>
		<path class="st1" d="M405.3,387.4c-1.6-0.2-3.6,1-4,2.4c-0.8,2.7,3.1,7.1,6.7,6.6c2.5-0.3,4.8-2.8,4.4-4.2c-0.2-0.8-1-0.6-3-1.9
			C406.8,388.8,406.7,387.6,405.3,387.4z"/>
		<path d="M407.5,397c-1.8,0-3.9-1.1-5.4-2.8c-1.3-1.5-1.8-3.2-1.4-4.5c0.5-1.7,2.7-3,4.6-2.8l0,0c0.9,0.1,1.4,0.6,2,1.2
			c0.5,0.5,1.1,1.1,2.2,1.8c0.8,0.5,1.4,0.8,1.9,1c0.7,0.3,1.2,0.5,1.3,1.2c0.2,0.6,0,1.4-0.6,2.2c-0.8,1.2-2.4,2.4-4.2,2.6
			C407.8,397,407.7,397,407.5,397z M404.8,387.9c-1.3,0-2.8,1-3.1,2.1c-0.3,1,0.2,2.3,1.2,3.6c1.4,1.7,3.3,2.6,5,2.4
			c1.5-0.2,2.9-1.3,3.5-2.2c0.4-0.5,0.5-1,0.4-1.4c-0.1-0.2-0.2-0.3-0.8-0.5c-0.5-0.2-1.1-0.5-2-1.1c-1.2-0.8-1.9-1.4-2.4-1.9
			c-0.6-0.6-0.9-0.8-1.4-0.9l0,0C405.1,387.9,405,387.9,404.8,387.9z"/>
	</g>
	<g>
		<path class="st1" d="M418.4,394.1c-0.8,0.1-2.4,0.1-3,1.1c-0.9,1.4,0.6,4.1,2.5,5.3c0.1,0.1,2.6,1.7,5.3,0.6c2.4-1,4.2-3.7,3.5-5
			c-0.3-0.6-0.9-0.4-4.7-1.4C420.1,394.3,419.5,394,418.4,394.1z"/>
		<path d="M421.1,402c-2,0-3.5-1-3.6-1.1c-2.1-1.4-3.7-4.3-2.6-6c0.7-1.2,2.5-1.3,3.4-1.4l0,0c1-0.1,1.6,0.1,2.8,0.5l0.9,0.2
			c1.5,0.4,2.5,0.6,3.1,0.7c1.1,0.2,1.6,0.3,1.9,0.9c0.3,0.5,0.2,1.2-0.1,2c-0.5,1.3-1.8,2.9-3.8,3.7
			C422.5,401.9,421.8,402,421.1,402z M418.7,394.6c-0.1,0-0.2,0-0.3,0l0,0c-0.7,0-2.2,0.1-2.6,0.9c-0.7,1.1,0.5,3.5,2.3,4.7
			c0,0,2.3,1.5,4.8,0.5c1.6-0.6,2.8-2.1,3.2-3.1c0.2-0.5,0.2-0.9,0.1-1.2c-0.1-0.1-0.2-0.2-1.2-0.4c-0.7-0.1-1.7-0.4-3.2-0.8
			l-0.9-0.2C419.9,394.7,419.4,394.6,418.7,394.6z"/>
	</g>
	<g>
		<path class="st1" d="M435.4,394.7c-1.9,1.4-3.8,0.3-4.3,1.3c-0.7,1.2,1.3,4.6,4.2,5.4c3.3,0.9,6.3-1.9,7.4-3
			c1.2-1.2,1.4-1.9,1.4-2.2c0.3-1.8-1.2-3.7-2.9-4.4c-0.3-0.1-1.8-0.8-3.2-0.1C436.6,392.3,436.9,393.6,435.4,394.7z"/>
		<path d="M436.6,402.1c-0.5,0-1-0.1-1.5-0.2c-2.2-0.6-3.8-2.5-4.4-4c-0.4-0.9-0.4-1.6-0.1-2.1c0.4-0.7,1.2-0.7,1.9-0.7
			c0.8,0,1.7-0.1,2.6-0.7h0c0.6-0.5,0.9-0.9,1.1-1.5c0.3-0.6,0.7-1.3,1.6-1.7c0.7-0.3,1.9-0.6,3.6,0.1c1.8,0.8,3.5,2.8,3.2,4.9
			c-0.1,0.5-0.3,1.3-1.6,2.5C442.1,399.7,439.6,402.1,436.6,402.1z M435.7,395.1c-1.1,0.9-2.3,0.9-3.1,0.9c-0.6,0-0.9,0-1,0.2
			c-0.1,0.2-0.1,0.6,0.1,1.3c0.5,1.3,2,2.9,3.8,3.4c3,0.8,5.9-1.9,7-2.9c1.2-1.1,1.3-1.7,1.3-1.9c0.3-1.6-1.2-3.2-2.6-3.9
			c-1.1-0.5-2-0.5-2.8-0.2c-0.6,0.3-0.8,0.7-1.1,1.3C436.8,393.9,436.5,394.5,435.7,395.1L435.7,395.1z"/>
	</g>
	<g>
		<path class="st2" d="M295.2,272.3c4.4,0.7,8.4,5.2,14.6,25.5c11.5,37.9,6.3,51.3,19.1,63.3c6.1,5.8,16.5,11.3,18.9,12.6
			c11.5,6,14.9,5.2,20.7,10.6c9,8.4,10.2,19.5,10.5,22.4c0.6,6,0,15.4-3.3,16.3c-2.8,0.7-5.3-5.1-12.5-13.5c0,0-8.4-9.8-20.1-17.9
			c-14.1-9.8-18-6.4-27.5-15c-2.2-2-9.7-9-13.4-20.3c-2.9-8.6-0.5-10.8-2.6-28.4c-1.2-10.4-1.9-15.7-3.9-21
			c-5.8-15-15.2-18.4-13.5-25.6C283.5,276,290.1,271.5,295.2,272.3z"/>
		<path d="M375.2,423.6c-1.9,0-3.5-2.2-6.3-6c-1.6-2.1-3.5-4.8-6.1-7.7c-0.1-0.1-8.5-9.8-20-17.8c-6.8-4.7-11.2-6.3-15-7.7
			c-4.1-1.5-7.6-2.8-12.5-7.3c-6.4-5.8-11-12.9-13.6-20.5c-1.6-4.8-1.6-7.7-1.6-12c0-3.8-0.1-8.5-1-16.5
			c-1.2-10.4-1.9-15.6-3.9-20.9c-2.7-7-6.2-11.5-9-15c-3.1-4-5.4-6.9-4.5-10.9c1.3-5.5,8.2-10.2,13.6-9.4c4.6,0.7,8.7,5.3,15,25.9
			c4.7,15.6,6.6,26.8,8.2,35.9c2.1,12.6,3.4,20.2,10.8,27.2c5.9,5.6,15.9,11,18.8,12.5c4.7,2.5,8.1,3.8,10.8,4.8
			c4,1.6,6.6,2.6,10,5.8c6,5.6,9.8,13.7,10.7,22.7c0.6,6,0.1,15.8-3.7,16.8C375.6,423.5,375.4,423.6,375.2,423.6z M294,272.7
			c-4.7,0-10.2,4.1-11.3,8.7c-0.9,3.6,1.2,6.2,4.3,10.1c2.8,3.6,6.4,8.1,9.2,15.3c2.1,5.4,2.7,10.7,4,21.2c1,8,1,13,1,16.6
			c0,4.4,0.1,7.1,1.6,11.7c2.5,7.5,7.1,14.4,13.3,20.1c4.8,4.4,8,5.6,12.2,7.1c3.9,1.4,8.4,3.1,15.3,7.9c11.6,8,20.1,17.8,20.2,17.9
			c2.6,3,4.5,5.6,6.1,7.8c2.8,3.7,4.4,5.9,5.9,5.6c2.6-0.7,3.6-8.8,2.9-15.7c-0.9-8.8-4.6-16.7-10.4-22.1c-3.3-3.1-5.8-4.1-9.7-5.6
			c-2.7-1.1-6.1-2.4-10.9-4.9c-2.9-1.5-13-7-19-12.7c-7.7-7.2-9-15-11.1-27.8c-1.5-9-3.4-20.3-8.1-35.8c-6.1-20-10.1-24.5-14.2-25.2
			C294.8,272.7,294.4,272.7,294,272.7z"/>
	</g>
	<g>
		<path class="st3" d="M278,92.9c2.3-6.2,4.8-15.8,4.1-27.5c-0.3-4.9-0.9-13.9-6.1-23.5c-1.6-3-4.9-7.5-5.9-8.7
			c-0.7-0.8-1.4-1.6-1.4-1.6c-0.6-0.7-1.1-1.2-1.3-1.4c-0.8-0.9-1.1-1.1-1.1-1.1c0.9-0.8,25.3,11.2,32.2,34.2
			c3.2,10.7,1.9,21.1-0.9,29.5"/>
		<path d="M278.5,93.1l-0.9-0.3c3.3-8.9,4.6-18.1,4.1-27.3c-0.3-4.8-0.9-13.7-6.1-23.3c-1.6-3-4.9-7.4-5.9-8.6
			c-0.7-0.8-1.4-1.6-1.4-1.6c-0.6-0.7-1.1-1.2-1.3-1.4c-0.5-0.5-0.8-0.8-1-1c-0.2-0.2-0.3-0.3-0.3-0.5l0-0.2l0.2-0.1
			c0.3-0.3,0.7-0.2,1.1-0.1c4.8,1.3,25.7,13.7,31.9,34.5c3.5,11.7,1.5,22.7-0.9,29.8l-1-0.3c2.3-7,4.3-17.8,0.9-29.2
			c-5.9-19.7-24.7-31.2-30.1-33.5c0.2,0.2,0.6,0.7,1.2,1.3c0,0,0.8,0.9,1.4,1.6c1,1.2,4.3,5.7,6,8.7c5.3,9.7,5.9,19.2,6.2,23.7
			C283.2,74.8,281.8,84.1,278.5,93.1z"/>
	</g>
	<g>
		<path d="M278.5,93.1l-1-0.3c2.5-8.3,4.7-21.4,1.2-36.5c-2.1-9-5.8-17.4-11.2-25.1l0.8-0.6c5.4,7.7,9.2,16.3,11.3,25.4
			C283.2,71.4,281,84.6,278.5,93.1z"/>
	</g>
	<g>
		<path d="M286.7,53.2l-0.2-1c0.8-0.1,2.1-0.5,3.1-1.6c0.5-0.5,0.9-1,1.2-1.7l0.9,0.4c-0.4,0.7-0.8,1.4-1.4,2
			C289.1,52.6,287.7,53,286.7,53.2z"/>
	</g>
	<g>
		<path d="M290.6,56.1l-0.3-1c0.9-0.3,1.8-0.7,2.6-1.3c0.3-0.2,0.6-0.5,0.8-0.7l0.7,0.7c-0.3,0.3-0.6,0.6-0.9,0.8
			C292.7,55.3,291.7,55.8,290.6,56.1z"/>
	</g>
	<g>
		<path d="M291,60.1l0-1c0.7,0,1.8-0.2,2.8-0.9c0.7-0.4,1.3-1,1.7-1.6l0.8,0.6c-0.5,0.8-1.2,1.4-2,1.9
			C293.1,59.9,291.8,60.1,291,60.1z"/>
	</g>
	<g>
		<path class="st3" d="M174.9,91.5c-2.3-6.2-4.8-15.8-4.1-27.5c0.3-4.9,0.9-13.9,6.1-23.5c1.6-3,4.9-7.5,5.9-8.7
			c0.7-0.8,1.4-1.6,1.4-1.6c0.6-0.7,1.1-1.2,1.3-1.4c0.8-0.9,1.1-1.1,1.1-1.1c-0.9-0.8-25.3,11.2-32.2,34.2
			c-3.2,10.7-1.9,21.1,0.9,29.5"/>
		<path d="M174.4,91.7c-3.3-9-4.7-18.3-4.1-27.7c0.3-4.5,0.9-14,6.2-23.7c1.7-3.1,5-7.5,6-8.7c0.7-0.8,1.4-1.6,1.4-1.6
			c0.5-0.6,1-1,1.2-1.3c-5.5,2.3-24.3,13.8-30.1,33.5c-3.4,11.5-1.4,22.2,0.9,29.2l-1,0.3c-2.3-7.2-4.4-18.1-0.9-29.8
			c6.2-20.8,27.1-33.2,31.9-34.5c0.4-0.1,0.8-0.2,1.1,0.1l0.2,0.1l0,0.2c0,0.2-0.1,0.3-0.3,0.5c-0.2,0.1-0.4,0.4-0.9,1
			c-0.2,0.2-0.6,0.7-1.3,1.4c0,0-0.8,0.8-1.4,1.6c-1,1.2-4.2,5.6-5.9,8.6c-5.2,9.5-5.8,18.5-6.1,23.3c-0.6,9.2,0.8,18.4,4.1,27.3
			L174.4,91.7z"/>
	</g>
	<g>
		<path d="M174.4,91.7c-2.5-8.4-4.8-21.7-1.2-37c2.1-9.1,5.9-17.7,11.3-25.4l0.8,0.6c-5.4,7.6-9.1,16.1-11.2,25.1
			c-3.5,15.1-1.2,28.2,1.2,36.5L174.4,91.7z"/>
	</g>
	<g>
		<path d="M166.2,51.8c-1-0.2-2.4-0.6-3.7-1.8c-0.6-0.6-1.1-1.2-1.4-2l0.9-0.4c0.3,0.6,0.7,1.2,1.2,1.7c1.1,1,2.3,1.4,3.1,1.6
			L166.2,51.8z"/>
	</g>
	<g>
		<path d="M162.2,54.7c-1.1-0.3-2-0.8-2.9-1.4c-0.3-0.2-0.6-0.5-0.9-0.8l0.7-0.7c0.3,0.3,0.5,0.5,0.8,0.7c0.8,0.6,1.6,1,2.6,1.3
			L162.2,54.7z"/>
	</g>
	<g>
		<path d="M161.8,58.7c-0.8,0-2.1-0.2-3.3-1c-0.8-0.5-1.5-1.1-2-1.9l0.8-0.6c0.5,0.7,1,1.2,1.7,1.6c1.1,0.7,2.1,0.8,2.8,0.9
			L161.8,58.7z"/>
	</g>
	<g>
		<ellipse class="st3" cx="221.1" cy="127" rx="15.7" ry="18.5"/>
		<path d="M221.1,146c-8.9,0-16.2-8.5-16.2-19s7.3-19,16.2-19s16.2,8.5,16.2,19S230,146,221.1,146z M221.1,109
			c-8.4,0-15.2,8.1-15.2,18s6.8,18,15.2,18s15.2-8.1,15.2-18S229.4,109,221.1,109z"/>
	</g>
	<g>
		<ellipse class="st3" cx="278.5" cy="177.6" rx="14.2" ry="20.1"/>
		<path d="M278.5,198.1c-8.1,0-14.7-9.2-14.7-20.6s6.6-20.6,14.7-20.6c8.1,0,14.7,9.2,14.7,20.6S286.6,198.1,278.5,198.1z
			 M278.5,158c-7.5,0-13.7,8.8-13.7,19.6s6.1,19.6,13.7,19.6s13.7-8.8,13.7-19.6S286,158,278.5,158z"/>
	</g>
	<g>
		<ellipse class="st3" cx="167.6" cy="176.2" rx="16.1" ry="22.5"/>
		<path d="M167.6,199.2c-9.1,0-16.6-10.3-16.6-23s7.4-23,16.6-23s16.6,10.3,16.6,23S176.7,199.2,167.6,199.2z M167.6,154.2
			c-8.6,0-15.6,9.9-15.6,22s7,22,15.6,22s15.6-9.9,15.6-22S176.2,154.2,167.6,154.2z"/>
	</g>
	<g>
		<path d="M240,238.7c-0.4,0-0.8,0-1.2,0c-7.8-0.5-12.9-5.4-15.1-8.1c-3.8,5.2-10,8.1-16.4,7.6c-10.3-0.8-15.1-9.8-15.3-10.2
			c-0.5-1.3-1.8-5.4,0.4-9.9c2.3-4.6,6.5-6,7.8-6.3l0.5,1.9c-0.7,0.2-4.6,1.4-6.5,5.3c-1.8,3.7-0.7,7.2-0.4,8.2
			c0.1,0.3,4.4,8.3,13.6,9c6.1,0.4,12-2.5,15.4-7.8l0.8-1.3l0.9,1.2c0.9,1.3,6,7.9,14.4,8.4c4.4,0.3,13.3-1.1,16-8.2
			c2.4-6.4-2-12.6-2.5-13.3l1.6-1.2c0.6,0.8,5.5,7.8,2.7,15.2C253.9,236.7,245.4,238.7,240,238.7z"/>
	</g>
	<g>
		<path d="M286.6,176.5c-0.6-3.4-0.9-5.3-2.2-7c-2.7-3.4-8.9-5-12-2.6c-2,1.6-2,4.7-1.8,11c0.1,4.7,0.2,7,1.8,8.8
			c2.4,2.7,7.3,3.8,10.7,1.8c2.4-1.5,3.2-4.1,3.6-5.3C287.3,180.8,287,179,286.6,176.5z"/>
		<path d="M279,189.9c-2.6,0-5.3-1.1-7-3c-1.7-1.9-1.8-4.5-1.9-9.1c-0.2-6.4-0.3-9.6,2-11.4c3.4-2.7,9.9-0.7,12.7,2.7
			c1.4,1.8,1.8,3.7,2.3,7.2c0.4,2.3,0.7,4.4,0,6.8c-0.4,1.2-1.2,4-3.8,5.5C282.1,189.6,280.6,189.9,279,189.9z M276.2,166.2
			c-1.4,0-2.6,0.3-3.5,1c-1.8,1.4-1.8,4.5-1.6,10.6c0.1,4.7,0.2,6.9,1.6,8.5c2.4,2.7,7.1,3.5,10,1.7c2.3-1.4,3-3.9,3.3-5
			c0.7-2.2,0.4-4,0-6.4l0,0c-0.5-3.3-0.8-5.2-2.1-6.8C282.2,167.6,279,166.2,276.2,166.2z"/>
	</g>
	<g>
		<path d="M174.8,170.9c-0.9-2.4-2.9-7.5-6.9-8.1c-3.6-0.5-6.8,2.8-8.1,5.7c-1.1,2.4-1,4.9-0.8,10c0.2,5,0.3,7.4,1.6,9
			c2.4,2.9,6.9,2.5,9.8,1c3.7-2,5-5.9,5.3-6.7C177.2,177,175.6,172.8,174.8,170.9z"/>
		<path d="M165.6,190.2c-2.1,0-4.1-0.7-5.4-2.3c-1.4-1.7-1.5-4.3-1.7-9.3c-0.2-5.1-0.3-7.7,0.9-10.2c1.5-3.3,4.9-6.5,8.7-6
			c4.3,0.6,6.3,5.9,7.3,8.4c0.7,1.9,2.4,6.3,0.8,11.3c-0.4,1.1-1.9,5-5.5,6.9C169.1,189.7,167.4,190.2,165.6,190.2z M167.2,163.2
			c-3.2,0-5.8,3.2-6.9,5.5c-1.1,2.3-1,4.8-0.8,9.7c0.2,4.8,0.3,7.3,1.5,8.7c2.1,2.6,6.3,2.3,9.1,0.8c3.3-1.8,4.7-5.3,5-6.4
			c1.5-4.6-0.1-8.8-0.8-10.6l0,0c-0.9-2.3-2.8-7.2-6.5-7.8C167.6,163.3,167.4,163.2,167.2,163.2z"/>
	</g>
	<g>
		<path d="M230.3,124.6c-0.4-3.3-2.6-9.6-6.8-10c-3.4-0.3-6.5,3.3-7.7,4.6c-3.8,4.4-3.1,9-2.9,10.2c0.2,1.2,1.8,9,8.1,10
			c2.9,0.5,6.4-0.5,8.1-2.8c1-1.4,1.1-3.4,1.3-7.6C230.4,126.7,230.4,125.6,230.3,124.6z"/>
		<path d="M222.3,140c-0.5,0-1,0-1.5-0.1c-6.7-1.1-8.3-9.5-8.5-10.4c-0.3-1.8-0.6-6.4,3.1-10.6c1.2-1.4,4.4-5.2,8.1-4.8
			c4.3,0.4,6.7,6.6,7.2,10.4c0.1,1.1,0.1,2.2,0,4.5c-0.2,4.3-0.3,6.4-1.4,7.9C227.8,139,224.9,140,222.3,140z M223,115
			c-3,0-5.9,3.3-6.8,4.5c-3.4,3.9-3.1,8.2-2.8,9.8c0.2,0.9,1.7,8.6,7.6,9.6c2.9,0.5,6.1-0.7,7.6-2.6c0.9-1.2,1-3.3,1.2-7.3
			c0.1-2.2,0.1-3.3,0-4.3v0c-0.4-3-2.5-9.2-6.3-9.6C223.3,115,223.2,115,223,115z"/>
	</g>
</g>
</svg>
